<svg width="20" height="20" viewBox="0 0 20 20" fill="none" xmlns="http://www.w3.org/2000/svg">
<path d="M5.0013 9.16634V12.4997M15.0013 7.49967V10.833M14.168 3.33301C16.2086 3.33301 17.3122 3.64531 17.8614 3.88754C17.9345 3.9198 17.9711 3.93593 18.0766 4.03665C18.1399 4.09702 18.2554 4.27417 18.2851 4.35641C18.3346 4.49362 18.3346 4.56862 18.3346 4.71863V13.6756C18.3346 14.4329 18.3346 14.8116 18.2211 15.0062C18.1056 15.2042 17.9941 15.2962 17.7779 15.3723C17.5654 15.4471 17.1363 15.3647 16.2781 15.1998C15.6775 15.0844 14.9651 14.9997 14.168 14.9997C11.668 14.9997 9.16797 16.6663 5.83464 16.6663C3.79405 16.6663 2.69036 16.354 2.1412 16.1118C2.06807 16.0795 2.0315 16.0634 1.92597 15.9627C1.86271 15.9023 1.74723 15.7252 1.71753 15.6429C1.66797 15.5057 1.66797 15.4307 1.66797 15.2807L1.66797 6.32372C1.66797 5.56641 1.66797 5.18776 1.78153 4.99313C1.89705 4.79514 2.00846 4.7031 2.22468 4.62702C2.43725 4.55222 2.86633 4.63466 3.72449 4.79955C4.32515 4.91496 5.03754 4.99967 5.83464 4.99967C8.33464 4.99967 10.8346 3.33301 14.168 3.33301ZM12.0846 9.99967C12.0846 11.1503 11.1519 12.083 10.0013 12.083C8.85071 12.083 7.91797 11.1503 7.91797 9.99967C7.91797 8.84908 8.85071 7.91634 10.0013 7.91634C11.1519 7.91634 12.0846 8.84908 12.0846 9.99967Z" stroke="#669B00" stroke-width="1.2" stroke-linecap="round" stroke-linejoin="round"/>
</svg>
