<svg width="20" height="20" viewBox="0 0 20 20" fill="none" xmlns="http://www.w3.org/2000/svg">
<path d="M12.5013 2.04849C11.7121 1.80062 10.8723 1.66699 10.0013 1.66699C5.39893 1.66699 1.66797 5.39795 1.66797 10.0003C1.66797 14.6027 5.39893 18.3337 10.0013 18.3337C14.6037 18.3337 18.3346 14.6027 18.3346 10.0003C18.3346 8.57089 17.9747 7.22551 17.3406 6.04986M14.168 4.79199H14.1721M8.75135 18.2405L8.75144 16.4044C8.75144 16.305 8.78702 16.2088 8.85174 16.1333L10.9232 13.7165C11.0935 13.5179 11.0407 13.2134 10.8136 13.0836L8.43341 11.7234C8.36874 11.6865 8.31516 11.6329 8.27825 11.5682L6.72668 8.84918C6.64593 8.70767 6.49011 8.62621 6.32783 8.64067L1.72145 9.05095M17.5013 5.00033C17.5013 6.84127 15.8346 8.33366 14.168 10.0003C12.5013 8.33366 10.8346 6.84127 10.8346 5.00033C10.8346 3.15938 12.327 1.66699 14.168 1.66699C16.0089 1.66699 17.5013 3.15938 17.5013 5.00033ZM14.3763 4.79199C14.3763 4.90705 14.283 5.00033 14.168 5.00033C14.0529 5.00033 13.9596 4.90705 13.9596 4.79199C13.9596 4.67693 14.0529 4.58366 14.168 4.58366C14.283 4.58366 14.3763 4.67693 14.3763 4.79199Z" stroke="#3C8800" stroke-width="1.3" stroke-linecap="round" stroke-linejoin="round"/>
</svg>
