<svg width="20" height="20" viewBox="0 0 20 20" fill="none" xmlns="http://www.w3.org/2000/svg">
<path d="M12.9559 8.27151C13.2675 7.71785 13.5274 7.21825 13.6876 6.838C14.4657 4.99155 13.6963 2.86763 11.8154 2.00126C9.93452 1.13489 8.04581 2.03324 7.2169 3.76776C5.63177 2.68008 3.51728 2.83982 2.35121 4.53719C1.18513 6.23456 1.5511 8.45202 3.14821 9.66203C3.87305 10.2112 5.3066 11.0205 6.65627 11.7407M13.5823 9.79195C13.2306 7.90199 11.6224 6.51977 9.59767 6.89545C7.5729 7.27113 6.2637 9.09789 6.53742 11.0828C6.75734 12.6776 7.97124 16.4193 8.43997 17.8286C8.50394 18.021 8.53592 18.1171 8.59924 18.1842C8.6544 18.2426 8.72775 18.285 8.80592 18.3035C8.89565 18.3248 8.99492 18.3044 9.19347 18.2637C10.6484 17.9649 14.4957 17.1453 15.9868 16.5384C17.8427 15.783 18.8004 13.7371 18.083 11.7945C17.3657 9.85188 15.3949 9.15158 13.5823 9.79195Z" stroke="#FC6760" stroke-width="1.3" stroke-linecap="round" stroke-linejoin="round"/>
</svg>
