<svg width="20" height="20" viewBox="0 0 20 20" fill="none" xmlns="http://www.w3.org/2000/svg">
<path d="M2.5 6.5C2.5 5.09987 2.5 4.3998 2.77248 3.86502C3.01217 3.39462 3.39462 3.01217 3.86502 2.77248C4.3998 2.5 5.09987 2.5 6.5 2.5H13.5C14.9001 2.5 15.6002 2.5 16.135 2.77248C16.6054 3.01217 16.9878 3.39462 17.2275 3.86502C17.5 4.3998 17.5 5.09987 17.5 6.5V13.5C17.5 14.9001 17.5 15.6002 17.2275 16.135C16.9878 16.6054 16.6054 16.9878 16.135 17.2275C15.6002 17.5 14.9001 17.5 13.5 17.5H6.5C5.09987 17.5 4.3998 17.5 3.86502 17.2275C3.39462 16.9878 3.01217 16.6054 2.77248 16.135C2.5 15.6002 2.5 14.9001 2.5 13.5V6.5Z" stroke="#3B27C1" stroke-width="1.3" stroke-linecap="round" stroke-linejoin="round"/>
<path d="M10 5L6.19467 10.1891C5.9438 10.5312 5.81837 10.7022 5.82242 10.8451C5.82594 10.9695 5.88488 11.0858 5.9831 11.1622C6.09595 11.25 6.30806 11.25 6.73227 11.25H10V15L13.8053 9.81091C14.0562 9.46882 14.1816 9.29778 14.1776 9.15487C14.1741 9.03048 14.1151 8.91418 14.0169 8.83777C13.904 8.75 13.6919 8.75 13.2677 8.75H10V5Z" stroke="#3B27C1" stroke-width="1.3" stroke-linecap="round" stroke-linejoin="round"/>
</svg>
