<svg width="48" height="48" viewBox="0 0 48 48" fill="none" xmlns="http://www.w3.org/2000/svg">
<g clip-path="url(#clip0_6398_39457)">
<path d="M0 16C0 10.3995 0 7.59921 1.08993 5.46009C2.04867 3.57847 3.57847 2.04867 5.46009 1.08993C7.59921 0 10.3995 0 16 0H32C37.6005 0 40.4008 0 42.5399 1.08993C44.4215 2.04867 45.9513 3.57847 46.9101 5.46009C48 7.59921 48 10.3995 48 16V32C48 37.6005 48 40.4008 46.9101 42.5399C45.9513 44.4215 44.4215 45.9513 42.5399 46.9101C40.4008 48 37.6005 48 32 48H16C10.3995 48 7.59921 48 5.46009 46.9101C3.57847 45.9513 2.04867 44.4215 1.08993 42.5399C0 40.4008 0 37.6005 0 32V16Z" fill="url(#paint0_linear_6398_39457)"/>
<path d="M0 16C0 10.3995 0 7.59921 1.08993 5.46009C2.04867 3.57847 3.57847 2.04867 5.46009 1.08993C7.59921 0 10.3995 0 16 0H32C37.6005 0 40.4008 0 42.5399 1.08993C44.4215 2.04867 45.9513 3.57847 46.9101 5.46009C48 7.59921 48 10.3995 48 16V32C48 37.6005 48 40.4008 46.9101 42.5399C45.9513 44.4215 44.4215 45.9513 42.5399 46.9101C40.4008 48 37.6005 48 32 48H16C10.3995 48 7.59921 48 5.46009 46.9101C3.57847 45.9513 2.04867 44.4215 1.08993 42.5399C0 40.4008 0 37.6005 0 32V16Z" fill="url(#paint1_linear_6398_39457)"/>
<path fill-rule="evenodd" clip-rule="evenodd" d="M1.13292 9.51345C1.00078 11.1308 1 13.1832 1 16V32C1 34.8168 1.00078 36.8692 1.13292 38.4865C1.26411 40.0922 1.51977 41.1808 1.98094 42.0859C2.8438 43.7794 4.22063 45.1562 5.91409 46.0191C6.81918 46.4802 7.90777 46.7359 9.51345 46.8671C11.1308 46.9992 13.1832 47 16 47H32C34.8168 47 36.8692 46.9992 38.4865 46.8671C40.0922 46.7359 41.1808 46.4802 42.0859 46.0191C43.7794 45.1562 45.1562 43.7794 46.0191 42.0859C46.4802 41.1808 46.7359 40.0922 46.8671 38.4865C46.9992 36.8692 47 34.8168 47 32V16C47 13.1832 46.9992 11.1308 46.8671 9.51345C46.7359 7.90777 46.4802 6.81918 46.0191 5.91408C45.1562 4.22063 43.7794 2.8438 42.0859 1.98094C41.1808 1.51977 40.0922 1.26411 38.4865 1.13292C36.8692 1.00078 34.8168 1 32 1H16C13.1832 1 11.1308 1.00078 9.51345 1.13292C7.90777 1.26411 6.81918 1.51977 5.91409 1.98094C4.22063 2.8438 2.8438 4.22063 1.98094 5.91409C1.51977 6.81918 1.26411 7.90777 1.13292 9.51345ZM1.08993 5.46009C0 7.59921 0 10.3995 0 16V32C0 37.6005 0 40.4008 1.08993 42.5399C2.04867 44.4215 3.57847 45.9513 5.46009 46.9101C7.59921 48 10.3995 48 16 48H32C37.6005 48 40.4008 48 42.5399 46.9101C44.4215 45.9513 45.9513 44.4215 46.9101 42.5399C48 40.4008 48 37.6005 48 32V16C48 10.3995 48 7.59921 46.9101 5.46009C45.9513 3.57847 44.4215 2.04867 42.5399 1.08993C40.4008 0 37.6005 0 32 0H16C10.3995 0 7.59921 0 5.46009 1.08993C3.57847 2.04867 2.04867 3.57847 1.08993 5.46009Z" fill="black" fill-opacity="0.04"/>
<path d="M3 14.2C3 10.2796 3 8.31945 3.76295 6.82207C4.43407 5.50493 5.50493 4.43407 6.82207 3.76295C8.31945 3 10.2796 3 14.2 3H33.8C37.7204 3 39.6805 3 41.1779 3.76295C42.4951 4.43407 43.5659 5.50493 44.237 6.82207C45 8.31945 45 10.2796 45 14.2V33.8C45 37.7204 45 39.6805 44.237 41.1779C43.5659 42.4951 42.4951 43.5659 41.1779 44.237C39.6805 45 37.7204 45 33.8 45H14.2C10.2796 45 8.31945 45 6.82207 44.237C5.50493 43.5659 4.43407 42.4951 3.76295 41.1779C3 39.6805 3 37.7204 3 33.8V14.2Z" fill="url(#paint2_radial_6398_39457)"/>
<path d="M3 14.2C3 10.2796 3 8.31945 3.76295 6.82207C4.43407 5.50493 5.50493 4.43407 6.82207 3.76295C8.31945 3 10.2796 3 14.2 3H33.8C37.7204 3 39.6805 3 41.1779 3.76295C42.4951 4.43407 43.5659 5.50493 44.237 6.82207C45 8.31945 45 10.2796 45 14.2V33.8C45 37.7204 45 39.6805 44.237 41.1779C43.5659 42.4951 42.4951 43.5659 41.1779 44.237C39.6805 45 37.7204 45 33.8 45H14.2C10.2796 45 8.31945 45 6.82207 44.237C5.50493 43.5659 4.43407 42.4951 3.76295 41.1779C3 39.6805 3 37.7204 3 33.8V14.2Z" fill="url(#paint3_radial_6398_39457)" fill-opacity="0.7" style="mix-blend-mode:screen"/>
<path fill-rule="evenodd" clip-rule="evenodd" d="M3.59371 9.64313C3.50039 10.7853 3.5 12.2316 3.5 14.2V33.8C3.5 35.7684 3.50039 37.2147 3.59371 38.3569C3.68655 39.4932 3.86888 40.2845 4.20846 40.9509C4.83163 42.174 5.82601 43.1684 7.04906 43.7915C7.71552 44.1311 8.50679 44.3134 9.64313 44.4063C10.7853 44.4996 12.2316 44.5 14.2 44.5H33.8C35.7684 44.5 37.2147 44.4996 38.3569 44.4063C39.4932 44.3134 40.2845 44.1311 40.9509 43.7915C42.174 43.1684 43.1684 42.174 43.7915 40.9509C44.1311 40.2845 44.3134 39.4932 44.4063 38.3569C44.4996 37.2147 44.5 35.7684 44.5 33.8V14.2C44.5 12.2316 44.4996 10.7853 44.4063 9.64313C44.3134 8.50679 44.1311 7.71552 43.7915 7.04906C43.1684 5.82601 42.174 4.83163 40.9509 4.20846C40.2845 3.86888 39.4932 3.68655 38.3569 3.59371C37.2147 3.50039 35.7684 3.5 33.8 3.5H14.2C12.2316 3.5 10.7853 3.50039 9.64313 3.59371C8.50679 3.68655 7.71552 3.86888 7.04906 4.20846C5.82601 4.83163 4.83163 5.82601 4.20846 7.04906C3.86888 7.71552 3.68655 8.50679 3.59371 9.64313ZM3.76295 6.82207C3 8.31945 3 10.2796 3 14.2V33.8C3 37.7204 3 39.6805 3.76295 41.1779C4.43407 42.4951 5.50493 43.5659 6.82207 44.237C8.31945 45 10.2796 45 14.2 45H33.8C37.7204 45 39.6805 45 41.1779 44.237C42.4951 43.5659 43.5659 42.4951 44.237 41.1779C45 39.6805 45 37.7204 45 33.8V14.2C45 10.2796 45 8.31945 44.237 6.82207C43.5659 5.50493 42.4951 4.43407 41.1779 3.76295C39.6805 3 37.7204 3 33.8 3H14.2C10.2796 3 8.31945 3 6.82207 3.76295C5.50493 4.43407 4.43407 5.50493 3.76295 6.82207Z" fill="black" fill-opacity="0.2"/>
<path fill-rule="evenodd" clip-rule="evenodd" d="M4.58524 9.71224C4.50078 10.746 4.5 12.0633 4.5 13.9V34.1C4.5 35.9367 4.50078 37.254 4.58524 38.2878C4.66874 39.3098 4.82904 39.9662 5.09946 40.4969C5.62677 41.5318 6.46816 42.3732 7.50305 42.9005C8.0338 43.171 8.6902 43.3313 9.71224 43.4148C10.746 43.4992 12.0633 43.5 13.9 43.5H34.1C35.9367 43.5 37.254 43.4992 38.2878 43.4148C39.3098 43.3313 39.9662 43.171 40.4969 42.9005C41.5318 42.3732 42.3732 41.5318 42.9005 40.4969C43.171 39.9662 43.3313 39.3098 43.4148 38.2878C43.4992 37.254 43.5 35.9367 43.5 34.1V13.9C43.5 12.0633 43.4992 10.746 43.4148 9.71224C43.3313 8.6902 43.171 8.0338 42.9005 7.50305C42.3732 6.46816 41.5318 5.62677 40.4969 5.09946C39.9662 4.82904 39.3098 4.66874 38.2878 4.58524C37.254 4.50078 35.9367 4.5 34.1 4.5H13.9C12.0633 4.5 10.746 4.50078 9.71224 4.58524C8.6902 4.66874 8.0338 4.82904 7.50305 5.09946C6.46816 5.62677 5.62677 6.46816 5.09946 7.50305C4.82904 8.0338 4.66874 8.6902 4.58524 9.71224ZM4.20846 7.04906C3.5 8.43949 3.5 10.2597 3.5 13.9V34.1C3.5 37.7403 3.5 39.5605 4.20846 40.9509C4.83163 42.174 5.82601 43.1684 7.04906 43.7915C8.43949 44.5 10.2597 44.5 13.9 44.5H34.1C37.7403 44.5 39.5605 44.5 40.9509 43.7915C42.174 43.1684 43.1684 42.174 43.7915 40.9509C44.5 39.5605 44.5 37.7403 44.5 34.1V13.9C44.5 10.2597 44.5 8.43949 43.7915 7.04906C43.1684 5.82601 42.174 4.83163 40.9509 4.20846C39.5605 3.5 37.7403 3.5 34.1 3.5H13.9C10.2597 3.5 8.43949 3.5 7.04906 4.20846C5.82601 4.83163 4.83163 5.82601 4.20846 7.04906Z" fill="white" fill-opacity="0.2" style="mix-blend-mode:overlay"/>
<path d="M18 11.3477C13.2701 13.5946 10 18.4156 10 24.0004C10 29.5852 13.2701 34.4062 18 36.6531L18 23.9084C17.9998 23.608 17.9996 23.343 18.0466 23.0795C18.0879 22.8477 18.1563 22.6215 18.2506 22.4057C18.3577 22.1604 18.5048 21.94 18.6716 21.6902L19.5763 20.3332C19.6903 20.1622 19.749 20.0733 19.7875 20.0064L19.7909 20.0004L19.7875 19.9944C19.749 19.9275 19.6903 19.8386 19.5763 19.6676L18.6716 18.3106C18.5048 18.0608 18.3576 17.8404 18.2506 17.5951C18.1563 17.3793 18.0879 17.1531 18.0466 16.9213C17.9996 16.6578 17.9998 16.3927 18 16.0924L18 11.3477Z" fill="url(#paint4_linear_6398_39457)"/>
<path d="M30 36.6531C34.7299 34.4062 38 29.5852 38 24.0004C38 18.4156 34.7299 13.5946 30 11.3477L30 24.0924C30.0002 24.3927 30.0004 24.6578 29.9534 24.9213C29.9121 25.1531 29.8437 25.3793 29.7494 25.5951C29.6423 25.8404 29.4952 26.0608 29.3284 26.3106L28.4237 27.6676C28.3097 27.8386 28.251 27.9275 28.2125 27.9944L28.2091 28.0004L28.2125 28.0064C28.251 28.0733 28.3097 28.1622 28.4237 28.3332L29.3284 29.6902C29.4952 29.94 29.6423 30.1604 29.7494 30.4057C29.8437 30.6215 29.9121 30.8477 29.9534 31.0795C30.0004 31.343 30.0002 31.608 30 31.9084L30 36.6531Z" fill="url(#paint5_linear_6398_39457)"/>
<path fill-rule="evenodd" clip-rule="evenodd" d="M20.0921 39.782C19.7158 39.5903 19.4098 39.2843 19.218 38.908C19.0001 38.4802 19.0001 37.9201 19.0001 36.8V23.9689C19.0001 23.6088 19.0001 23.4287 19.0311 23.2546C19.0586 23.1 19.1043 22.9493 19.1671 22.8054C19.2378 22.6433 19.3377 22.4935 19.5375 22.1939L20.4084 20.8875C20.6222 20.5668 20.7291 20.4064 20.7707 20.233C20.8074 20.0799 20.8074 19.9202 20.7707 19.767C20.7291 19.5936 20.6222 19.4332 20.4084 19.1125L19.5375 17.8062C19.3377 17.5065 19.2379 17.3567 19.1671 17.1946C19.1043 17.0507 19.0586 16.9 19.0311 16.7454C19.0001 16.5713 19.0001 16.3912 19.0001 16.0311V11.2C19.0001 10.0799 19.0001 9.51984 19.218 9.09202C19.4098 8.7157 19.7158 8.40974 20.0921 8.21799C20.5199 8 21.08 8 22.2001 8H25.8001C26.9202 8 27.4802 8 27.908 8.21799C28.2844 8.40974 28.5903 8.7157 28.7821 9.09202C29.0001 9.51984 29.0001 10.0799 29.0001 11.2V24.0311C29.0001 24.3912 29.0001 24.5713 28.969 24.7454C28.9415 24.9 28.8958 25.0507 28.833 25.1946C28.7623 25.3567 28.6624 25.5065 28.4626 25.8062L27.5917 27.1125C27.3779 27.4332 27.271 27.5936 27.2294 27.767C27.1927 27.9202 27.1927 28.0798 27.2294 28.233C27.271 28.4064 27.3779 28.5668 27.5917 28.8875L28.4626 30.1938C28.6624 30.4935 28.7623 30.6433 28.833 30.8054C28.8958 30.9493 28.9415 31.1 28.969 31.2546C29.0001 31.4287 29.0001 31.6088 29.0001 31.9689V36.8C29.0001 37.9201 29.0001 38.4802 28.7821 38.908C28.5903 39.2843 28.2844 39.5903 27.908 39.782C27.4802 40 26.9202 40 25.8001 40H22.2001C21.08 40 20.5199 40 20.0921 39.782ZM19.791 20C19.7899 19.9981 19.7887 19.9961 19.7875 19.994C19.749 19.9271 19.6903 19.8382 19.5763 19.6672L18.7054 18.3609C18.6941 18.3438 18.6828 18.327 18.6717 18.3102C18.5049 18.0604 18.3577 17.84 18.2506 17.5947C18.1564 17.3789 18.0879 17.1527 18.0466 16.9209C17.9996 16.6574 17.9998 16.3924 18 16.092C18 16.0719 18.0001 16.0516 18.0001 16.0311L18.0001 11.1615C18 10.6343 18 10.1795 18.0306 9.80497C18.0629 9.40963 18.1342 9.01641 18.327 8.63803C18.6147 8.07354 19.0736 7.6146 19.6381 7.32698C20.0165 7.13419 20.4097 7.06287 20.805 7.03057C21.1796 6.99997 21.6344 6.99998 22.1615 7H25.8386C26.3657 6.99998 26.8205 6.99997 27.1951 7.03057C27.5904 7.06287 27.9836 7.13419 28.362 7.32698C28.9265 7.6146 29.3855 8.07354 29.6731 8.63803C29.8659 9.01641 29.9372 9.40963 29.9695 9.80497C30.0001 10.1796 30.0001 10.6343 30.0001 11.1615V24.0311C30.0001 24.0516 30.0001 24.0719 30.0001 24.092C30.0003 24.3924 30.0005 24.6574 29.9535 24.9209C29.9122 25.1527 29.8437 25.3789 29.7495 25.5947C29.6424 25.84 29.4952 26.0604 29.3285 26.3102C29.3173 26.327 29.306 26.3438 29.2947 26.3609L28.4238 27.6672C28.3098 27.8382 28.2511 27.9271 28.2126 27.994C28.2114 27.9961 28.2102 27.9981 28.2091 28C28.2102 28.0019 28.2114 28.0039 28.2126 28.006C28.2511 28.0729 28.3098 28.1618 28.4238 28.3328L29.2947 29.6391C29.306 29.6562 29.3173 29.673 29.3284 29.6898C29.4952 29.9396 29.6424 30.16 29.7495 30.4053C29.8437 30.6211 29.9122 30.8473 29.9535 31.0791C30.0005 31.3426 30.0003 31.6076 30.0001 31.908C30.0001 31.9281 30.0001 31.9484 30.0001 31.9689V36.8385C30.0001 37.3657 30.0001 37.8205 29.9695 38.195C29.9372 38.5904 29.8659 38.9836 29.6731 39.362C29.3855 39.9265 28.9265 40.3854 28.362 40.673C27.9836 40.8658 27.5904 40.9371 27.1951 40.9694C26.8205 41 26.3658 41 25.8386 41H22.1615C21.6344 41 21.1796 41 20.805 40.9694C20.4097 40.9371 20.0165 40.8658 19.6381 40.673C19.0736 40.3854 18.6147 39.9265 18.327 39.362C18.1342 38.9836 18.0629 38.5904 18.0306 38.195C18 37.8205 18 37.3657 18.0001 36.8385L18.0001 23.9689C18.0001 23.9484 18 23.9281 18 23.908C17.9998 23.6077 17.9996 23.3426 18.0466 23.0791C18.0879 22.8473 18.1564 22.6211 18.2506 22.4053C18.3577 22.16 18.5049 21.9396 18.6717 21.6898C18.6828 21.673 18.6941 21.6562 18.7054 21.6391L19.5763 20.3328C19.6903 20.1618 19.749 20.0729 19.7875 20.006C19.7887 20.0039 19.7899 20.0019 19.791 20Z" fill="white" fill-opacity="0.2" style="mix-blend-mode:overlay"/>
<path d="M19 11.2C19 10.0799 19 9.51984 19.218 9.09202C19.4097 8.71569 19.7157 8.40973 20.092 8.21799C20.5198 8 21.0799 8 22.2 8H25.8C26.9201 8 27.4802 8 27.908 8.21799C28.2843 8.40973 28.5903 8.71569 28.782 9.09202C29 9.51984 29 10.0799 29 11.2V24.0311C29 24.3912 29 24.5713 28.969 24.7454C28.9414 24.9 28.8958 25.0507 28.833 25.1946C28.7622 25.3567 28.6623 25.5065 28.4626 25.8062L27.5917 27.1125C27.3778 27.4332 27.2709 27.5936 27.2294 27.767C27.1927 27.9202 27.1927 28.0798 27.2294 28.233C27.2709 28.4064 27.3778 28.5668 27.5917 28.8875L28.4626 30.1938C28.6623 30.4935 28.7622 30.6433 28.833 30.8054C28.8958 30.9493 28.9414 31.1 28.969 31.2546C29 31.4287 29 31.6088 29 31.9689V36.8C29 37.9201 29 38.4802 28.782 38.908C28.5903 39.2843 28.2843 39.5903 27.908 39.782C27.4802 40 26.9201 40 25.8 40H22.2C21.0799 40 20.5198 40 20.092 39.782C19.7157 39.5903 19.4097 39.2843 19.218 38.908C19 38.4802 19 37.9201 19 36.8V23.9689C19 23.6088 19 23.4287 19.031 23.2546C19.0586 23.1 19.1042 22.9493 19.167 22.8054C19.2378 22.6433 19.3377 22.4935 19.5374 22.1938L20.4083 20.8875C20.6222 20.5668 20.7291 20.4064 20.7706 20.233C20.8073 20.0798 20.8073 19.9202 20.7706 19.767C20.7291 19.5936 20.6222 19.4332 20.4083 19.1125L19.5374 17.8062C19.3377 17.5065 19.2378 17.3567 19.167 17.1946C19.1042 17.0507 19.0586 16.9 19.031 16.7454C19 16.5713 19 16.3912 19 16.0311V11.2Z" fill="black" fill-opacity="0.7"/>
</g>
<defs>
<linearGradient id="paint0_linear_6398_39457" x1="24" y1="0" x2="24" y2="48" gradientUnits="userSpaceOnUse">
<stop stop-color="#174299"/>
<stop offset="1" stop-color="#001E59"/>
</linearGradient>
<linearGradient id="paint1_linear_6398_39457" x1="24" y1="0" x2="24" y2="48" gradientUnits="userSpaceOnUse">
<stop stop-color="#D2D8E4"/>
<stop offset="1" stop-color="#C2C9D6"/>
</linearGradient>
<radialGradient id="paint2_radial_6398_39457" cx="0" cy="0" r="1" gradientUnits="userSpaceOnUse" gradientTransform="translate(-14.9375 56.375) rotate(-40.0766) scale(82.9048 82.9048)">
<stop offset="0.276042" stop-color="#20FF4D"/>
<stop offset="0.463542" stop-color="#1499FF"/>
<stop offset="0.755208" stop-color="#FF6FC6"/>
<stop offset="1" stop-color="#BC67FF"/>
</radialGradient>
<radialGradient id="paint3_radial_6398_39457" cx="0" cy="0" r="1" gradientUnits="userSpaceOnUse" gradientTransform="translate(-3.5625 -3.5625) rotate(45) scale(68.6777)">
<stop stop-color="#FF0000"/>
<stop offset="1" stop-color="#00A3FF"/>
</radialGradient>
<linearGradient id="paint4_linear_6398_39457" x1="24" y1="10.0004" x2="24" y2="38.0004" gradientUnits="userSpaceOnUse">
<stop stop-opacity="0.12"/>
<stop offset="1" stop-opacity="0.04"/>
</linearGradient>
<linearGradient id="paint5_linear_6398_39457" x1="24" y1="10.0004" x2="24" y2="38.0004" gradientUnits="userSpaceOnUse">
<stop stop-opacity="0.12"/>
<stop offset="1" stop-opacity="0.04"/>
</linearGradient>
<clipPath id="clip0_6398_39457">
<rect width="48" height="48" fill="white"/>
</clipPath>
</defs>
</svg>
