<svg width="13" height="13" viewBox="0 0 13 13" fill="none" xmlns="http://www.w3.org/2000/svg">
<g clip-path="url(#clip0_7001_39140)">
<path d="M4.33203 8.66732V10.184C4.33203 10.7907 4.33203 11.0941 4.45011 11.3258C4.55397 11.5297 4.7197 11.6954 4.92354 11.7992C5.15528 11.9173 5.45864 11.9173 6.06536 11.9173H10.182C10.7888 11.9173 11.0921 11.9173 11.3239 11.7992C11.5277 11.6954 11.6934 11.5297 11.7973 11.3258C11.9154 11.0941 11.9154 10.7907 11.9154 10.184V6.06732C11.9154 5.46059 11.9154 5.15723 11.7973 4.92549C11.6934 4.72165 11.5277 4.55592 11.3239 4.45206C11.0921 4.33398 10.7888 4.33398 10.182 4.33398H8.66536M2.81536 8.66732H6.93203C7.53876 8.66732 7.84212 8.66732 8.07385 8.54924C8.2777 8.44538 8.44343 8.27965 8.54729 8.07581C8.66536 7.84407 8.66536 7.54071 8.66536 6.93398V2.81732C8.66536 2.21059 8.66536 1.90723 8.54729 1.67549C8.44343 1.47165 8.2777 1.30592 8.07385 1.20206C7.84212 1.08398 7.53876 1.08398 6.93203 1.08398H2.81536C2.20864 1.08398 1.90528 1.08398 1.67354 1.20206C1.4697 1.30592 1.30397 1.47165 1.20011 1.67549C1.08203 1.90723 1.08203 2.21059 1.08203 2.81732V6.93398C1.08203 7.54071 1.08203 7.84407 1.20011 8.07581C1.30397 8.27965 1.4697 8.44538 1.67354 8.54924C1.90528 8.66732 2.20864 8.66732 2.81536 8.66732Z" stroke="#868686" stroke-width="1.3" stroke-linecap="round" stroke-linejoin="round"/>
</g>
<defs>
<clipPath id="clip0_7001_39140">
<rect width="13" height="13" fill="white"/>
</clipPath>
</defs>
</svg>
