<svg width="40" height="40" viewBox="0 0 40 40" fill="none" xmlns="http://www.w3.org/2000/svg">
<path d="M28 17H19C17.8954 17 17 17.8954 17 19V28C17 29.1046 17.8954 30 19 30H28C29.1046 30 30 29.1046 30 28V19C30 17.8954 29.1046 17 28 17Z" stroke="#3B27C1" stroke-width="2" stroke-linecap="round" stroke-linejoin="round"/>
<path d="M13 23H12C11.4696 23 10.9609 22.7893 10.5858 22.4142C10.2107 22.0391 10 21.5304 10 21V12C10 11.4696 10.2107 10.9609 10.5858 10.5858C10.9609 10.2107 11.4696 10 12 10H21C21.5304 10 22.0391 10.2107 22.4142 10.5858C22.7893 10.9609 23 11.4696 23 12V13" stroke="#3B27C1" stroke-width="2" stroke-linecap="round" stroke-linejoin="round"/>
<rect x="0.5" y="0.5" width="39" height="39" rx="19.5" stroke="#03116A"/>
</svg>
