<svg width="20" height="20" viewBox="0 0 20 20" fill="none" xmlns="http://www.w3.org/2000/svg">
<path d="M19.0188 4.72592L19.3724 4.37237L19.0188 4.72592C19.3269 5.03401 19.5 5.45188 19.5 5.88759V17.8571C19.5 18.7645 18.7645 19.5 17.8571 19.5H2.14286C1.23552 19.5 0.5 18.7645 0.5 17.8571V2.14286C0.5 1.23552 1.23552 0.5 2.14286 0.5H14.1124C14.5481 0.500002 14.966 0.67309 15.2741 0.981186L19.0188 4.72592ZM6.64286 14.2857C6.64286 16.1398 8.14591 17.6429 10 17.6429C11.8541 17.6429 13.3571 16.1398 13.3571 14.2857C13.3571 12.4316 11.8541 10.9286 10 10.9286C8.14591 10.9286 6.64286 12.4316 6.64286 14.2857ZM14.7857 8.03571V3.54826C14.7857 3.54824 14.7857 3.54823 14.7857 3.54821C14.7857 3.4122 14.7589 3.27751 14.7069 3.15184C14.6548 3.02619 14.5785 2.91203 14.4823 2.81587C14.4823 2.81585 14.4823 2.81583 14.4823 2.81581L14.3271 2.66059C14.1328 2.46623 13.8693 2.35714 13.5946 2.35714H3.39286C2.82087 2.35714 2.35714 2.82087 2.35714 3.39286V8.03571C2.35714 8.60771 2.82087 9.07143 3.39286 9.07143H13.75C14.322 9.07143 14.7857 8.60771 14.7857 8.03571Z" fill="#3B27C1" stroke="white"/>
</svg>
