<svg width="24" height="24" viewBox="0 0 24 24" fill="none" xmlns="http://www.w3.org/2000/svg">
<path d="M4.22111 3.09961H15.6611C16.3411 3.09961 17.1911 3.56961 17.5511 4.14961L21.7311 10.8296C22.1311 11.4796 22.0911 12.4996 21.6311 13.1096L16.4511 20.0096C16.0811 20.4996 15.2811 20.8996 14.6711 20.8996H4.22111C2.47111 20.8996 1.41115 18.9796 2.33115 17.4896L5.10111 13.0596C5.47111 12.4696 5.47111 11.5096 5.10111 10.9196L2.33115 6.48961C1.41115 5.01961 2.48111 3.09961 4.22111 3.09961Z" stroke="white" stroke-width="1.5" stroke-miterlimit="10" stroke-linecap="round" stroke-linejoin="round"/>
<path d="M14.65 14C14.65 12.64 13.48 12.26 12.34 12.07C11.29 11.89 10.44 11.72 10.44 10.88C10.44 10.13 11.05 9.73 11.96 9.73C12.91 9.73 13.56 10.26 13.66 11.07H14.56C14.49 9.95 13.73 9.14 12.47 8.97V7.92H11.71V8.95C10.43 9.04 9.57 9.81 9.57 10.93C9.57 12.29 10.73 12.66 11.86 12.85C12.92 13.03 13.78 13.21 13.78 14.08C13.78 14.84 13.11 15.27 12.17 15.27C11.1 15.27 10.37 14.65 10.3 13.71H9.4C9.45 14.96 10.28 15.88 11.71 16.04V17.07H12.47V16.05C13.77 15.94 14.65 15.12 14.65 14Z" fill="white"/>
</svg>
