<svg width="10" height="15" viewBox="0 0 10 15" fill="none" xmlns="http://www.w3.org/2000/svg">
<path d="M8.592 11.4C8.304 11.88 7.888 12.28 7.36 12.568C6.832 12.856 6.224 13.032 5.552 13.08V14.712H4.336V13.064C3.216 12.936 2.336 12.536 1.696 11.864C1.056 11.192 0.704 10.36 0.672 9.336H2.048C2.096 10.104 2.4 10.712 2.96 11.16C3.504 11.608 4.208 11.832 5.072 11.832C5.84 11.832 6.448 11.672 6.928 11.336C7.408 11 7.648 10.536 7.648 9.928C7.648 9.496 7.504 9.144 7.248 8.888C6.992 8.632 6.656 8.456 6.24 8.328C5.824 8.2 5.28 8.088 4.576 7.96C3.456 7.768 2.56 7.464 1.904 7.016C1.232 6.584 0.912 5.88 0.912 4.888C0.912 3.992 1.216 3.256 1.856 2.68C2.48 2.104 3.312 1.784 4.336 1.704V0.0719995H5.552V1.752C6.512 1.896 7.28 2.264 7.888 2.872C8.48 3.48 8.8 4.216 8.864 5.112H7.488C7.392 4.472 7.104 3.944 6.608 3.544C6.096 3.16 5.472 2.952 4.736 2.952C3.984 2.952 3.392 3.128 2.96 3.448C2.512 3.768 2.304 4.232 2.304 4.808C2.304 5.24 2.432 5.576 2.688 5.816C2.944 6.056 3.264 6.232 3.68 6.36C4.08 6.488 4.64 6.6 5.344 6.712C6.464 6.904 7.36 7.224 8.032 7.672C8.704 8.12 9.04 8.824 9.04 9.8C9.04 10.392 8.88 10.92 8.592 11.4Z" fill="black"/>
</svg>
