<svg width="41" height="40" viewBox="0 0 41 40" fill="none" xmlns="http://www.w3.org/2000/svg">
<rect x="1" y="0.5" width="39" height="39" rx="19.5" fill="#F6F5FF"/>
<path d="M18.83 24.593H12.5293" stroke="#3B27C1" stroke-width="1.5" stroke-linecap="round" stroke-linejoin="round"/>
<path d="M21.6406 14.9007H27.9413" stroke="#3B27C1" stroke-width="1.5" stroke-linecap="round" stroke-linejoin="round"/>
<path fill-rule="evenodd" clip-rule="evenodd" d="M17.2263 14.8463C17.2263 13.5506 16.1681 12.5 14.8631 12.5C13.5582 12.5 12.5 13.5506 12.5 14.8463C12.5 16.1419 13.5582 17.1925 14.8631 17.1925C16.1681 17.1925 17.2263 16.1419 17.2263 14.8463Z" stroke="#3B27C1" stroke-width="1.5" stroke-linecap="round" stroke-linejoin="round"/>
<path fill-rule="evenodd" clip-rule="evenodd" d="M28.4997 24.5533C28.4997 23.2576 27.4424 22.207 26.1374 22.207C24.8316 22.207 23.7734 23.2576 23.7734 24.5533C23.7734 25.8489 24.8316 26.8995 26.1374 26.8995C27.4424 26.8995 28.4997 25.8489 28.4997 24.5533Z" stroke="#3B27C1" stroke-width="1.5" stroke-linecap="round" stroke-linejoin="round"/>
<rect x="1" y="0.5" width="39" height="39" rx="19.5" stroke="#3B27C1"/>
</svg>
