<svg width="14" height="15" viewBox="0 0 14 15" fill="none" xmlns="http://www.w3.org/2000/svg">
<path d="M0.546569 1.26677L0.546543 1.26675C0.449161 1.16937 0.518612 1 0.657013 1H13.3431C13.4808 1 13.5515 1.16884 13.4536 1.26676L13.4536 1.26677L8.39642 6.32454L8.25 6.47098V6.67807V13.8432C8.25 13.9676 8.10817 14.044 8.00414 13.9712L8.00408 13.9712L5.81668 12.4405C5.81665 12.4405 5.81662 12.4405 5.8166 12.4405C5.81659 12.4405 5.81658 12.4405 5.81658 12.4405C5.77482 12.4112 5.75 12.3634 5.75 12.3125V6.67807V6.47099L5.60358 6.32455L0.546569 1.26677Z" fill="#3B27C1" stroke="white"/>
</svg>
