<svg width="111" height="31" viewBox="0 0 111 31" fill="none" xmlns="http://www.w3.org/2000/svg">
<path d="M19.2643 8.06491L24.8665 5.03189C25.14 4.88234 25.3669 4.66825 25.5246 4.41098C25.6823 4.1537 25.7652 3.86221 25.7652 3.56555C25.7652 3.26888 25.6823 2.97738 25.5246 2.72011C25.3669 2.46283 25.14 2.24875 24.8665 2.0992L24.7775 2.0498L16.5391 6.50132V6.59857C16.5392 6.89717 16.6233 7.19047 16.783 7.44888C16.9428 7.70729 17.1724 7.92167 17.4488 8.07039C17.7252 8.21911 18.0386 8.29692 18.3574 8.29596C18.6761 8.29499 18.989 8.2153 19.2643 8.06491Z" fill="#BAFF36"/>
<path d="M11.0397 9.58094V3.51644C11.0388 3.21929 10.9546 2.92758 10.7956 2.67047C10.6365 2.41335 10.4083 2.19983 10.1336 2.05124C9.85889 1.90266 9.54737 1.82421 9.23017 1.82373C8.91296 1.82326 8.60118 1.90078 8.32597 2.04854L8.23535 2.09794V11.001L8.32597 11.0488C8.60118 11.1966 8.91296 11.2741 9.23017 11.2736C9.54737 11.2732 9.85889 11.1947 10.1336 11.0461C10.4083 10.8975 10.6365 10.684 10.7956 10.4269C10.9546 10.1698 11.0388 9.87808 11.0397 9.58094Z" fill="#BAFF36"/>
<path d="M24.8754 11.0005L24.7865 11.0483C24.513 11.1979 24.2861 11.412 24.1284 11.6692C23.9707 11.9265 23.8877 12.218 23.8877 12.5147C23.8877 12.8114 23.9707 13.1028 24.1284 13.3601C24.2861 13.6174 24.513 13.8315 24.7865 13.981L30.3886 17.0125C30.6637 17.1609 30.9755 17.2391 31.2929 17.2391C31.6103 17.2392 31.9222 17.1611 32.1973 17.0128C32.4724 16.8645 32.7011 16.6511 32.8605 16.394C33.0199 16.1369 33.1045 15.845 33.1057 15.5477V15.4505L24.8754 11.0005Z" fill="#BAFF36"/>
<path d="M8.32569 17.0161L2.72352 13.9846C2.44844 13.8369 2.13681 13.7594 1.81974 13.7598C1.50268 13.7602 1.19127 13.8385 0.916623 13.9869C0.641972 14.1353 0.413683 14.3486 0.254552 14.6055C0.095421 14.8624 0.0110191 15.1539 0.00976562 15.4509V15.5482L8.24002 19.9997L8.33064 19.9518C8.60466 19.8021 8.83192 19.5876 8.98971 19.3297C9.14749 19.0719 9.23027 18.7798 9.22977 18.4826C9.22927 18.1854 9.1455 17.8936 8.98685 17.6362C8.8282 17.3788 8.60022 17.165 8.32569 17.0161Z" fill="#BAFF36"/>
<path d="M22.0664 21.4193V27.4838C22.0674 27.7809 22.1516 28.0726 22.3106 28.3297C22.4696 28.5869 22.6978 28.8004 22.9725 28.949C23.2472 29.0976 23.5587 29.176 23.8759 29.1765C24.1931 29.177 24.5049 29.0994 24.7801 28.9517L24.8691 28.9023V19.9992L24.7801 19.9514C24.5049 19.8036 24.1931 19.7261 23.8759 19.7266C23.5587 19.727 23.2472 19.8055 22.9725 19.9541C22.6978 20.1027 22.4696 20.3162 22.3106 20.5733C22.1516 20.8304 22.0674 21.1221 22.0664 21.4193Z" fill="#BAFF36"/>
<path d="M13.8418 22.9355L8.2396 25.967C7.9661 26.1165 7.73919 26.3306 7.5815 26.5879C7.42381 26.8451 7.34082 27.1366 7.34082 27.4333C7.34082 27.73 7.42381 28.0215 7.5815 28.2787C7.73919 28.536 7.9661 28.7501 8.2396 28.8997L8.33022 28.949L16.5605 24.4975V24.4003C16.5594 24.1027 16.4749 23.8106 16.3154 23.5533C16.1559 23.296 15.927 23.0824 15.6517 22.9341C15.3763 22.7857 15.0642 22.7078 14.7465 22.708C14.4289 22.7083 14.1169 22.7867 13.8418 22.9355Z" fill="#BAFF36"/>
<path d="M24.4929 18.0423L27.7289 23.2903C27.8886 23.5465 28.1171 23.7591 28.3917 23.9068C28.6664 24.0545 28.9775 24.1323 29.2942 24.1323C29.6109 24.1323 29.9221 24.0545 30.1967 23.9068C30.4713 23.7591 30.6999 23.5465 30.8595 23.2903L30.9106 23.207C28.7999 19.7803 28.2743 18.9237 26.1587 15.4971H26.0549C25.7376 15.4985 25.4263 15.5779 25.1521 15.7273C24.8778 15.8768 24.6503 16.091 24.4921 16.3487C24.334 16.6064 24.2508 16.8984 24.251 17.1956C24.2511 17.4928 24.3345 17.7848 24.4929 18.0423Z" fill="#BAFF36"/>
<path d="M22.8727 10.3322H29.3464C29.6639 10.3315 29.9755 10.2526 30.2502 10.1036C30.5249 9.95456 30.753 9.74055 30.9117 9.48299C31.0703 9.22542 31.154 8.93333 31.1543 8.63596C31.1546 8.33858 31.0715 8.04635 30.9134 7.78851L30.8623 7.70361H21.3584L21.3073 7.78851C21.1493 8.04624 21.0662 8.33833 21.0664 8.63557C21.0666 8.93282 21.1502 9.2248 21.3086 9.48232C21.4671 9.73984 21.695 9.95387 21.9694 10.103C22.2439 10.2522 22.5553 10.3312 22.8727 10.3322Z" fill="#BAFF36"/>
<path d="M21.3595 23.293L21.3085 23.2096C21.1488 22.9534 20.9203 22.7409 20.6457 22.5931C20.371 22.4454 20.0599 22.3677 19.7432 22.3677C19.4265 22.3677 19.1153 22.4454 18.8407 22.5931C18.566 22.7409 18.3375 22.9534 18.1779 23.2096L14.9402 28.4576C14.7824 28.7154 14.6997 29.0075 14.7002 29.3046C14.7007 29.6018 14.7845 29.8936 14.9431 30.1509C15.1017 30.4083 15.3296 30.6221 15.6041 30.7711C15.8785 30.92 16.1899 30.9989 16.5071 30.9998H16.6109L21.3595 23.293Z" fill="#BAFF36"/>
<path d="M14.936 7.78861L18.1737 2.54064C18.331 2.28287 18.4134 1.99097 18.4127 1.69405C18.412 1.39712 18.3282 1.10557 18.1696 0.848471C18.011 0.591374 17.7833 0.377724 17.509 0.228843C17.2348 0.0799633 16.9237 0.00105872 16.6067 0H16.5029L11.751 7.71761L11.8037 7.80096C11.9644 8.05691 12.1939 8.2689 12.4694 8.41579C12.7449 8.56268 13.0566 8.63932 13.3736 8.63807C13.6906 8.63682 14.0017 8.55773 14.2758 8.40868C14.55 8.25962 14.7776 8.04582 14.936 7.78861Z" fill="#BAFF36"/>
<path d="M10.2368 20.668H3.76299C3.44579 20.6689 3.1344 20.7477 2.85993 20.8967C2.58547 21.0457 2.35754 21.2595 2.19892 21.5168C2.04031 21.7742 1.95656 22.066 1.95606 22.3631C1.95555 22.6603 2.0383 22.9523 2.19604 23.2101L2.24712 23.2935H11.751L11.8037 23.2101C11.9614 22.9523 12.0442 22.6603 12.0437 22.3631C12.0432 22.066 11.9594 21.7742 11.8008 21.5168C11.6422 21.2595 11.4143 21.0457 11.1398 20.8967C10.8654 20.7477 10.554 20.6689 10.2368 20.668Z" fill="#BAFF36"/>
<path d="M8.61865 12.9576L5.38092 7.70962C5.22127 7.45341 4.99275 7.24086 4.71811 7.09313C4.44347 6.94541 4.1323 6.86768 3.81561 6.86768C3.49892 6.86768 3.18776 6.94541 2.91312 7.09313C2.63848 7.24086 2.40995 7.45341 2.2503 7.70962L2.19922 7.79452L6.95118 15.5121H7.05498C7.37384 15.5119 7.687 15.4329 7.96286 15.2831C8.23871 15.1333 8.46748 14.918 8.6261 14.6588C8.78471 14.3997 8.86755 14.106 8.86624 13.8073C8.86493 13.5086 8.77953 13.2155 8.61865 12.9576Z" fill="#BAFF36"/>
<path d="M39.8873 5.32919C39.8873 5.03322 39.9729 4.74389 40.1333 4.49781C40.2937 4.25173 40.5216 4.05996 40.7883 3.94676C41.0549 3.83356 41.3483 3.80402 41.6314 3.86186C41.9144 3.91971 42.1744 4.06235 42.3784 4.27174C42.5823 4.48112 42.7212 4.74785 42.7773 5.03817C42.8334 5.3285 42.8044 5.62938 42.6937 5.90274C42.5831 6.17611 42.3959 6.40968 42.1558 6.57392C41.9157 6.73815 41.6335 6.82566 41.3449 6.82538C41.1518 6.83107 40.9597 6.79625 40.7803 6.72306C40.6008 6.64986 40.4379 6.53984 40.3014 6.39973C40.1649 6.25963 40.0578 6.0924 39.9866 5.90831C39.9154 5.72422 39.8816 5.52715 39.8873 5.32919ZM40.1902 9.25189H42.4456V23.6451H40.1902V9.25189Z" fill="#3B27C1"/>
<path d="M65.5761 15.3486V23.6449H63.3207V15.489C63.3207 12.6668 62.1093 11.1989 59.9907 11.1989C57.651 11.1989 56.2197 13.0057 56.2197 15.9399V23.6449H53.9629V15.489C53.9629 12.6668 52.7183 11.1989 50.579 11.1989C48.2669 11.1989 46.8633 13.1745 46.8633 16.0534V23.6449H44.6064V9.25177H46.5604L46.8633 11.2273C47.6059 10.1835 48.7896 9.08301 50.9635 9.08301C52.9174 9.08301 54.5962 9.98498 55.3886 11.8201C56.2418 10.2601 57.7561 9.08301 60.2604 9.08301C63.1824 9.08301 65.5761 10.8047 65.5761 15.3486Z" fill="#3B27C1"/>
<path d="M81.473 16.4491C81.473 20.8455 78.6118 23.8151 74.7315 23.8151C72.3641 23.8151 70.7683 22.8224 69.915 21.4439L69.6108 23.645H67.6582V3.88965H69.915V11.5606C70.8512 10.2346 72.3641 9.07737 74.7315 9.07737C78.6118 9.08304 81.473 11.7634 81.473 16.4491ZM79.1622 16.4491C79.1622 13.3163 77.2898 11.1422 74.5116 11.1422C71.7584 11.1422 69.8874 13.3163 69.8874 16.3895C69.8874 19.5507 71.7584 21.7517 74.5116 21.7517C77.2898 21.7545 79.1622 19.5819 79.1622 16.4491Z" fill="#3B27C1"/>
<path d="M92.869 9.25195H95.1244V23.6451H93.1718L92.869 21.7263C92.0393 22.7985 90.6938 23.8153 88.383 23.8153C85.3006 23.8153 82.8516 22.0369 82.8516 17.2675V9.25195H85.1084V17.1257C85.1084 20.1181 86.429 21.6979 88.7688 21.6979C91.3271 21.6979 92.869 19.694 92.869 16.4507V9.25195Z" fill="#3B27C1"/>
<path d="M96.6904 16.4491C96.6904 12.074 99.3884 9.08301 103.35 9.08301C107.312 9.08301 109.901 11.6513 110.01 15.913C110.01 16.2222 109.982 16.5611 109.956 16.9057H99.0579V17.0915C99.1409 19.83 100.82 21.7488 103.483 21.7488C105.465 21.7488 107.005 20.6767 107.473 18.8132H109.757C109.204 21.6921 106.896 23.8095 103.648 23.8095C99.4437 23.8151 96.6904 20.8511 96.6904 16.4491ZM107.589 14.9812C107.369 12.498 105.718 11.1139 103.378 11.1139C101.315 11.1139 99.4161 12.6384 99.1948 14.9812H107.589Z" fill="#3B27C1"/>
</svg>
