<svg width="99" height="100" viewBox="0 0 99 100" fill="none" xmlns="http://www.w3.org/2000/svg">
<rect x="0.25" y="0.75" width="98.5" height="98.5" rx="8" fill="#EBEAE2"/>
<g clip-path="url(#clip0_6208_38104)">
<path d="M47.2827 51.3659C46.539 50.0861 45.9789 48.7063 45.6194 47.2679C44.6757 43.5386 44.9617 39.4524 46.4422 35.4495C48.1948 30.6657 51.474 26.6047 55.7644 23.9047C59.9965 21.2788 64.6443 20.4431 68.8498 21.5524C70.3021 21.9323 71.6815 22.5534 72.9314 23.3903L75.5856 25.1746C75.5946 25.1809 75.6022 25.1888 75.608 25.198C75.6139 25.2072 75.6179 25.2175 75.6198 25.2283C75.6218 25.2391 75.6215 25.2501 75.6192 25.2608C75.6169 25.2715 75.6125 25.2816 75.6063 25.2906C75.5935 25.3073 75.5751 25.3189 75.5546 25.3232C75.5341 25.3276 75.5127 25.3245 75.4943 25.3144C74.2603 24.4862 72.8977 23.872 71.4627 23.4973C62.866 21.2282 52.9008 27.4169 49.2498 37.2904C47.7752 41.2605 47.5009 45.3199 48.4329 49.0076C49.3382 52.5763 51.382 55.5919 54.1778 57.4773C54.1869 57.4838 54.1947 57.4921 54.2005 57.5017C54.2064 57.5112 54.2102 57.5219 54.2118 57.533C54.2135 57.5441 54.2129 57.5555 54.2101 57.5663C54.2073 57.5772 54.2024 57.5874 54.1955 57.5963C54.1836 57.6134 54.1655 57.6252 54.1451 57.6291C54.1248 57.6329 54.1037 57.6287 54.0864 57.6171L51.4322 55.8328C49.7347 54.6784 48.3166 53.1538 47.2827 51.3719V51.3659ZM73.7454 24.1397L72.84 23.53C71.6056 22.7034 70.243 22.0903 68.8085 21.7159C60.2117 19.4468 50.2466 25.6356 46.5985 35.506C45.1239 39.4792 44.8467 43.5356 45.7816 47.2262C46.684 50.7949 48.7308 53.8105 51.5236 55.6959L52.4437 56.3145C50.3848 54.3483 48.9327 51.8245 48.2618 49.0463C47.3181 45.317 47.6042 41.2308 49.0817 37.2279C50.8355 32.4448 54.1144 28.3841 58.4039 25.6831C62.6389 23.0572 67.2868 22.2215 71.4923 23.3308C72.2646 23.5357 73.0184 23.8063 73.7454 24.1397Z" fill="#3B27C1" stroke="#3B27C1" stroke-width="0.5" stroke-miterlimit="10"/>
<path d="M49.9248 53.1522C49.7891 52.9232 49.6623 52.6912 49.5414 52.4533C47.2882 48.0816 47.1201 42.5293 49.0843 37.2268C50.8359 32.4425 54.1153 28.3812 58.4065 25.6821C62.6385 23.0561 67.2864 22.2204 71.4919 23.3297C73.3381 23.8153 75.061 24.6908 76.5466 25.8981C78.0321 27.1055 79.2465 28.6172 80.1093 30.3333C82.3624 34.705 82.5276 40.2513 80.5694 45.5508C76.8888 55.5045 66.8322 61.7409 58.1559 59.4509C56.4396 59.0015 54.8288 58.2134 53.4165 57.1322C52.0042 56.0511 50.8184 54.6983 49.9277 53.1522H49.9248ZM79.5961 29.7207C78.7154 28.1924 77.5432 26.8553 76.1471 25.7864C74.751 24.7176 73.1588 23.9382 71.4624 23.4933C62.8656 21.2242 52.9005 27.4129 49.2494 37.2863C47.3059 42.5442 47.4799 48.046 49.7006 52.376C49.8216 52.6109 49.9454 52.8399 50.0781 53.0659C50.9588 54.5925 52.1304 55.9281 53.5253 56.9959C54.9203 58.0637 56.5111 58.8425 58.206 59.2874C66.8057 61.5565 76.7856 55.3677 80.4249 45.4914C82.3684 40.2364 82.1943 34.7377 79.9736 30.4106C79.8527 30.1757 79.7259 29.9437 79.5961 29.7207Z" fill="#3B27C1"/>
<path d="M71.4919 23.3297C67.2864 22.2204 62.6385 23.0561 58.4065 25.6821C54.1153 28.3812 50.8359 32.4425 49.0843 37.2268C47.1201 42.5293 47.2882 48.0816 49.5414 52.4533C49.6623 52.6912 49.7891 52.9232 49.9248 53.1522H49.9277C50.8184 54.6983 52.0042 56.0511 53.4165 57.1322C54.8288 58.2134 56.4396 59.0015 58.1559 59.4509C66.8322 61.7409 76.8888 55.5045 80.5694 45.5508C82.5276 40.2513 82.3624 34.705 80.1093 30.3333C79.2465 28.6172 78.0321 27.1055 76.5466 25.8981C75.061 24.6908 73.3381 23.8153 71.4919 23.3297ZM71.4919 23.3297L71.4712 23.413M79.5961 29.7207C78.7154 28.1924 77.5432 26.8553 76.1471 25.7864C74.751 24.7176 73.1588 23.9382 71.4624 23.4933C62.8656 21.2242 52.9005 27.4129 49.2494 37.2863C47.3059 42.5442 47.4799 48.046 49.7006 52.376C49.8216 52.6109 49.9454 52.8399 50.0781 53.0659C50.9588 54.5925 52.1304 55.9281 53.5253 56.9959C54.9203 58.0637 56.5111 58.8425 58.206 59.2874C66.8057 61.5565 76.7856 55.3677 80.4249 45.4914C82.3684 40.2364 82.1943 34.7377 79.9736 30.4106C79.8527 30.1757 79.7259 29.9437 79.5961 29.7207Z" stroke="#3B27C1" stroke-width="0.5" stroke-miterlimit="10"/>
<path d="M70.2412 26.7444C63.1928 24.8857 55.0531 29.9354 52.0597 38.0275C49.0663 46.1195 52.3547 54.1878 59.4061 56.0495C66.4575 57.9111 74.6001 52.8584 77.5934 44.7634C80.5868 36.6684 77.2986 28.6061 70.2412 26.7444Z" fill="#BAFF36" stroke="#3B27C1" stroke-width="0.5" stroke-miterlimit="10"/>
<path d="M52.666 50.9875C52.5569 50.8031 52.4537 50.6128 52.3534 50.4195C50.5161 46.8508 50.3805 42.3245 51.9819 37.9974C54.9811 29.8786 63.1886 24.7962 70.2666 26.6638C71.7733 27.0596 73.1794 27.7735 74.392 28.7583C75.6046 29.7432 76.5958 30.9765 77.3002 32.3767C79.1376 35.9454 79.2732 40.4688 77.6748 44.7928C74.6726 52.9116 66.468 57.997 59.3901 56.1294C57.9878 55.7633 56.6715 55.1203 55.5173 54.2377C54.3631 53.3551 53.3939 52.2504 52.666 50.9875ZM76.849 31.892C76.1315 30.6505 75.1773 29.5646 74.0414 28.6968C72.9056 27.8291 71.6106 27.1968 70.2311 26.8363C63.2328 24.9895 55.1226 30.0273 52.1499 38.0658C50.5662 42.3512 50.6989 46.827 52.5126 50.3541C52.6129 50.5444 52.7132 50.7318 52.8076 50.9132C53.5241 52.1549 54.4777 53.241 55.6131 54.1088C56.7486 54.9766 58.0433 55.6088 59.4225 55.9688C66.4209 57.8156 74.5369 52.7778 77.5096 44.7363C79.0933 40.4569 78.9606 35.9811 77.1439 32.457C77.0496 32.2647 76.9473 32.0763 76.8372 31.892H76.849Z" fill="#3B27C1"/>
<path d="M70.2666 26.6638C63.1886 24.7962 54.9811 29.8786 51.9819 37.9974C50.3805 42.3245 50.5161 46.8508 52.3534 50.4195C52.4537 50.6128 52.5569 50.8031 52.666 50.9875C53.3939 52.2504 54.3631 53.3551 55.5173 54.2377C56.6715 55.1203 57.9878 55.7633 59.3901 56.1294C66.468 57.997 74.6726 52.9116 77.6748 44.7928C79.2732 40.4688 79.1376 35.9454 77.3002 32.3767C76.5958 30.9765 75.6046 29.7432 74.392 28.7583C73.1794 27.7735 71.7733 27.0596 70.2666 26.6638ZM70.2666 26.6638L70.2459 26.7441M76.849 31.892C76.1315 30.6505 75.1773 29.5646 74.0414 28.6968C72.9056 27.8291 71.6106 27.1968 70.2311 26.8363C63.2328 24.9895 55.1226 30.0273 52.1499 38.0658C50.5662 42.3512 50.6989 46.827 52.5126 50.3541C52.6129 50.5444 52.7132 50.7318 52.8076 50.9132C53.5241 52.1549 54.4777 53.241 55.6131 54.1088C56.7486 54.9766 58.0433 55.6088 59.4225 55.9688C66.4209 57.8156 74.5369 52.7778 77.5096 44.7363C79.0933 40.4569 78.9606 35.9811 77.1439 32.457C77.0496 32.2647 76.9473 32.0763 76.8372 31.892H76.849Z" stroke="#3B27C1" stroke-width="0.5" stroke-miterlimit="10"/>
<path d="M59.5433 52.7814C59.5381 52.7708 59.5354 52.7591 59.5354 52.7472C59.5354 52.7353 59.5381 52.7236 59.5433 52.713L60.3809 50.4439C59.042 49.9056 58.1277 49.067 57.6618 47.9517C57.1722 46.7622 57.2282 45.3555 57.8269 43.7347C57.8348 43.7155 57.8493 43.6999 57.8677 43.6906C57.8861 43.6813 57.9072 43.679 57.9272 43.6842L60.1154 44.2611C60.1262 44.2639 60.1363 44.2688 60.1452 44.2755C60.154 44.2823 60.1613 44.2908 60.1668 44.3005C60.1723 44.3102 60.1759 44.321 60.1772 44.3321C60.1785 44.3432 60.1775 44.3545 60.1744 44.3652C59.7674 45.4715 59.7321 46.4053 60.0712 47.1399C60.4104 47.8744 61.1004 48.383 62.1209 48.6536C62.9966 48.9321 63.9418 48.89 64.7898 48.5346C65.1689 48.3594 65.5082 48.1078 65.7872 47.7953C66.0662 47.4828 66.2788 47.116 66.4119 46.7176C66.5443 46.3943 66.6072 46.0464 66.5966 45.6968C66.5859 45.3472 66.5019 45.0038 66.35 44.6894C66.0373 44.0589 65.3561 43.3749 64.318 42.6552C62.8286 41.6768 61.8407 40.6419 61.3688 39.5802C60.8969 38.5185 60.9206 37.2992 61.4131 35.9758C61.8361 34.7215 62.6758 33.6531 63.79 32.9513C64.8644 32.3076 66.1235 32.0507 67.3615 32.2227L68.3347 29.5967C68.3415 29.5773 68.3553 29.5613 68.3734 29.5519C68.3915 29.5425 68.4124 29.5404 68.432 29.5461L70.2664 30.0309C70.2771 30.0333 70.2871 30.0379 70.2959 30.0444C70.3047 30.0508 70.3121 30.0591 70.3176 30.0685C70.3232 30.078 70.3267 30.0886 70.3281 30.0995C70.3294 30.1104 70.3285 30.1215 70.3254 30.132L69.361 32.7372C69.9277 32.9595 70.4395 33.3038 70.8607 33.746C71.282 34.1882 71.6025 34.7178 71.8 35.2977C72.1863 36.4605 72.0654 37.9029 71.4461 39.5831L71.4136 39.6664C71.4063 39.6861 71.3921 39.7025 71.3736 39.7123C71.3551 39.7222 71.3336 39.7249 71.3133 39.7199L69.1398 39.146C69.118 39.1404 69.0992 39.1263 69.0876 39.1068C69.076 39.0873 69.0726 39.064 69.0779 39.0419L69.1103 38.9556C69.5261 37.8255 69.5999 36.8531 69.3286 36.062C69.2023 35.6789 68.9784 35.3359 68.6792 35.0676C68.38 34.7993 68.0161 34.6151 67.6239 34.5334C66.8441 34.2837 65.9988 34.3476 65.2646 34.7118C64.5619 35.1233 64.0363 35.7838 63.79 36.5646C63.6411 36.9005 63.5683 37.2657 63.577 37.6335C63.5857 38.0013 63.6756 38.3626 63.8402 38.691C64.1705 39.3036 64.8665 39.9727 65.9046 40.6835C66.7892 41.2496 67.5803 41.9521 68.2492 42.7652C68.7264 43.3809 69.0318 44.114 69.1339 44.8886C69.202 45.715 69.0778 46.5459 68.7712 47.3153C68.3422 48.5965 67.4659 49.6767 66.3057 50.3547C65.1027 50.9979 63.7203 51.2147 62.3804 50.9703L61.5399 53.2364C61.5331 53.2558 61.5193 53.2718 61.5012 53.2812C61.4831 53.2906 61.4621 53.2927 61.4425 53.287L59.6082 52.8052C59.5874 52.7987 59.5697 52.785 59.5581 52.7665L59.5433 52.7814ZM60.5548 50.3487C60.5599 50.3599 60.5625 50.3721 60.5625 50.3844C60.5625 50.3967 60.5599 50.4089 60.5548 50.4201L59.7203 52.6803L61.3895 53.1204L62.2241 50.8632C62.2313 50.8466 62.2432 50.8326 62.2585 50.823C62.2738 50.8134 62.2916 50.8088 62.3096 50.8097H62.3361C63.6555 51.0584 65.0195 50.8487 66.2055 50.2149C67.3304 49.5565 68.1794 48.5079 68.5942 47.2648C68.8927 46.5203 69.0129 45.7154 68.9451 44.9154C68.8492 44.1716 68.5557 43.4677 68.0958 42.8782C67.4396 42.0749 66.6623 41.3805 65.7925 40.8203C64.7161 40.0857 64.0231 39.4136 63.6721 38.7683C63.4959 38.4192 63.3992 38.0349 63.389 37.6434C63.3788 37.2519 63.4554 36.863 63.6131 36.5051C63.8743 35.6832 64.4308 34.9895 65.1733 34.5602C65.948 34.1737 66.841 34.1044 67.6653 34.3669C68.0843 34.4554 68.4729 34.6534 68.7922 34.941C69.1116 35.2285 69.3504 35.5956 69.4849 36.0055C69.7798 36.8323 69.6943 37.8434 69.2637 39.0092L71.278 39.5415C71.8855 37.8999 72.0034 36.4962 71.6319 35.378C71.4371 34.8105 71.1204 34.2933 70.7043 33.8635C70.2883 33.4337 69.7833 33.1019 69.2254 32.8918C69.2043 32.8862 69.1862 32.8724 69.1752 32.8535C69.1641 32.8346 69.1609 32.812 69.1663 32.7907L70.1248 30.1945L68.4556 29.7543L67.4883 32.3714C67.4818 32.3891 67.4694 32.4041 67.4534 32.4138C67.4373 32.4235 67.4184 32.4274 67.3998 32.4249C66.1759 32.2389 64.9258 32.4847 63.8608 33.1208C62.7798 33.8043 61.9646 34.8416 61.5517 36.059C61.0798 37.3438 61.0621 38.5125 61.5074 39.5385C61.9527 40.5645 62.9201 41.5816 64.3858 42.5422C65.4445 43.2767 66.1553 43.9845 66.4738 44.6418C66.6361 44.9763 66.7261 45.3417 66.7378 45.714C66.7494 46.0862 66.6826 46.4566 66.5416 46.8008C66.4014 47.2202 66.1775 47.6061 65.8839 47.935C65.5902 48.2638 65.233 48.5286 64.8341 48.7131C63.95 49.08 62.9671 49.1263 62.053 48.8439C60.9795 48.5465 60.254 48.0202 59.8913 47.238C59.5285 46.4559 59.5669 45.531 59.9591 44.4217L57.9331 43.8864C57.3757 45.4328 57.3285 46.786 57.7915 47.9072C58.2545 49.0283 59.157 49.8164 60.4959 50.3398C60.5047 50.3427 60.513 50.3474 60.5201 50.3535C60.5271 50.3596 60.533 50.3671 60.5372 50.3755L60.5548 50.3487Z" fill="#3B27C1" stroke="#3B27C1" stroke-width="0.5" stroke-miterlimit="10"/>
</g>
<g clip-path="url(#clip1_6208_38104)">
<path d="M54.7297 83.7268C45.5023 83.7268 33.8225 77.301 25.9192 67.1636C17.6702 56.5822 15.8854 44.9971 21.5782 38.9922L26.3275 33.9819C26.3442 33.9636 26.3643 33.9489 26.3868 33.9386C26.4093 33.9283 26.4336 33.9226 26.4584 33.9219C26.4831 33.9213 26.5077 33.9256 26.5307 33.9346C26.5537 33.9436 26.5747 33.9572 26.5923 33.9746C26.6106 33.9912 26.6254 34.0114 26.6357 34.0339C26.646 34.0563 26.6516 34.0806 26.6523 34.1054C26.653 34.1301 26.6487 34.1547 26.6397 34.1777C26.6306 34.2007 26.617 34.2216 26.5997 34.2393C21.0366 40.1072 22.8297 51.491 30.9647 61.9225C40.7438 74.4654 56.3205 81.2874 65.6877 77.1282C67.0344 76.5417 68.2511 75.6938 69.2674 74.6336L69.2747 74.6271C69.2919 74.6093 69.3125 74.5952 69.3352 74.5855C69.358 74.5759 69.3824 74.5709 69.4071 74.5709C69.4319 74.5709 69.4563 74.5759 69.4791 74.5855C69.5018 74.5952 69.5224 74.6093 69.5396 74.6271C69.5572 74.6437 69.5713 74.6636 69.5812 74.6857C69.5911 74.7077 69.5965 74.7315 69.5972 74.7557C69.5979 74.7798 69.5938 74.8039 69.5852 74.8265C69.5765 74.8491 69.5635 74.8697 69.5469 74.8873L64.7967 79.8976C63.7447 80.9964 62.4848 81.8753 61.0901 82.4832C59.1885 83.3279 57.035 83.7296 54.7297 83.7296V83.7268ZM24.6301 36.3175L21.8504 39.2496C16.2873 45.1175 18.0803 56.5013 26.2153 66.9338C35.9935 79.4766 51.5702 86.2977 60.9383 82.1385C62.2875 81.5502 63.5064 80.7001 64.5245 79.6375L67.3162 76.6962C66.8439 76.988 66.3523 77.2476 65.8449 77.4729C56.3297 81.701 40.5516 74.8266 30.675 62.156C23.3933 52.8173 21.1479 42.6965 24.6347 36.3203L24.6301 36.3175Z" stroke="#2C23A5" stroke-miterlimit="10"/>
<path d="M65.7831 77.3283C66.2862 77.1059 66.7735 76.8491 67.2414 76.5598L68.2244 75.955M65.7831 77.3283C56.3267 81.527 40.6304 74.6756 30.7934 62.0555C23.6294 52.8639 21.2634 42.7908 24.7659 36.3852L25.3176 35.3686L21.7407 39.1372C16.1261 45.0603 17.9173 56.524 26.0955 67.0162C33.963 77.1067 45.5655 83.5032 54.7203 83.5032C56.9979 83.5032 59.1248 83.107 61.0025 82.2734C62.3711 81.6782 63.6071 80.8161 64.6382 79.7374L68.2244 75.955M65.7831 77.3283C66.2862 77.1065 66.7735 76.8504 67.2414 76.5617L68.2244 75.955M64.4203 79.5287C63.4168 80.5789 62.2135 81.418 60.8811 81.9967C59.0338 82.8166 56.9437 83.2063 54.7019 83.2063C45.6501 83.2063 34.1432 76.8485 26.3383 66.8361C18.2529 56.4643 16.4534 45.1605 21.9632 39.3486L24.0588 37.1426C21.1641 43.6687 23.6423 53.3777 30.5552 62.2449C40.4723 74.9679 56.3313 81.8588 65.9053 77.6077C66.1141 77.5158 66.321 77.4165 66.5251 77.3126L64.4203 79.5287ZM69.6487 74.512C69.5829 74.4532 69.4979 74.4205 69.4097 74.42C69.3633 74.4206 69.3176 74.4306 69.2752 74.4494C69.2328 74.4682 69.1947 74.4955 69.1632 74.5294C68.1615 75.5765 66.9608 76.413 65.6313 76.99C56.323 81.1262 40.8263 74.3245 31.0876 61.8303C23.0023 51.4585 21.2037 40.1547 26.7135 34.3475C26.7749 34.2822 26.808 34.1954 26.8056 34.1058C26.8032 34.0163 26.7654 33.9313 26.7006 33.8695C26.6355 33.8081 26.5487 33.7751 26.4593 33.7775C26.3699 33.7799 26.285 33.8176 26.2234 33.8824L21.4731 38.8936C15.727 44.9536 17.509 56.6187 25.805 67.2607C33.5556 77.2023 45.1821 83.8819 54.7341 83.8819C57.1147 83.8819 59.2747 83.4572 61.1551 82.6226C62.5688 82.0079 63.8455 81.1173 64.9104 80.003L69.6616 74.9908C69.6926 74.9588 69.7169 74.9208 69.7331 74.8793C69.7492 74.8377 69.7569 74.7933 69.7557 74.7487C69.7545 74.7041 69.7445 74.6602 69.7261 74.6196C69.7077 74.5789 69.6814 74.5423 69.6487 74.512ZM69.4418 74.7758L64.6925 79.7861C63.6553 80.872 62.4113 81.7395 61.0337 82.3377C59.1947 83.1567 57.0724 83.5712 54.7341 83.5712C45.2694 83.5712 33.7386 76.9385 26.045 67.0668C17.8428 56.5442 16.0534 45.041 21.6938 39.0912L26.444 34.08C26.4475 34.0764 26.4517 34.0736 26.4562 34.0718C26.4608 34.0699 26.4657 34.0689 26.4707 34.0689C26.4755 34.0688 26.4802 34.0696 26.4846 34.0713C26.489 34.0731 26.4931 34.0757 26.4964 34.0791C26.5025 34.0865 26.5058 34.0957 26.5058 34.1053C26.5058 34.1148 26.5025 34.1241 26.4964 34.1315C20.8818 40.0536 22.6731 51.5183 30.8522 62.0105C38.7151 72.0955 50.3204 78.4919 59.4733 78.491C61.75 78.491 63.8769 78.0949 65.7546 77.2612C67.1223 76.6662 68.3577 75.8047 69.3885 74.727L69.2809 74.6223L69.44 74.727C69.4466 74.7333 69.4505 74.7419 69.4508 74.751C69.4512 74.7601 69.4479 74.769 69.4418 74.7758Z" stroke="#2C23A5" stroke-miterlimit="10"/>
<path d="M66.523 77.31L64.4182 79.5306C63.4148 80.5808 62.2115 81.4199 60.879 81.9986C59.0317 82.8185 56.9416 83.2082 54.6998 83.2082C45.648 83.2082 34.1411 76.8504 26.3362 66.838C18.2509 56.4662 16.4513 45.1624 21.9611 39.3505L24.0567 37.1445C21.1621 43.6706 23.6402 53.3796 30.5531 62.2468C40.4702 74.9698 56.3292 81.8607 65.9033 77.6096C66.112 77.5131 66.3189 77.4138 66.523 77.31Z" fill="#FC6760" stroke="#2C23A5" stroke-miterlimit="10"/>
<path d="M30.1175 31.5659C39.5757 27.3663 55.2204 34.1984 65.0704 46.8341C74.9093 59.456 75.2283 73.1009 65.771 77.2996C56.3138 81.4983 40.6681 74.6598 30.8228 62.037C20.9774 49.4142 20.6602 35.7646 30.1175 31.5659Z" fill="white"/>
<path d="M59.4822 78.6788C50.2668 78.6788 38.5989 72.2585 30.7012 62.1284C24.5919 54.2917 21.9115 45.7555 23.5289 39.2938C24.4484 35.6346 26.7013 32.9148 30.052 31.4267C39.5525 27.2077 55.3131 34.0775 65.1842 46.7399C71.2898 54.573 73.9684 63.1073 72.3482 69.57C71.4287 73.2282 69.1768 75.9489 65.8279 77.4361C63.9318 78.279 61.7829 78.6788 59.4822 78.6788ZM36.4188 30.48C34.1549 30.48 32.0428 30.8733 30.177 31.7015C26.9137 33.1501 24.7169 35.801 23.8231 39.3664C22.2269 45.7389 24.887 54.1796 30.9402 61.9437C40.7286 74.4985 56.3237 81.3269 65.7083 77.1641C68.9699 75.7155 71.1657 73.0655 72.0595 69.4992C73.6567 63.1258 70.9983 54.6879 64.9497 46.9274C57.1062 36.8635 45.5349 30.48 36.4188 30.48Z" fill="#3B27C1"/>
<path d="M59.48 78.7171C50.2525 78.7171 38.5728 72.2912 30.6695 62.1538C24.5528 54.3088 21.8696 45.7597 23.4917 39.287C24.4112 35.6167 26.6742 32.8878 30.0359 31.3951C39.5511 27.1669 55.3311 34.045 65.2113 46.7184C71.3243 54.5597 74.0047 63.1061 72.3836 69.5797C71.4641 73.2508 69.2021 75.9789 65.8412 77.4707C63.9378 78.3154 61.7852 78.7171 59.48 78.7171ZM36.4174 30.5182C34.1572 30.5182 32.0506 30.9116 30.1877 31.7379C26.9353 33.1819 24.7459 35.8236 23.8549 39.3779C22.2614 45.7394 24.9188 54.1672 30.9646 61.9231C38.799 71.9713 50.3546 78.3476 59.457 78.3485C61.7172 78.3485 63.8238 77.9551 65.6876 77.1288C68.9391 75.6848 71.1285 73.0431 72.0195 69.4887C73.6139 63.1254 70.9584 54.6994 64.9162 46.9491C57.0791 36.8971 45.5207 30.5182 36.4174 30.5182Z" fill="#3B27C1"/>
<path d="M65.0391 46.8535C57.3501 36.9909 45.8487 30.3647 36.4217 30.3647C34.0907 30.3647 31.974 30.7801 30.1313 31.5973C26.8348 33.0615 24.6141 35.7335 23.7139 39.3384C22.1084 45.745 24.776 54.2215 30.8503 62.0122C38.5357 71.8712 50.0343 78.4946 59.4613 78.4955C61.7913 78.4955 63.9081 78.081 65.7536 77.263C69.0482 75.8006 71.2707 73.1267 72.1691 69.5227C73.7746 63.1153 71.1098 54.6443 65.0391 46.8535ZM71.8776 69.4492C70.9985 72.9576 68.8386 75.5643 65.6313 76.9863C63.8253 77.7869 61.749 78.1931 59.4613 78.1931C50.1217 78.1931 38.7196 71.6147 31.0876 61.8257C25.0702 54.1047 22.4229 45.7266 24.0072 39.4092C24.8863 35.9017 27.0417 33.295 30.26 31.8721C32.0641 31.0715 34.1395 30.6662 36.4282 30.6662C45.7677 30.6662 57.1726 37.2455 64.8083 47.0382C70.8155 54.7537 73.461 63.1309 71.8776 69.4492ZM65.0391 46.8535C57.3501 36.9909 45.8487 30.3647 36.4217 30.3647C34.0907 30.3647 31.974 30.7801 30.1313 31.5973C26.8348 33.0615 24.6141 35.7335 23.7139 39.3384C22.1084 45.745 24.776 54.2215 30.8503 62.0122C38.5357 71.8712 50.0343 78.4946 59.4613 78.4955C61.7913 78.4955 63.9081 78.081 65.7536 77.263C69.0482 75.8006 71.2707 73.1267 72.1691 69.5227C73.7746 63.1153 71.1098 54.6443 65.0391 46.8535ZM71.8776 69.4492C70.9985 72.9576 68.8386 75.5643 65.6313 76.9863C63.8253 77.7869 61.749 78.1931 59.4613 78.1931C50.1217 78.1931 38.7196 71.6147 31.0876 61.8257C25.0702 54.1047 22.4229 45.7266 24.0072 39.4092C24.8863 35.9017 27.0417 33.295 30.26 31.8721C32.0641 31.0715 34.1395 30.6662 36.4282 30.6662C45.7677 30.6662 57.1726 37.2455 64.8083 47.0382C70.8155 54.7537 73.461 63.1309 71.8776 69.4492ZM65.3352 46.6237C55.4145 33.8989 39.5545 27.0052 29.9795 31.2554C26.5773 32.7674 24.2785 35.5313 23.3516 39.2474C21.7176 45.7652 24.4109 54.3612 30.5561 62.243C38.3058 72.1855 49.9323 78.8641 59.4852 78.8641C61.8649 78.8641 64.0258 78.4413 65.9062 77.6058C69.3084 76.0947 71.6073 73.3308 72.5341 69.6137C74.1626 63.1006 71.4748 54.5009 65.3352 46.6237ZM72.2417 69.5402C71.3341 73.1644 69.1006 75.8585 65.7839 77.331C63.9449 78.149 61.8226 78.5636 59.4852 78.5636C50.0196 78.5636 38.4897 71.9309 30.7961 62.0582C24.7079 54.2454 22.0349 45.7487 23.6459 39.3201C24.5525 35.6976 26.786 33.0036 30.1046 31.5302C31.9905 30.6928 34.1247 30.2948 36.4116 30.2948C45.5894 30.2948 57.2222 36.7032 65.1007 46.8084C71.1815 54.6139 73.8518 63.1116 72.2408 69.5402H72.2417ZM65.04 46.8535C57.351 36.9909 45.8496 30.3647 36.4226 30.3647C34.0916 30.3647 31.9749 30.7801 30.1322 31.5973C26.8357 33.0615 24.615 35.7335 23.7148 39.3384C22.1094 45.745 24.7769 54.2215 30.8512 62.0122C38.5366 71.8712 50.0352 78.4946 59.4622 78.4955C61.7923 78.4955 63.909 78.081 65.7545 77.263C69.0491 75.8006 71.2716 73.1267 72.17 69.5227C73.7746 63.1153 71.1098 54.6443 65.0391 46.8535H65.04ZM71.8785 69.4492C70.9994 72.9576 68.8395 75.5643 65.6322 76.9863C63.8262 77.7869 61.75 78.1931 59.4622 78.1931C50.1226 78.1931 38.7205 71.6147 31.0885 61.8257C25.0711 54.1047 22.4238 45.7266 24.0082 39.4092C24.8872 35.9017 27.0426 33.295 30.2609 31.8721C32.065 31.0715 34.1404 30.6662 36.4291 30.6662C45.7687 30.6662 57.1735 37.2455 64.8092 47.0382C70.8155 54.7537 73.461 63.1309 71.8776 69.4492H71.8785Z" fill="#3B27C1"/>
<path d="M71.8757 69.4471C70.9967 72.9555 68.8367 75.5623 65.6294 76.9842C63.8235 77.7848 61.7472 78.191 59.4594 78.191C50.1198 78.191 38.7178 71.6126 31.0857 61.8236C25.0684 54.1026 22.4211 45.7245 24.0054 39.4071C24.8845 35.8996 27.0398 33.2929 30.2581 31.87C32.0622 31.0694 34.1376 30.6641 36.4263 30.6641C45.7659 30.6641 57.1707 37.2434 64.8064 47.0361C70.8137 54.7516 73.4591 63.1288 71.8757 69.4471Z" fill="#3B27C1"/>
<path d="M61.8945 48.2328C53.8726 37.9437 41.1216 32.3745 33.4105 35.7984C25.6993 39.2223 25.9623 50.3358 33.9815 60.6258C42.0006 70.9158 54.7627 76.4896 62.4655 73.0685C70.1684 69.6474 69.9201 58.5283 61.8945 48.2328Z" fill="#EAFFC2"/>
<path d="M57.3497 74.2235C49.8298 74.2235 40.31 68.9843 33.8669 60.7211C28.8859 54.3311 26.7011 47.3675 28.0233 42.0934C28.7718 39.1033 30.6155 36.8799 33.3566 35.6639C41.1127 32.2207 53.9713 37.8193 62.0199 48.1442C67.0037 54.537 69.1922 61.5023 67.8681 66.7765C67.1187 69.7683 65.2732 71.9927 62.5349 73.2106C60.9809 73.8945 59.2283 74.2235 57.3497 74.2235ZM38.5574 34.9441C36.7183 34.9441 34.9952 35.264 33.4761 35.9387C30.8251 37.1161 29.0403 39.2688 28.3148 42.1669C27.0155 47.3519 29.1801 54.2189 34.1078 60.5363C42.0801 70.762 54.7768 76.3238 62.4116 72.9339C65.0645 71.7565 66.8511 69.602 67.5766 66.7039C68.8768 61.518 66.7104 54.6491 61.7836 48.329C55.3966 40.1374 45.9779 34.9414 38.5574 34.9414V34.9441Z" fill="#3B27C1"/>
<path d="M57.3527 74.2557C49.82 74.2557 40.2873 69.0165 33.8387 60.7441C28.8503 54.3458 26.6664 47.3703 27.9878 42.0851C28.74 39.0841 30.59 36.8514 33.3394 35.6317C41.1094 32.1812 53.9882 37.7844 62.0469 48.1222C67.0372 54.5232 69.2265 61.5005 67.9015 66.7866C67.1493 69.7895 65.2965 72.0258 62.5462 73.2437C60.9053 73.9423 59.136 74.2889 57.3527 74.2612V74.2557ZM38.5605 34.9736C36.8198 34.9468 35.0928 35.2853 33.4911 35.9672C30.8512 37.1382 29.0774 39.2835 28.3501 42.1697C27.0536 47.3436 29.2154 54.1987 34.133 60.5069C40.5135 68.6874 49.9221 73.8844 57.3288 73.8853C59.0676 73.9132 60.7928 73.5756 62.3926 72.8944C65.0354 71.7216 66.8137 69.5754 67.542 66.6883C68.8385 61.5134 66.6749 54.6565 61.7545 48.3446C55.3785 40.1641 45.9727 34.9736 38.5651 34.9736H38.5605Z" fill="#3B27C1"/>
<path d="M57.5576 74.4066C57.4886 74.4066 57.4197 74.4066 57.3498 74.4066C49.5439 74.4066 40.0471 68.9514 33.718 60.8325C28.703 54.3984 26.5053 47.3751 27.8404 42.0448C28.6046 38.996 30.4841 36.7294 33.2767 35.4894C41.1082 32.0132 54.0662 37.6366 62.1644 48.0249C67.1831 54.459 69.3826 61.4888 68.0493 66.819C67.2852 69.8678 65.4039 72.1354 62.6094 73.3772C61.0126 74.0589 59.2939 74.4091 57.5576 74.4066ZM38.5455 34.755C36.6789 34.755 34.9392 35.0786 33.3962 35.7661C30.691 36.9674 28.8694 39.167 28.1292 42.1193C26.817 47.3585 28.9935 54.2881 33.9534 60.6496C40.2282 68.6996 49.6304 74.1079 57.3488 74.1079C59.1118 74.1404 60.8614 73.7976 62.4816 73.1023C65.1869 71.901 67.0093 69.7014 67.7505 66.7473C69.0636 61.5081 66.8852 54.5776 61.9226 48.2115C55.5089 39.9767 46.0286 34.7568 38.5455 34.7568V34.755ZM57.5309 74.039H57.3259C49.6469 74.039 40.2779 68.638 34.0132 60.6027C29.068 54.2605 26.8952 47.3548 28.2027 42.1358C28.9383 39.2028 30.7461 37.0226 33.4293 35.8323C35.0496 35.1394 36.7981 34.7967 38.5602 34.8267C46.2401 34.8267 55.6073 40.224 61.8683 48.2556C66.8163 54.6024 68.9891 61.5081 67.6815 66.7307C66.9459 69.6647 65.1381 71.8449 62.4531 73.0371C60.8972 73.701 59.2226 74.0418 57.5309 74.039ZM38.3589 35.1236C36.7055 35.1222 35.0691 35.4565 33.5488 36.1062C30.9558 37.257 29.2078 39.3664 28.4915 42.2066C27.2041 47.3365 29.3577 54.1438 34.2468 60.4161C40.4572 68.3825 49.7315 73.7356 57.3268 73.7366C59.0455 73.7654 60.7509 73.4316 62.3317 72.7567C64.9275 71.605 66.6774 69.4937 67.3891 66.6526C68.6764 61.5218 66.5211 54.7127 61.6292 48.4385C55.4224 40.4759 46.1509 35.1254 38.5584 35.1254L38.3589 35.1236Z" fill="#3B27C1"/>
<path d="M60.5767 68.6082L58.3937 65.8075C59.773 64.8957 60.4912 63.6935 60.5353 62.2228C60.5803 60.7292 59.9045 59.0747 58.5252 57.3044C57.7353 56.2685 56.7873 55.3631 55.7161 54.6214C54.6899 53.9425 53.5509 53.4519 52.3525 53.1728C50.8904 52.8641 49.3936 52.7525 47.902 52.841C46.2165 52.9108 44.8409 52.7628 43.8119 52.4025C42.783 52.0422 41.8626 51.3427 41.0662 50.3206C40.2065 49.2176 39.7955 48.2424 39.846 47.4179C39.8856 46.6082 40.3748 46.0061 41.3394 45.5796C42.2662 45.1678 43.3393 45.2542 44.531 45.8351C45.7439 46.4188 46.9273 47.4437 48.0473 48.8803L48.1319 48.9888C48.1572 49.0226 48.1935 49.0466 48.2345 49.0568C48.2756 49.067 48.3189 49.0628 48.3571 49.0448L50.7359 47.9887C50.7498 47.9829 50.7628 47.9751 50.7746 47.9657C50.7944 47.951 50.8111 47.9323 50.8235 47.9109C50.836 47.8896 50.844 47.8659 50.8471 47.8413C50.8502 47.8168 50.8483 47.7919 50.8415 47.7681C50.8347 47.7443 50.8232 47.7221 50.8077 47.7029L50.7231 47.5944C49.0587 45.4592 47.3208 43.9361 45.5471 43.0666C43.7917 42.2054 42.074 41.9636 40.441 42.3405L37.8562 39.026C37.8309 38.9926 37.795 38.9689 37.7543 38.9587C37.7137 38.9485 37.6708 38.9524 37.6328 38.9699L35.6282 39.8597C35.6143 39.8655 35.6013 39.8733 35.5896 39.8826C35.5697 39.8974 35.5531 39.9161 35.5406 39.9375C35.5282 39.9588 35.5202 39.9825 35.5171 40.0071C35.514 40.0316 35.5159 40.0565 35.5226 40.0803C35.5294 40.1041 35.5409 40.1263 35.5565 40.1455L38.1008 43.4076C36.9266 44.2698 36.3436 45.4224 36.3666 46.8361C36.3868 48.3205 37.0783 49.9456 38.4217 51.669C39.7339 53.3529 41.263 54.5699 42.9651 55.285C44.6671 56.0001 46.7351 56.2906 49.1167 56.1499C50.8086 56.0911 52.1943 56.2602 53.2325 56.6555C54.2747 57.0576 55.1848 57.7411 55.8614 58.6298C56.7036 59.7108 57.065 60.7053 56.9345 61.5877C56.8039 62.4701 56.2135 63.1282 55.1377 63.6052C54.5981 63.8466 54.0143 63.9731 53.4232 63.9767C52.8321 63.9804 52.2467 63.861 51.7042 63.6264C50.5088 63.1466 49.3456 62.1897 48.2486 60.7825C48.2233 60.7491 48.1874 60.7254 48.1468 60.7152C48.1062 60.705 48.0633 60.7089 48.0252 60.7264L45.6344 61.789C45.6206 61.7948 45.6076 61.8026 45.5958 61.812C45.576 61.8267 45.5593 61.8454 45.5469 61.8668C45.5344 61.8882 45.5264 61.9118 45.5233 61.9364C45.5202 61.9609 45.5221 61.9858 45.5289 62.0096C45.5357 62.0334 45.5472 62.0556 45.5627 62.0748C47.1664 64.1319 48.9254 65.5842 50.7911 66.3949C52.5584 67.1541 54.3212 67.3067 56.0324 66.8471L58.2816 69.7314C58.2989 69.7542 58.3213 69.7727 58.347 69.7853C58.3727 69.7979 58.401 69.8043 58.4296 69.804C58.4553 69.8041 58.4808 69.7985 58.5041 69.7875L60.5086 68.8978C60.5228 68.8916 60.5361 68.8835 60.5482 68.8739C60.5681 68.8587 60.5847 68.8397 60.597 68.8179C60.6093 68.7961 60.617 68.7721 60.6197 68.7472C60.6223 68.7223 60.6199 68.6972 60.6125 68.6733C60.6051 68.6494 60.5929 68.6272 60.5767 68.6082ZM57.305 61.6456C57.4503 60.6575 57.0641 59.5655 56.1565 58.4019C55.4382 57.4588 54.4721 56.7336 53.3658 56.3071C52.2798 55.8944 50.8444 55.7161 49.0983 55.7777C46.7746 55.9165 44.76 55.6352 43.1103 54.9422C41.4607 54.2491 39.9895 53.0744 38.7169 51.4411C37.4295 49.7866 36.7601 48.2341 36.7417 46.8333C36.7197 45.4895 37.3026 44.404 38.475 43.6052L38.4842 43.5979C38.504 43.583 38.5206 43.5643 38.5329 43.5429C38.5453 43.5215 38.5532 43.4978 38.5562 43.4733C38.5593 43.4487 38.5573 43.4238 38.5504 43.4001C38.5436 43.3763 38.532 43.3542 38.5164 43.335L35.9997 40.106L37.6548 39.3707L40.2295 42.6659C40.2542 42.6948 40.2869 42.716 40.3235 42.7268C40.36 42.7375 40.3989 42.7375 40.4355 42.7265C42.0124 42.335 43.6795 42.5611 45.3898 43.4012C47.1002 44.2413 48.7627 45.6945 50.3718 47.7424L48.3489 48.6413C47.1949 47.1633 45.9691 46.1035 44.7057 45.496C43.4101 44.8645 42.2313 44.7763 41.1987 45.2349C40.1072 45.7193 39.5297 46.4482 39.4828 47.3977C39.4277 48.3169 39.8644 49.3748 40.7821 50.5513C41.6235 51.6304 42.6046 52.3722 43.6988 52.7573C44.7728 53.1342 46.1963 53.2886 47.9286 53.2169C49.3857 53.1305 50.8478 53.239 52.2761 53.5395C53.4309 53.8081 54.5285 54.2803 55.5175 54.9339C56.5556 55.6536 57.474 56.5321 58.2392 57.5369C59.5634 59.2355 60.2135 60.8092 60.1702 62.2127C60.1289 63.5979 59.4172 64.733 58.0553 65.586L58.0379 65.598L58.0149 65.6173C57.9953 65.6322 57.979 65.6509 57.9667 65.6723C57.9545 65.6936 57.9468 65.7172 57.9438 65.7417C57.9409 65.7661 57.9429 65.7908 57.9498 65.8145C57.9566 65.8381 57.9681 65.8601 57.9836 65.8792L60.1445 68.6505L58.4894 69.3858L56.2531 66.5171C56.2354 66.4948 56.2129 66.4768 56.1872 66.4644C56.1616 66.452 56.1335 66.4455 56.105 66.4454C56.0876 66.4455 56.0703 66.448 56.0535 66.4528C54.3901 66.9289 52.6715 66.7938 50.9438 66.0511C49.1967 65.2947 47.5342 63.9444 46.0105 62.0371L48.0491 61.1327C49.1608 62.5298 50.3479 63.4867 51.5699 63.9821C52.1588 64.2359 52.794 64.3645 53.4352 64.3599C54.0765 64.3553 54.7098 64.2176 55.2949 63.9554C56.4747 63.4242 57.1496 62.6484 57.305 61.6456Z" fill="#3B27C1"/>
<path d="M58.0946 65.7873C58.0826 65.7717 58.0854 65.7478 58.1277 65.7147C59.5346 64.8332 60.2702 63.6567 60.3134 62.2219C60.3566 60.7871 59.6964 59.1758 58.3511 57.4505C57.5762 56.4318 56.6452 55.5418 55.5926 54.8134C54.5884 54.1484 53.4732 53.6684 52.2998 53.3961C50.859 53.0936 49.3842 52.9845 47.9146 53.0716C46.2015 53.1415 44.7955 52.9907 43.7399 52.6203C42.6843 52.2499 41.717 51.5173 40.8894 50.4649C39.9956 49.3187 39.569 48.2911 39.6223 47.4115C39.6756 46.5318 40.2136 45.8388 41.249 45.3792C42.2374 44.9398 43.3749 45.0262 44.6291 45.6375C45.8833 46.2487 47.0787 47.2791 48.2152 48.7406L48.2879 48.8325L50.5977 47.8076L50.4782 47.655C48.8543 45.5906 47.1606 44.1153 45.4438 43.2725C43.6967 42.4167 41.9984 42.186 40.38 42.5886C40.3725 42.5914 40.3644 42.592 40.3566 42.5904C40.3488 42.5888 40.3416 42.585 40.3359 42.5794L37.6922 39.1914L35.7612 40.0517L38.3966 43.4324C38.3995 43.4364 38.4016 43.441 38.4028 43.4458C38.4039 43.4506 38.4041 43.4557 38.4032 43.4606C38.4023 43.4655 38.4005 43.4701 38.3978 43.4743C38.3951 43.4785 38.3915 43.482 38.3874 43.4848C37.1709 44.3121 36.5658 45.4426 36.5888 46.8397C36.6081 48.2736 37.283 49.8546 38.5961 51.5385C39.8835 53.193 41.3832 54.3879 43.0503 55.0855C44.7174 55.7832 46.7569 56.0709 49.1017 55.933C50.8267 55.8705 52.2428 56.046 53.3094 56.4523C54.3902 56.8687 55.3341 57.5771 56.0358 58.4983C56.9176 59.6289 57.2937 60.6823 57.1549 61.6235C57.016 62.5647 56.3622 63.3092 55.2239 63.8129C54.6569 64.0661 54.0436 64.1989 53.4227 64.203C52.8018 64.2071 52.1868 64.0824 51.6166 63.8368C50.4212 63.3552 49.2525 62.4131 48.1573 61.0371L48.0847 60.9452L45.762 61.9765L45.8833 62.1281C47.4226 64.0583 49.1017 65.4196 50.8745 66.1862C52.6473 66.9528 54.388 67.0805 56.0854 66.5943H56.0974V66.4436L56.1268 66.6081L58.4348 69.5687L60.3658 68.7102L58.0946 65.7873ZM56.0992 66.2928C56.0681 66.2936 56.0372 66.2982 56.0073 66.3066C54.3779 66.7736 52.697 66.6394 50.9986 65.9114C49.3187 65.1843 47.7205 63.9012 46.2456 62.0932L47.9992 61.3147C49.1026 62.6833 50.2869 63.6254 51.5053 64.1144C52.1133 64.376 52.7689 64.5086 53.4308 64.5041C54.0927 64.4995 54.7464 64.3577 55.3507 64.0878C56.5866 63.5363 57.2946 62.7265 57.4546 61.6676C57.6063 60.6372 57.21 59.5076 56.2767 58.3118C55.5418 57.3459 54.5526 56.6035 53.4197 56.1674C52.3163 55.7473 50.8589 55.5662 49.0897 55.6287C46.7909 55.7657 44.7965 55.4881 43.1698 54.8015C41.5432 54.1149 40.0922 52.9632 38.8361 51.3473C37.5644 49.7158 36.9106 48.1964 36.8932 46.8287C36.8711 45.5419 37.432 44.4959 38.5777 43.7146C38.6481 43.6595 38.6938 43.5787 38.7048 43.49C38.7159 43.4013 38.6913 43.3119 38.6366 43.2412L36.2376 40.1639L37.6049 39.5554L40.1078 42.7633C40.1506 42.8137 40.2069 42.8508 40.2702 42.8702C40.3334 42.8896 40.4009 42.8904 40.4646 42.8726C42.0066 42.4893 43.6388 42.7127 45.3169 43.5363C46.9509 44.3387 48.5683 45.7331 50.1269 47.6835L48.3854 48.4565C47.2369 47.007 46.0185 45.9656 44.7624 45.3608C43.4255 44.7082 42.2025 44.62 41.1285 45.0979C39.9809 45.6072 39.374 46.3783 39.3235 47.3885C39.2655 48.3416 39.7133 49.4373 40.654 50.6441C41.5138 51.7471 42.5179 52.5045 43.6397 52.8979C44.7312 53.2803 46.173 53.4384 47.9293 53.3658C49.3718 53.2795 50.8194 53.3865 52.2336 53.6838C53.3699 53.9474 54.4499 54.4122 55.4225 55.0561C56.4489 55.7672 57.3566 56.6357 58.1121 57.6297C59.4141 59.2999 60.0532 60.8404 60.0118 62.2081C59.9713 63.5409 59.2835 64.6338 57.9686 65.4573C57.9491 65.4696 57.9307 65.4834 57.9135 65.4987C57.8438 65.5544 57.7987 65.6351 57.7881 65.7237C57.7774 65.8122 57.802 65.9014 57.8564 65.972L59.8987 68.5907L58.5305 69.1983L56.3668 66.4224C56.3351 66.382 56.2947 66.3492 56.2485 66.3265C56.2023 66.3039 56.1516 66.2921 56.1001 66.2919L56.0992 66.2928ZM58.0946 65.7873C58.0826 65.7717 58.0854 65.7478 58.1277 65.7147C59.5346 64.8332 60.2702 63.6567 60.3134 62.2219C60.3566 60.7871 59.6964 59.1758 58.3511 57.4505C57.5762 56.4318 56.6452 55.5418 55.5926 54.8134C54.5884 54.1484 53.4732 53.6684 52.2998 53.3961C50.859 53.0936 49.3842 52.9845 47.9146 53.0716C46.2015 53.1415 44.7955 52.9907 43.7399 52.6203C42.6843 52.2499 41.717 51.5173 40.8894 50.4649C39.9956 49.3187 39.569 48.2911 39.6223 47.4115C39.6756 46.5318 40.2136 45.8388 41.249 45.3792C42.2374 44.9398 43.3749 45.0262 44.6291 45.6375C45.8833 46.2487 47.0787 47.2791 48.2152 48.7406L48.2879 48.8325L50.5977 47.8076L50.4782 47.655C48.8543 45.5906 47.1606 44.1153 45.4438 43.2725C43.6967 42.4167 41.9984 42.186 40.38 42.5886C40.3725 42.5914 40.3644 42.592 40.3566 42.5904C40.3488 42.5888 40.3416 42.585 40.3359 42.5794L37.6922 39.1914L35.7612 40.0517L38.3966 43.4324C38.3995 43.4364 38.4016 43.441 38.4028 43.4458C38.4039 43.4506 38.4041 43.4557 38.4032 43.4606C38.4023 43.4655 38.4005 43.4701 38.3978 43.4743C38.3951 43.4785 38.3915 43.482 38.3874 43.4848C37.1709 44.3121 36.5658 45.4426 36.5888 46.8397C36.6081 48.2736 37.283 49.8546 38.5961 51.5385C39.8835 53.193 41.3832 54.3879 43.0503 55.0855C44.7174 55.7832 46.7569 56.0709 49.1017 55.933C50.8267 55.8705 52.2428 56.046 53.3094 56.4523C54.3902 56.8687 55.3341 57.5771 56.0358 58.4983C56.9176 59.6289 57.2937 60.6823 57.1549 61.6235C57.016 62.5647 56.3622 63.3092 55.2239 63.8129C54.6569 64.0661 54.0436 64.1989 53.4227 64.203C52.8018 64.2071 52.1868 64.0824 51.6166 63.8368C50.4212 63.3552 49.2525 62.4131 48.1573 61.0371L48.0847 60.9452L45.762 61.9765L45.8833 62.1281C47.4226 64.0583 49.1017 65.4196 50.8745 66.1862C52.6473 66.9528 54.388 67.0805 56.0854 66.5943H56.0974V66.4436L56.1268 66.6081L58.4348 69.5687L60.3658 68.7102L58.0946 65.7873ZM56.0992 66.2928C56.0681 66.2936 56.0372 66.2982 56.0073 66.3066C54.3779 66.7736 52.697 66.6394 50.9986 65.9114C49.3187 65.1843 47.7205 63.9012 46.2456 62.0932L47.9992 61.3147C49.1026 62.6833 50.2869 63.6254 51.5053 64.1144C52.1133 64.376 52.7689 64.5086 53.4308 64.5041C54.0927 64.4995 54.7464 64.3577 55.3507 64.0878C56.5866 63.5363 57.2946 62.7265 57.4546 61.6676C57.6063 60.6372 57.21 59.5076 56.2767 58.3118C55.5418 57.3459 54.5526 56.6035 53.4197 56.1674C52.3163 55.7473 50.8589 55.5662 49.0897 55.6287C46.7909 55.7657 44.7965 55.4881 43.1698 54.8015C41.5432 54.1149 40.0922 52.9632 38.8361 51.3473C37.5644 49.7158 36.9106 48.1964 36.8932 46.8287C36.8711 45.5419 37.432 44.4959 38.5777 43.7146C38.6481 43.6595 38.6938 43.5787 38.7048 43.49C38.7159 43.4013 38.6913 43.3119 38.6366 43.2412L36.2376 40.1639L37.6049 39.5554L40.1078 42.7633C40.1506 42.8137 40.2069 42.8508 40.2702 42.8702C40.3334 42.8896 40.4009 42.8904 40.4646 42.8726C42.0066 42.4893 43.6388 42.7127 45.3169 43.5363C46.9509 44.3387 48.5683 45.7331 50.1269 47.6835L48.3854 48.4565C47.2369 47.007 46.0185 45.9656 44.7624 45.3608C43.4255 44.7082 42.2025 44.62 41.1285 45.0979C39.9809 45.6072 39.374 46.3783 39.3235 47.3885C39.2655 48.3416 39.7133 49.4373 40.654 50.6441C41.5138 51.7471 42.5179 52.5045 43.6397 52.8979C44.7312 53.2803 46.173 53.4384 47.9293 53.3658C49.3718 53.2795 50.8194 53.3865 52.2336 53.6838C53.3699 53.9474 54.4499 54.4122 55.4225 55.0561C56.4489 55.7672 57.3566 56.6357 58.1121 57.6297C59.4141 59.2999 60.0532 60.8404 60.0118 62.2081C59.9713 63.5409 59.2835 64.6338 57.9686 65.4573C57.9491 65.4696 57.9307 65.4834 57.9135 65.4987C57.8438 65.5544 57.7987 65.6351 57.7881 65.7237C57.7774 65.8122 57.802 65.9014 57.8564 65.972L59.8987 68.5907L58.5305 69.1983L56.3668 66.4224C56.3351 66.382 56.2947 66.3492 56.2485 66.3265C56.2023 66.3039 56.1516 66.2921 56.1001 66.2919L56.0992 66.2928ZM60.6969 68.5172L58.6123 65.8434C59.9447 64.9132 60.6426 63.699 60.6876 62.2301C60.7336 60.7016 60.044 59.0131 58.6463 57.217C57.8452 56.1669 56.8832 55.2499 55.7958 54.5C54.7543 53.81 53.5977 53.3119 52.3807 53.0293C50.9064 52.7172 49.3968 52.6044 47.8925 52.6939C46.2282 52.7628 44.8691 52.6185 43.8585 52.2637C42.848 51.9089 41.9607 51.2306 41.1818 50.2324C40.3451 49.1597 39.9451 48.2166 39.9929 47.4289C40.0297 46.6816 40.4894 46.1219 41.397 45.7184C42.2807 45.3268 43.3124 45.4114 44.4627 45.972C45.6581 46.5465 46.8194 47.5558 47.9256 48.9749L48.0102 49.0825C48.0563 49.1425 48.1213 49.1852 48.1948 49.2037C48.2682 49.2223 48.3457 49.2155 48.4148 49.1845L50.7945 48.1284C50.8191 48.1166 50.8425 48.1025 50.8644 48.0861C50.9348 48.0308 50.9806 47.9499 50.9916 47.8611C51.0026 47.7722 50.978 47.6826 50.9232 47.6118L50.8386 47.5034C49.1605 45.3507 47.4015 43.8129 45.6102 42.9333C43.8567 42.073 42.1372 41.8175 40.4977 42.175L37.9718 38.935C37.9255 38.8754 37.8606 38.8331 37.7874 38.8148C37.7142 38.7965 37.637 38.8032 37.5681 38.8339L35.5635 39.7236C35.5389 39.7354 35.5155 39.7495 35.4937 39.7659C35.4586 39.7932 35.4293 39.8271 35.4073 39.8658C35.3854 39.9044 35.3713 39.947 35.3658 39.9911C35.3604 40.0351 35.3637 40.0798 35.3755 40.1225C35.3873 40.1652 35.4075 40.2052 35.4348 40.2402L37.8853 43.3819C36.7525 44.2642 36.1897 45.4261 36.2136 46.8397C36.2339 48.3573 36.9364 50.0136 38.3 51.7637C39.6278 53.4678 41.1772 54.6995 42.9041 55.4256C44.631 56.1517 46.7192 56.4431 49.1182 56.3016C50.7927 56.2427 52.1526 56.41 53.1752 56.7979C54.1927 57.1908 55.0807 57.8592 55.7397 58.7281C56.5553 59.7741 56.9066 60.731 56.7834 61.5711C56.6583 62.3984 56.0983 63.0188 55.073 63.4738C54.5517 63.7058 53.9878 63.8272 53.4171 63.8304C52.8464 63.8336 52.2812 63.7184 51.7572 63.4921C50.5858 63.0225 49.4446 62.0812 48.3642 60.6952C48.3179 60.6357 48.2529 60.5934 48.1797 60.5753C48.1065 60.5571 48.0293 60.564 47.9605 60.595L45.5698 61.6566C45.5442 61.6676 45.5201 61.6818 45.4981 61.6989C45.463 61.7261 45.4336 61.76 45.4117 61.7986C45.3897 61.8372 45.3756 61.8797 45.3701 61.9238C45.3646 61.9678 45.3679 62.0126 45.3798 62.0554C45.3917 62.0981 45.4118 62.1382 45.4392 62.1731C47.0585 64.2495 48.8414 65.7174 50.7274 66.5346C52.4919 67.2938 54.2547 67.4537 55.9687 67.019L58.1571 69.8261C58.1885 69.8667 58.2288 69.8996 58.2748 69.9222C58.3209 69.9448 58.3715 69.9566 58.4229 69.9566C58.4694 69.9557 58.5153 69.9457 58.558 69.9272L60.5617 69.0374C60.5874 69.0262 60.6115 69.0117 60.6334 68.9942C60.6683 68.9671 60.6975 68.9333 60.7193 68.8948C60.7411 68.8563 60.755 68.8139 60.7603 68.77C60.7673 68.7257 60.7653 68.6805 60.7544 68.6371C60.7435 68.5936 60.7239 68.5529 60.6969 68.5172ZM58.398 69.6377L56.0882 66.6734L55.9962 66.6991C54.319 67.1504 52.594 67.0006 50.8552 66.2551C49.0162 65.4582 47.2691 64.0207 45.6856 61.9847C45.6804 61.9751 45.6791 61.9639 45.6818 61.9533C45.6845 61.9428 45.6911 61.9336 45.7004 61.9277L48.0911 60.8661C48.0986 60.8626 48.1071 60.8617 48.1152 60.8637C48.1232 60.8657 48.1303 60.8705 48.1352 60.8771C49.2488 62.3055 50.4341 63.278 51.6497 63.7661C52.2114 64.0082 52.8172 64.1314 53.4289 64.1277C54.0406 64.1241 54.6449 63.9938 55.2036 63.7449C56.3309 63.2449 56.9507 62.55 57.0886 61.6115C57.2266 60.6731 56.8532 59.6528 55.9852 58.5406C55.2917 57.6299 54.3586 56.9298 53.2901 56.5185C52.2345 56.1168 50.8313 55.944 49.1118 56.0028C46.7569 56.1444 44.7091 55.8558 43.0282 55.1499C41.3473 54.4439 39.8412 53.2435 38.5446 51.5798C37.2224 49.8831 36.5419 48.2874 36.5217 46.837C36.4987 45.4757 37.0624 44.3644 38.1943 43.5326L38.3184 43.4407L35.6794 40.0573C35.6742 40.0477 35.6728 40.0364 35.6755 40.0259C35.6783 40.0153 35.6849 40.0061 35.6941 40.0003L37.6977 39.1105C37.7053 39.1073 37.7137 39.1066 37.7217 39.1086C37.7296 39.1106 37.7367 39.1152 37.7419 39.1216L40.3855 42.5123L40.4775 42.4903C42.0765 42.1226 43.7602 42.3598 45.4833 43.2054C47.2304 44.0648 48.9564 45.5731 50.606 47.69L50.6906 47.7984C50.6939 47.8029 50.6961 47.8081 50.6972 47.8136C50.6983 47.819 50.6981 47.8247 50.6968 47.8301C50.6955 47.8355 50.693 47.8406 50.6896 47.8449C50.6861 47.8493 50.6818 47.8529 50.6768 47.8554L48.2971 48.9115C48.2896 48.9149 48.2811 48.9156 48.2731 48.9136C48.2651 48.9116 48.258 48.907 48.2529 48.9005L48.1684 48.792C47.0337 47.3361 45.8328 46.2974 44.5988 45.7037C43.3648 45.1099 42.2494 45.0152 41.2802 45.4454C40.2586 45.8994 39.7409 46.5438 39.6977 47.4151C39.6545 48.2865 40.0655 49.2865 40.9501 50.4189C41.7648 51.4631 42.711 52.18 43.7638 52.5495C44.8167 52.9191 46.2079 53.0661 47.9136 52.9963C49.3908 52.9097 50.8729 53.0201 52.3209 53.3244C53.5004 53.5988 54.6215 54.0816 55.6312 54.75C56.6903 55.4828 57.6272 56.3781 58.4072 57.4027C59.7654 59.1436 60.4302 60.7659 60.3861 62.2237C60.3438 63.6364 59.6504 64.7974 58.3116 65.6853L58.1764 65.7772L60.4596 68.7056L60.4458 68.7617L58.4403 69.6524C58.4355 69.6533 58.4305 69.6533 58.4256 69.6524V69.8031L58.398 69.6377ZM60.3695 68.7093L58.0909 65.7864C58.079 65.7707 58.0817 65.7468 58.124 65.7137C59.5309 64.8323 60.2665 63.6558 60.3097 62.2209C60.3529 60.7861 59.6927 59.1749 58.3475 57.4496C57.5726 56.4309 56.6416 55.5409 55.5889 54.8125C54.5847 54.1475 53.4695 53.6675 52.2961 53.3952C50.8553 53.0927 49.3806 52.9836 47.9109 53.0707C46.1978 53.1406 44.7919 52.9898 43.7363 52.6194C42.6806 52.249 41.7133 51.5164 40.8857 50.464C39.992 49.3178 39.5653 48.2902 39.6186 47.4105C39.672 46.5309 40.2099 45.8378 41.2453 45.3783C42.2338 44.9389 43.3712 45.0253 44.6254 45.6366C45.8797 46.2478 47.075 47.2782 48.2116 48.7396L48.2842 48.8316L50.594 47.8067L50.4745 47.6541C48.8506 45.5897 47.1569 44.1144 45.4401 43.2716C43.693 42.4158 41.9947 42.1851 40.3763 42.5877C40.3688 42.5905 40.3607 42.5911 40.3529 42.5895C40.3451 42.5879 40.3379 42.584 40.3322 42.5785L37.6886 39.1905L35.7576 40.0508L38.3929 43.4315C38.3959 43.4355 38.398 43.44 38.3991 43.4449C38.4002 43.4497 38.4004 43.4548 38.3995 43.4597C38.3987 43.4646 38.3968 43.4692 38.3941 43.4734C38.3914 43.4776 38.3879 43.4811 38.3837 43.4839C37.1672 44.3111 36.5621 45.4417 36.5851 46.8388C36.6044 48.2727 37.2794 49.8537 38.5924 51.5376C39.8798 53.192 41.3795 54.387 43.0466 55.0846C44.7137 55.7822 46.7532 56.0699 49.098 55.9321C50.823 55.8696 52.2391 56.0451 53.3057 56.4514C54.3866 56.8678 55.3304 57.5761 56.0321 58.4974C56.9139 59.628 57.29 60.6813 57.1512 61.6226C57.0123 62.5638 56.3585 63.3083 55.2202 63.812C54.6532 64.0652 54.0399 64.198 53.419 64.2021C52.7981 64.2062 52.1831 64.0815 51.6129 63.8359C50.4175 63.3543 49.2488 62.4121 48.1536 61.0362L48.081 60.9442L45.7583 61.9755L45.8797 62.1272C47.4189 64.0574 49.098 65.4187 50.8708 66.1853C52.6437 66.9519 54.3843 67.0796 56.0818 66.5934H56.0937V66.4427L56.1231 66.6072L58.4311 69.5678L60.3695 68.7093ZM56.0956 66.2919C56.0645 66.2927 56.0336 66.2973 56.0036 66.3057C54.3742 66.7726 52.6933 66.6384 50.995 65.9105C49.315 65.1834 47.7169 63.9003 46.242 62.0923L47.9955 61.3137C49.0989 62.6824 50.2833 63.6245 51.5016 64.1135C52.1096 64.375 52.7653 64.5077 53.4271 64.5031C54.089 64.4985 54.7428 64.3568 55.3471 64.0868C56.5829 63.5353 57.2909 62.7256 57.4509 61.6667C57.6027 60.6363 57.2063 59.5067 56.273 58.3109C55.5381 57.345 54.5489 56.6026 53.4161 56.1665C52.3126 55.7464 50.8552 55.5653 49.086 55.6278C46.7872 55.7648 44.7928 55.4872 43.1662 54.8006C41.5395 54.114 40.0885 52.9623 38.8324 51.3464C37.5607 49.7149 36.907 48.1955 36.8895 46.8278C36.8674 45.541 37.4283 44.495 38.5741 43.7137C38.6444 43.6586 38.6901 43.5778 38.7012 43.4891C38.7122 43.4004 38.6876 43.311 38.6329 43.2403L36.2339 40.163L37.6012 39.5545L40.1041 42.7623C40.1469 42.8128 40.2033 42.8499 40.2665 42.8693C40.3297 42.8887 40.3972 42.8895 40.4609 42.8717C42.003 42.4884 43.6351 42.7118 45.3132 43.5354C46.9472 44.3378 48.5647 45.7321 50.1233 47.6826L48.3817 48.4556C47.2332 47.0061 46.0148 45.9647 44.7588 45.3599C43.4218 44.7073 42.1988 44.6191 41.1248 45.097C39.9772 45.6062 39.3704 46.3774 39.3198 47.3876C39.2619 48.3407 39.7097 49.4364 40.6503 50.6432C41.5101 51.7462 42.5142 52.5036 43.636 52.897C44.7275 53.2794 46.1693 53.4375 47.9256 53.3649C49.3681 53.2786 50.8157 53.3856 52.2299 53.6829C53.3662 53.9465 54.4462 54.4113 55.4188 55.0552C56.4452 55.7662 57.3529 56.6348 58.1084 57.6288C59.4104 59.2989 60.0495 60.8395 60.0081 62.2072C59.9677 63.5399 59.2799 64.6328 57.9649 65.4564C57.9455 65.4687 57.927 65.4825 57.9098 65.4978C57.8401 65.5534 57.795 65.6342 57.7844 65.7228C57.7737 65.8113 57.7983 65.9005 57.8528 65.9711L59.895 68.5898L58.5268 69.1974L56.3631 66.4215C56.3315 66.381 56.291 66.3482 56.2448 66.3256C56.1986 66.303 56.1479 66.2912 56.0965 66.291L56.0956 66.2919Z" fill="#3B27C1"/>
<path d="M57.8563 65.9722L59.8985 68.5909L58.5303 69.1985L56.3666 66.4226C56.3349 66.3821 56.2945 66.3494 56.2483 66.3268C56.2021 66.3041 56.1514 66.2923 56.1 66.2921C56.0689 66.2929 56.038 66.2975 56.008 66.3059C54.3786 66.7728 52.6977 66.6386 50.9994 65.9107C49.3194 65.1836 47.7213 63.9005 46.2464 62.0925L47.9999 61.3139C49.1033 62.6826 50.2877 63.6247 51.506 64.1137C52.114 64.3752 52.7697 64.5079 53.4316 64.5033C54.0934 64.4987 54.7472 64.357 55.3515 64.087C56.5873 63.5355 57.2953 62.7258 57.4553 61.6669C57.6071 60.6365 57.2108 59.5069 56.2774 58.311C55.5425 57.3452 54.5533 56.6028 53.4205 56.1667C52.3171 55.7466 50.8596 55.5655 49.0905 55.628C46.7916 55.765 44.7972 55.4874 43.1706 54.8008C41.5439 54.1142 40.0929 52.9625 38.8369 51.3466C37.5652 49.7151 36.9114 48.1957 36.8939 46.828C36.8718 45.5412 37.4327 44.4952 38.5785 43.7139C38.6489 43.6588 38.6946 43.578 38.7056 43.4893C38.7166 43.4006 38.6921 43.3112 38.6373 43.2405L36.2383 40.1632L37.6056 39.5547L40.1086 42.7625C40.1513 42.813 40.2077 42.8501 40.2709 42.8695C40.3342 42.8889 40.4016 42.8897 40.4653 42.8719C42.0074 42.4886 43.6395 42.712 45.3176 43.5355C46.9516 44.338 48.5691 45.7324 50.1277 47.6828L48.3861 48.4558C47.2376 47.0063 46.0193 45.9649 44.7632 45.3601C43.4262 44.7075 42.2032 44.6193 41.1292 45.0972C39.9817 45.6064 39.3748 46.3776 39.3242 47.3878C39.2663 48.3409 39.7141 49.4366 40.6548 50.6434C41.5145 51.7464 42.5186 52.5038 43.6404 52.8972C44.7319 53.2796 46.1737 53.4377 47.93 53.3651C49.3725 53.2788 50.8201 53.3858 52.2343 53.6831C53.3706 53.9467 54.4506 54.4115 55.4232 55.0554C56.4496 55.7664 57.3573 56.635 58.1128 57.629C59.4148 59.2991 60.0539 60.8397 60.0125 62.2074C59.9721 63.5401 59.2843 64.633 57.9694 65.4566C57.9499 65.4689 57.9314 65.4827 57.9142 65.498C57.8441 65.5535 57.7987 65.6345 57.7879 65.7232C57.777 65.812 57.8016 65.9014 57.8563 65.9722Z" fill="#3B27C1"/>
</g>
<defs>
<clipPath id="clip0_6208_38104">
<rect width="37" height="39" fill="white" transform="translate(45 21)"/>
</clipPath>
<clipPath id="clip1_6208_38104">
<rect width="56" height="55" fill="white" transform="translate(17 30)"/>
</clipPath>
</defs>
</svg>
