<svg width="24" height="24" viewBox="0 0 24 24" fill="none" xmlns="http://www.w3.org/2000/svg">
<path d="M4.21915 3.1001H15.6592C16.3392 3.1001 17.1892 3.5701 17.5492 4.1501L21.7292 10.8301C22.1292 11.4801 22.0892 12.5001 21.6292 13.1101L16.4492 20.0101C16.0792 20.5001 15.2792 20.9001 14.6692 20.9001H4.21915C2.46915 20.9001 1.4092 18.9801 2.3292 17.4901L5.09916 13.0601C5.46916 12.4701 5.46916 11.5101 5.09916 10.9201L2.3292 6.4901C1.4092 5.0201 2.47915 3.1001 4.21915 3.1001Z" stroke="#03116A" stroke-width="1.5" stroke-miterlimit="10" stroke-linecap="round" stroke-linejoin="round"/>
<path d="M14.37 15C14.19 15.3 13.93 15.55 13.6 15.73C13.27 15.91 12.89 16.02 12.47 16.05V17.07H11.71V16.04C11.01 15.96 10.46 15.71 10.06 15.29C9.66 14.87 9.44 14.35 9.42 13.71H10.28C10.31 14.19 10.5 14.57 10.85 14.85C11.19 15.13 11.63 15.27 12.17 15.27C12.65 15.27 13.03 15.17 13.33 14.96C13.63 14.75 13.78 14.46 13.78 14.08C13.78 13.81 13.69 13.59 13.53 13.43C13.37 13.27 13.16 13.16 12.9 13.08C12.64 13 12.3 12.93 11.86 12.85C11.16 12.73 10.6 12.54 10.19 12.26C9.77 11.99 9.57 11.55 9.57 10.93C9.57 10.37 9.76 9.91 10.16 9.55C10.55 9.19 11.07 8.99 11.71 8.94V7.92H12.47V8.97C13.07 9.06 13.55 9.29 13.93 9.67C14.3 10.05 14.5 10.51 14.54 11.07H13.68C13.62 10.67 13.44 10.34 13.13 10.09C12.81 9.85 12.42 9.72 11.96 9.72C11.49 9.72 11.12 9.83 10.85 10.03C10.57 10.23 10.44 10.52 10.44 10.88C10.44 11.15 10.52 11.36 10.68 11.51C10.84 11.66 11.04 11.77 11.3 11.85C11.55 11.93 11.9 12 12.34 12.07C13.04 12.19 13.6 12.39 14.02 12.67C14.44 12.95 14.65 13.39 14.65 14C14.65 14.37 14.55 14.7 14.37 15Z" fill="#03116A"/>
</svg>
