<svg width="24" height="25" viewBox="0 0 24 25" fill="none" xmlns="http://www.w3.org/2000/svg">
<path d="M6 8.5H10" stroke="#03116A" stroke-width="1.5" stroke-linecap="round" stroke-linejoin="round"/>
<path d="M20.833 9.5H18.231C16.446 9.5 15 10.843 15 12.5C15 14.157 16.447 15.5 18.23 15.5H20.833C20.917 15.5 20.958 15.5 20.993 15.498C21.533 15.465 21.963 15.066 21.998 14.565C22 14.533 22 14.494 22 14.417V10.583C22 10.506 22 10.467 21.998 10.435C21.962 9.934 21.533 9.535 20.993 9.502C20.959 9.5 20.917 9.5 20.833 9.5Z" stroke="#03116A" stroke-width="1.5"/>
<path d="M20.965 9.5C20.887 7.628 20.637 6.48 19.828 5.672C18.657 4.5 16.771 4.5 13 4.5H10C6.229 4.5 4.343 4.5 3.172 5.672C2 6.843 2 8.729 2 12.5C2 16.271 2 18.157 3.172 19.328C4.343 20.5 6.229 20.5 10 20.5H13C16.771 20.5 18.657 20.5 19.828 19.328C20.637 18.52 20.888 17.372 20.965 15.5" stroke="#03116A" stroke-width="1.5"/>
<path d="M17.9912 12.5H18.0012" stroke="#03116A" stroke-width="2" stroke-linecap="round" stroke-linejoin="round"/>
</svg>
