<svg width="99" height="99" viewBox="0 0 99 99" fill="none" xmlns="http://www.w3.org/2000/svg">
<g clip-path="url(#clip0_6237_52323)">
<rect x="0.25" width="98.5" height="98.5" rx="8" fill="#EAFFC2"/>
<path d="M64.25 15C65.4167 14.5 67.95 12.7 68.75 9.5C69.55 6.3 68.4167 2.5 67.75 1" stroke="#FFC201" stroke-width="5"/>
<path d="M55.75 23.5L54.25 14.5" stroke="#FB8D00" stroke-width="5"/>
<path d="M7.75 19C9.08333 17.6667 11.25 14.3 9.25 11.5M-4.75 21.5C-4.58333 23.3333 -2.95 27.5 2.25 29.5C5.05 30.3 8.08333 28.8333 9.25 28M64.75 62.5C64.75 62.1 67.75 59 69.25 57.5M73.25 48.5L70.75 42" stroke="#F44133" stroke-width="5"/>
<path d="M10.25 36L16.75 40" stroke="#FFC201" stroke-width="5"/>
<path d="M82.25 84L90.25 85" stroke="#F490B3" stroke-width="5"/>
<path d="M39.2491 56.7271C23.9916 46.373 11.5783 52.3026 7.45099 60.3161L-13.7552 122.084L-4.25 130L47.3657 88.5173C54.5863 81.1611 55.1638 67.5272 39.2491 56.7271Z" fill="#3B27C1"/>
<path d="M37.5991 59.933C27.4031 51.1162 15.7269 56.3636 13.0288 60.6935C9.28639 67.6572 15.8648 76.9007 21.899 81.3289C29.0305 86.5624 42.7834 88.0288 46.1968 82.6118C51.3963 74.3606 44.2902 65.7191 37.5991 59.933Z" fill="#1F117A"/>
<path d="M28.6851 79.0533C29.7001 80.616 33.6502 82.9209 41.3305 79.6388C50.931 75.5362 52.8623 74.815 59.3291 78.6137C65.796 82.4124 72.255 81.6834 72.9043 74.0625C73.5537 66.4415 73.8184 59.8704 82.1526 57.9234C88.82 56.3658 91.8118 55.8269 92.4742 55.7521" stroke="#BAFF36" stroke-width="5"/>
<path d="M19.6149 70.0124C22.7964 68.4792 28.4045 63.1835 25.3853 54.2659C21.6113 43.1188 20.5537 38.2064 23.0861 33.8952C25.6186 29.584 32.7547 29.2817 35.1786 34.0399C37.1739 38.3433 37.2378 43.3678 29.4004 45.2587C21.563 47.1497 11.3861 37.2285 20.3619 23.1329C23.1828 19.5941 27.9002 18.5921 29.9062 18.5334" stroke="#00A3FF" stroke-width="5"/>
<path d="M33.038 73.0269C32.5146 68.3897 34.1171 58.5143 44.7144 56.1106C57.961 53.106 45.6924 46.9431 49.7636 38.4328C53.8348 29.9225 73.7479 50.3178 73.3318 33.2569C72.9989 19.6081 65.5538 16.3559 61.8729 16.4359" stroke="#FC6760" stroke-width="5"/>
</g>
<defs>
<clipPath id="clip0_6237_52323">
<rect x="0.25" width="98.5" height="98.5" rx="8" fill="white"/>
</clipPath>
</defs>
</svg>
