<svg width="33" height="33" viewBox="0 0 33 33" fill="none" xmlns="http://www.w3.org/2000/svg">
<rect x="0.449219" y="0.5" width="32" height="32" rx="16" fill="#BAFF36"/>
<path d="M23.1159 15.8872V16.5006C23.1151 17.9382 22.6495 19.337 21.7888 20.4884C20.928 21.6399 19.7181 22.4822 18.3395 22.8898C16.9608 23.2974 15.4874 23.2485 14.1389 22.7503C12.7903 22.2521 11.639 21.3313 10.8565 20.1253C10.0741 18.9193 9.70241 17.4926 9.797 16.0581C9.89159 14.6236 10.4474 13.2581 11.3814 12.1653C12.3155 11.0724 13.5777 10.3108 14.98 9.99399C16.3823 9.67717 17.8494 9.82212 19.1626 10.4072" stroke="#013D11" stroke-linecap="round" stroke-linejoin="round"/>
<path d="M23.1159 11.166L16.4492 17.8393L14.4492 15.8393" stroke="#013D11" stroke-linecap="round" stroke-linejoin="round"/>
</svg>
