<svg width="71" height="72" viewBox="0 0 71 72" fill="none" xmlns="http://www.w3.org/2000/svg">
<path d="M66.5 71.5781H4.5C2.29086 71.5781 0.5 69.7873 0.5 67.5781V30.9923C0.5 30.7271 0.605357 30.4728 0.792893 30.2852L13.2071 17.871C13.3946 17.6835 13.649 17.5781 13.9142 17.5781H57.0858C57.351 17.5781 57.6054 17.6835 57.7929 17.871L70.2071 30.2852C70.3946 30.4728 70.5 30.7271 70.5 30.9923V67.5781C70.5 69.7873 68.7091 71.5781 66.5 71.5781Z" fill="#3B27C1"/>
<path d="M70.0493 31.0781H0.926215C0.5756 31.0781 0.394643 30.6591 0.635032 30.4039L12.8896 17.3925C13.0786 17.1919 13.342 17.0781 13.6176 17.0781H56.8864C57.1555 17.0781 57.4132 17.1866 57.6013 17.3789L70.3352 30.3984C70.5829 30.6517 70.4035 31.0781 70.0493 31.0781Z" fill="#6252CD"/>
<path d="M20 24.0781H52" stroke="#EAFFC2" stroke-width="5" stroke-linecap="round"/>
<path d="M23.2397 2.79239C23.387 1.25325 24.6799 0.078125 26.2261 0.078125H45.4427C47.003 0.078125 48.3028 1.27411 48.4324 2.82899L50.2031 24.0781H21.2031L23.2397 2.79239Z" fill="#FC6760"/>
<path d="M55.6716 54.8769L57.0681 54.1206C57.1363 54.0833 57.1929 54.0299 57.2322 53.9657C57.2715 53.9016 57.2922 53.8289 57.2922 53.7549C57.2922 53.6809 57.2715 53.6083 57.2322 53.5441C57.1929 53.4799 57.1363 53.4266 57.0681 53.3893L57.0459 53.377L54.9922 54.487V54.5113C54.9922 54.5857 55.0132 54.6589 55.053 54.7233C55.0928 54.7877 55.1501 54.8412 55.219 54.8783C55.2879 54.9154 55.366 54.9348 55.4455 54.9345C55.5249 54.9343 55.6029 54.9144 55.6716 54.8769Z" fill="#E1DDFF"/>
<path d="M53.621 55.2547V53.7424C53.6207 53.6683 53.5997 53.5956 53.5601 53.5315C53.5205 53.4673 53.4636 53.4141 53.3951 53.377C53.3266 53.34 53.2489 53.3204 53.1699 53.3203C53.0908 53.3202 53.0131 53.3395 52.9445 53.3764L52.9219 53.3887V55.6088L52.9445 55.6207C53.0131 55.6576 53.0908 55.6769 53.1699 55.6768C53.2489 55.6767 53.3266 55.6571 53.3951 55.6201C53.4636 55.583 53.5205 55.5298 53.5601 55.4657C53.5997 55.4015 53.6207 55.3288 53.621 55.2547Z" fill="#E1DDFF"/>
<path d="M57.0705 55.6094L57.0483 55.6213C56.9801 55.6586 56.9235 55.712 56.8842 55.7761C56.8449 55.8403 56.8242 55.913 56.8242 55.987C56.8242 56.0609 56.8449 56.1336 56.8842 56.1978C56.9235 56.2619 56.9801 56.3153 57.0483 56.3526L58.4448 57.1086C58.5134 57.1456 58.5911 57.1651 58.6703 57.1651C58.7494 57.1651 58.8271 57.1456 58.8957 57.1086C58.9643 57.0717 59.0213 57.0184 59.061 56.9543C59.1008 56.8902 59.1219 56.8174 59.1222 56.7433V56.719L57.0705 55.6094Z" fill="#E1DDFF"/>
<path d="M52.9442 57.1089L51.5476 56.3529C51.479 56.3161 51.4013 56.2968 51.3223 56.2969C51.2433 56.297 51.1656 56.3165 51.0972 56.3535C51.0287 56.3905 50.9718 56.4437 50.9321 56.5078C50.8924 56.5718 50.8714 56.6445 50.8711 56.7186V56.7428L52.9228 57.8529L52.9454 57.841C53.0137 57.8036 53.0704 57.7501 53.1097 57.6858C53.149 57.6215 53.1697 57.5487 53.1695 57.4746C53.1694 57.4005 53.1485 57.3277 53.109 57.2635C53.0694 57.1994 53.0126 57.146 52.9442 57.1089Z" fill="#E1DDFF"/>
<path d="M56.3711 58.2073V59.7195C56.3713 59.7936 56.3923 59.8664 56.432 59.9305C56.4716 59.9946 56.5285 60.0479 56.597 60.0849C56.6655 60.122 56.7431 60.1415 56.8222 60.1416C56.9013 60.1418 56.979 60.1224 57.0476 60.0856L57.0698 60.0733V57.8531L57.0476 57.8412C56.979 57.8044 56.9013 57.785 56.8222 57.7852C56.7431 57.7853 56.6655 57.8048 56.597 57.8419C56.5285 57.8789 56.4716 57.9322 56.432 57.9963C56.3923 58.0604 56.3713 58.1332 56.3711 58.2073Z" fill="#E1DDFF"/>
<path d="M54.3198 58.5841L52.9233 59.34C52.8551 59.3773 52.7985 59.4307 52.7592 59.4948C52.7199 59.559 52.6992 59.6317 52.6992 59.7057C52.6992 59.7797 52.7199 59.8523 52.7592 59.9165C52.7985 59.9807 52.8551 60.034 52.9233 60.0713L52.9459 60.0836L54.9976 58.9736V58.9493C54.9973 58.8751 54.9762 58.8023 54.9365 58.7381C54.8967 58.674 54.8397 58.6207 54.771 58.5837C54.7024 58.5467 54.6246 58.5273 54.5454 58.5273C54.4662 58.5274 54.3884 58.547 54.3198 58.5841Z" fill="#E1DDFF"/>
<path d="M56.9744 57.3632L57.7811 58.6719C57.8209 58.7358 57.8778 58.7888 57.9463 58.8256C58.0148 58.8625 58.0923 58.8818 58.1713 58.8818C58.2502 58.8818 58.3278 58.8625 58.3963 58.8256C58.4647 58.7888 58.5217 58.7358 58.5615 58.6719L58.5742 58.6511C58.0481 57.7966 57.917 57.583 57.3896 56.7285H57.3638C57.2847 56.7289 57.2071 56.7487 57.1387 56.7859C57.0703 56.8232 57.0136 56.8766 56.9742 56.9409C56.9348 57.0051 56.914 57.078 56.9141 57.1521C56.9141 57.2262 56.9349 57.299 56.9744 57.3632Z" fill="#E1DDFF"/>
<path d="M56.5714 55.4406H58.1852C58.2643 55.4405 58.342 55.4208 58.4105 55.3836C58.479 55.3465 58.5359 55.2931 58.5754 55.2289C58.615 55.1646 58.6358 55.0918 58.6359 55.0177C58.636 54.9435 58.6153 54.8706 58.5758 54.8063L58.5631 54.7852H56.1939L56.1812 54.8063C56.1418 54.8706 56.121 54.9434 56.1211 55.0176C56.1212 55.0917 56.142 55.1645 56.1815 55.2287C56.221 55.2929 56.2778 55.3463 56.3462 55.3835C56.4146 55.4207 56.4923 55.4404 56.5714 55.4406Z" fill="#E1DDFF"/>
<path d="M56.1913 58.6741L56.1786 58.6533C56.1388 58.5894 56.0818 58.5364 56.0134 58.4996C55.9449 58.4627 55.8674 58.4434 55.7884 58.4434C55.7095 58.4434 55.6319 58.4627 55.5634 58.4996C55.495 58.5364 55.438 58.5894 55.3982 58.6533L54.5911 59.962C54.5518 60.0263 54.5311 60.0991 54.5313 60.1732C54.5314 60.2473 54.5523 60.3201 54.5918 60.3842C54.6313 60.4484 54.6882 60.5017 54.7566 60.5389C54.825 60.576 54.9026 60.5957 54.9817 60.5959H55.0076L56.1913 58.6741Z" fill="#E1DDFF"/>
<path d="M54.5909 54.8075L55.398 53.4988C55.4372 53.4345 55.4577 53.3617 55.4576 53.2877C55.4574 53.2136 55.4365 53.1409 55.397 53.0768C55.3574 53.0127 55.3007 52.9594 55.2323 52.9223C55.1639 52.8852 55.0864 52.8655 55.0074 52.8652H54.9815L53.7969 54.7897L53.81 54.8105C53.8501 54.8744 53.9073 54.9272 53.976 54.9638C54.0446 55.0005 54.1224 55.0196 54.2014 55.0193C54.2804 55.019 54.3579 54.9992 54.4263 54.9621C54.4946 54.9249 54.5514 54.8716 54.5909 54.8075Z" fill="#E1DDFF"/>
<path d="M53.4198 58.0195H51.8059C51.7268 58.0198 51.6492 58.0394 51.5808 58.0766C51.5124 58.1137 51.4556 58.167 51.416 58.2312C51.3765 58.2954 51.3556 58.3681 51.3555 58.4422C51.3553 58.5163 51.376 58.5892 51.4153 58.6535L51.428 58.6742H53.7972L53.8104 58.6535C53.8497 58.5892 53.8703 58.5163 53.8702 58.4422C53.8701 58.3681 53.8492 58.2954 53.8097 58.2312C53.7701 58.167 53.7133 58.1137 53.6449 58.0766C53.5765 58.0394 53.4988 58.0198 53.4198 58.0195Z" fill="#E1DDFF"/>
<path d="M53.0183 56.0967L52.2111 54.7881C52.1713 54.7242 52.1144 54.6712 52.0459 54.6343C51.9774 54.5975 51.8999 54.5781 51.8209 54.5781C51.742 54.5781 51.6644 54.5975 51.5959 54.6343C51.5275 54.6712 51.4705 54.7242 51.4307 54.7881L51.418 54.8092L52.6026 56.7338H52.6285C52.7079 56.7337 52.786 56.714 52.8548 56.6767C52.9235 56.6393 52.9806 56.5856 53.0201 56.521C53.0597 56.4564 53.0803 56.3831 53.08 56.3086C53.0797 56.2341 53.0584 56.1611 53.0183 56.0967Z" fill="#E1DDFF"/>
<path d="M30 12.5781L33.6808 15.8499C34.1206 16.2408 34.8012 16.1694 35.1502 15.6957L41.5 7.07812" stroke="#BAFF36" stroke-width="3" stroke-linecap="round"/>
</svg>
