<svg width="277" height="277" viewBox="0 0 277 277" fill="none" xmlns="http://www.w3.org/2000/svg">
<g filter="url(#filter0_d_7840_79446)">
<rect x="68" y="29" width="141" height="141" rx="11.4518" fill="#EBEAE2"/>
<rect x="68.5" y="29.5" width="140" height="140" rx="10.9518" stroke="url(#paint0_linear_7840_79446)" stroke-dasharray="17.62 17.62"/>
<g clip-path="url(#clip0_7840_79446)">
<path d="M169.771 77.8887H108.056C101.413 77.8887 96.0273 83.2743 96.0273 89.9177V120.252H182.323V90.4407C182.323 83.5084 176.703 77.8887 169.771 77.8887Z" fill="#EAFFC2"/>
<path d="M115.196 60.286C115.98 59.5014 117.044 59.0605 118.154 59.0605H175.52V161.569H101.254V75.9607C101.254 74.851 101.695 73.7868 102.479 73.0022L115.196 60.286Z" fill="#FC6760"/>
<path d="M114.871 92.0098H144.682" stroke="#E5413A" stroke-width="3.13802" stroke-linecap="round"/>
<path d="M133.176 97.7637H162.987" stroke="#E5413A" stroke-width="3.13802" stroke-linecap="round"/>
<path d="M128.469 104.037H149.389" stroke="#E5413A" stroke-width="3.13802" stroke-linecap="round"/>
<path d="M154.098 104.037H175.018" stroke="#E5413A" stroke-width="3.13802" stroke-linecap="round"/>
<path d="M150.434 92.0098H162.986" stroke="#BAFF36" stroke-width="3.13802" stroke-linecap="round"/>
<path d="M127.422 97.7637H114.87" stroke="#E5413A" stroke-width="3.13802" stroke-linecap="round"/>
<path d="M124.285 104.037H111.733" stroke="#E5413A" stroke-width="3.13802" stroke-linecap="round"/>
<path d="M96.0273 88.3496V152.156L227.301 175.168L96.0273 88.3496Z" fill="#3B27C1"/>
<path d="M182.324 88.3496V152.156L50.0044 173.599L182.324 88.3496Z" fill="#6252CD"/>
<path d="M142.129 71.406L144.891 69.9102C145.026 69.8364 145.138 69.7308 145.215 69.6039C145.293 69.4771 145.334 69.3333 145.334 69.187C145.334 69.0407 145.293 68.8969 145.215 68.77C145.138 68.6432 145.026 68.5376 144.891 68.4638L144.847 68.4395L140.785 70.6349V70.6828C140.785 70.8301 140.827 70.9747 140.905 71.1022C140.984 71.2296 141.097 71.3354 141.234 71.4087C141.37 71.4821 141.524 71.5204 141.682 71.52C141.839 71.5195 141.993 71.4802 142.129 71.406Z" fill="#CF3B34"/>
<path d="M138.074 72.1539V69.1629C138.074 69.0164 138.032 68.8725 137.954 68.7457C137.875 68.6189 137.763 68.5136 137.627 68.4403C137.492 68.3671 137.338 68.3284 137.182 68.3281C137.025 68.3279 136.872 68.3661 136.736 68.439L136.691 68.4634V72.8542L136.736 72.8778C136.872 72.9507 137.025 72.9889 137.182 72.9887C137.338 72.9884 137.492 72.9497 137.627 72.8765C137.763 72.8032 137.875 72.6979 137.954 72.5711C138.032 72.4443 138.074 72.3004 138.074 72.1539Z" fill="#CF3B34"/>
<path d="M144.893 72.8535L144.849 72.8771C144.715 72.9509 144.603 73.0565 144.525 73.1833C144.447 73.3102 144.406 73.454 144.406 73.6003C144.406 73.7466 144.447 73.8904 144.525 74.0172C144.603 74.1441 144.715 74.2497 144.849 74.3235L147.611 75.8186C147.747 75.8917 147.901 75.9303 148.057 75.9303C148.214 75.9303 148.368 75.8918 148.503 75.8187C148.639 75.7455 148.752 75.6403 148.83 75.5135C148.909 75.3867 148.95 75.2428 148.951 75.0961V75.0482L144.893 72.8535Z" fill="#CF3B34"/>
<path d="M136.737 75.8188L133.975 74.3238C133.839 74.2509 133.685 74.2127 133.529 74.2129C133.373 74.2131 133.219 74.2517 133.084 74.3249C132.948 74.3981 132.836 74.5033 132.757 74.63C132.679 74.7567 132.637 74.9005 132.637 75.0469V75.0949L136.694 77.2903L136.739 77.2667C136.874 77.1929 136.986 77.0871 137.064 76.9599C137.142 76.8328 137.183 76.6887 137.182 76.5421C137.182 76.3956 137.141 76.2516 137.063 76.1247C136.984 75.9978 136.872 75.8923 136.737 75.8188Z" fill="#CF3B34"/>
<path d="M143.512 77.993V80.9839C143.512 81.1305 143.554 81.2743 143.632 81.4012C143.711 81.528 143.823 81.6333 143.958 81.7065C144.094 81.7798 144.247 81.8185 144.404 81.8187C144.56 81.819 144.714 81.7808 144.85 81.7079L144.894 81.6835V77.2927L144.85 77.2691C144.714 77.1962 144.56 77.158 144.404 77.1582C144.247 77.1584 144.094 77.1971 143.958 77.2704C143.823 77.3437 143.711 77.449 143.632 77.5758C143.554 77.7026 143.512 77.8465 143.512 77.993Z" fill="#CF3B34"/>
<path d="M139.459 78.7391L136.697 80.2342C136.562 80.308 136.45 80.4136 136.373 80.5404C136.295 80.6673 136.254 80.8111 136.254 80.9574C136.254 81.1037 136.295 81.2475 136.373 81.3743C136.45 81.5012 136.562 81.6068 136.697 81.6806L136.742 81.7049L140.799 79.5095V79.4616C140.799 79.3148 140.757 79.1708 140.679 79.0438C140.6 78.9169 140.487 78.8116 140.351 78.7384C140.216 78.6653 140.062 78.6268 139.905 78.627C139.749 78.6271 139.595 78.6658 139.459 78.7391Z" fill="#CF3B34"/>
<path d="M144.705 76.3236L146.301 78.9119C146.379 79.0382 146.492 79.1431 146.627 79.2159C146.763 79.2888 146.916 79.3271 147.072 79.3271C147.229 79.3271 147.382 79.2888 147.517 79.2159C147.653 79.1431 147.765 79.0382 147.844 78.9119L147.869 78.8708C146.829 77.1808 146.57 76.7583 145.526 75.0684H145.475C145.319 75.0691 145.165 75.1082 145.03 75.1819C144.895 75.2556 144.783 75.3613 144.705 75.4884C144.627 75.6154 144.586 75.7595 144.586 75.9061C144.586 76.0526 144.627 76.1966 144.705 76.3236Z" fill="#CF3B34"/>
<path d="M143.91 72.523H147.102C147.258 72.5226 147.412 72.4837 147.547 72.4102C147.683 72.3367 147.795 72.2311 147.874 72.1041C147.952 71.9771 147.993 71.833 147.993 71.6864C147.993 71.5397 147.952 71.3956 147.874 71.2684L147.849 71.2266H143.164L143.138 71.2684C143.06 71.3955 143.019 71.5396 143.02 71.6862C143.02 71.8328 143.061 71.9768 143.139 72.1038C143.217 72.2308 143.329 72.3364 143.465 72.4099C143.6 72.4835 143.754 72.5225 143.91 72.523Z" fill="#CF3B34"/>
<path d="M143.162 78.9173L143.137 78.8762C143.058 78.7498 142.946 78.645 142.81 78.5721C142.675 78.4993 142.521 78.4609 142.365 78.4609C142.209 78.4609 142.056 78.4993 141.92 78.5721C141.785 78.645 141.672 78.7498 141.594 78.8762L139.997 81.4644C139.919 81.5915 139.879 81.7356 139.879 81.8821C139.879 82.0287 139.92 82.1726 139.999 82.2995C140.077 82.4264 140.189 82.5319 140.325 82.6053C140.46 82.6788 140.613 82.7177 140.77 82.7182H140.821L143.162 78.9173Z" fill="#CF3B34"/>
<path d="M139.996 71.269L141.592 68.6807C141.67 68.5536 141.711 68.4096 141.71 68.2632C141.71 68.1168 141.669 67.973 141.59 67.8462C141.512 67.7194 141.4 67.614 141.265 67.5406C141.129 67.4672 140.976 67.4283 140.82 67.4277H140.769L138.426 71.2339L138.452 71.275C138.531 71.4013 138.644 71.5058 138.78 71.5783C138.916 71.6507 139.07 71.6885 139.226 71.6879C139.382 71.6873 139.535 71.6483 139.671 71.5748C139.806 71.5012 139.918 71.3958 139.996 71.269Z" fill="#CF3B34"/>
<path d="M137.676 77.6211H134.485C134.328 77.6215 134.175 77.6604 134.039 77.7339C133.904 77.8074 133.792 77.9128 133.713 78.0397C133.635 78.1667 133.594 78.3106 133.594 78.4571C133.594 78.6037 133.634 78.7477 133.712 78.8749L133.737 78.916H138.423L138.449 78.8749C138.527 78.7477 138.568 78.6037 138.567 78.4571C138.567 78.3106 138.526 78.1667 138.448 78.0397C138.369 77.9128 138.257 77.8074 138.122 77.7339C137.986 77.6604 137.833 77.6215 137.676 77.6211Z" fill="#CF3B34"/>
<path d="M136.88 73.8179L135.284 71.2297C135.205 71.1033 135.092 70.9985 134.957 70.9256C134.821 70.8528 134.668 70.8145 134.512 70.8145C134.356 70.8145 134.202 70.8528 134.067 70.9256C133.931 70.9985 133.819 71.1033 133.74 71.2297L133.715 71.2716L136.058 75.0778H136.109C136.266 75.0777 136.42 75.0387 136.556 74.9648C136.692 74.8909 136.805 74.7847 136.883 74.6569C136.962 74.5291 137.003 74.3843 137.002 74.237C137.001 74.0896 136.959 73.9451 136.88 73.8179Z" fill="#CF3B34"/>
<path d="M142.43 70.3611L145.192 68.8652C145.326 68.7915 145.438 68.6859 145.516 68.559C145.594 68.4321 145.635 68.2884 145.635 68.1421C145.635 67.9958 145.594 67.852 145.516 67.7251C145.438 67.5982 145.326 67.4926 145.192 67.4189L145.148 67.3945L141.086 69.5899V69.6379C141.086 69.7852 141.127 69.9298 141.206 70.0573C141.285 70.1847 141.398 70.2904 141.534 70.3638C141.671 70.4371 141.825 70.4755 141.982 70.475C142.14 70.4746 142.294 70.4353 142.43 70.3611Z" fill="white"/>
<path d="M138.375 71.1089V68.118C138.374 67.9715 138.333 67.8276 138.254 67.7008C138.176 67.574 138.064 67.4687 137.928 67.3954C137.793 67.3221 137.639 67.2834 137.483 67.2832C137.326 67.283 137.173 67.3212 137.037 67.3941L136.992 67.4184V71.8093L137.037 71.8329C137.173 71.9057 137.326 71.944 137.483 71.9437C137.639 71.9435 137.793 71.9048 137.928 71.8315C138.064 71.7583 138.176 71.653 138.254 71.5262C138.333 71.3993 138.374 71.2555 138.375 71.1089Z" fill="white"/>
<path d="M145.194 71.8086L145.15 71.8322C145.015 71.906 144.903 72.0115 144.826 72.1384C144.748 72.2653 144.707 72.4091 144.707 72.5554C144.707 72.7017 144.748 72.8454 144.826 72.9723C144.903 73.0992 145.015 73.2048 145.15 73.2785L147.912 74.7736C148.048 74.8468 148.202 74.8854 148.358 74.8854C148.515 74.8854 148.668 74.8469 148.804 74.7738C148.94 74.7006 149.052 74.5954 149.131 74.4686C149.21 74.3418 149.251 74.1979 149.252 74.0512V74.0033L145.194 71.8086Z" fill="white"/>
<path d="M137.038 74.7739L134.275 73.2788C134.14 73.206 133.986 73.1678 133.83 73.168C133.674 73.1682 133.52 73.2068 133.385 73.28C133.249 73.3532 133.137 73.4584 133.058 73.5851C132.98 73.7118 132.938 73.8555 132.938 74.002V74.05L136.995 76.2454L137.04 76.2218C137.175 76.1479 137.287 76.0421 137.365 75.915C137.443 75.7878 137.483 75.6438 137.483 75.4972C137.483 75.3506 137.442 75.2067 137.363 75.0798C137.285 74.9528 137.173 74.8474 137.038 74.7739Z" fill="white"/>
<path d="M143.812 76.9481V79.939C143.813 80.0856 143.854 80.2294 143.933 80.3562C144.011 80.483 144.124 80.5883 144.259 80.6616C144.395 80.7349 144.548 80.7736 144.705 80.7738C144.861 80.7741 145.015 80.7358 145.15 80.663L145.194 80.6386V76.2478L145.15 76.2242C145.015 76.1513 144.861 76.113 144.705 76.1133C144.548 76.1135 144.395 76.1522 144.259 76.2255C144.124 76.2988 144.011 76.4041 143.933 76.5309C143.854 76.6577 143.813 76.8015 143.812 76.9481Z" fill="white"/>
<path d="M139.756 77.6942L136.994 79.1893C136.859 79.2631 136.747 79.3686 136.669 79.4955C136.592 79.6224 136.551 79.7662 136.551 79.9125C136.551 80.0588 136.592 80.2025 136.669 80.3294C136.747 80.4563 136.859 80.5619 136.994 80.6357L137.039 80.66L141.096 78.4646V78.4166C141.096 78.2699 141.054 78.1258 140.976 77.9989C140.897 77.872 140.784 77.7667 140.648 77.6935C140.513 77.6204 140.359 77.5819 140.202 77.582C140.045 77.5822 139.892 77.6208 139.756 77.6942Z" fill="white"/>
<path d="M145.006 75.2787L146.601 77.8669C146.68 77.9933 146.793 78.0981 146.928 78.171C147.064 78.2438 147.217 78.2822 147.373 78.2822C147.529 78.2822 147.683 78.2438 147.818 78.171C147.954 78.0981 148.066 77.9933 148.145 77.8669L148.17 77.8258C147.129 76.1359 146.87 75.7134 145.827 74.0234H145.776C145.62 74.0241 145.466 74.0633 145.331 74.137C145.196 74.2107 145.084 74.3164 145.006 74.4434C144.928 74.5705 144.887 74.7146 144.887 74.8611C144.887 75.0077 144.928 75.1517 145.006 75.2787Z" fill="white"/>
<path d="M144.211 71.478H147.403C147.559 71.4777 147.713 71.4388 147.848 71.3653C147.984 71.2918 148.096 71.1862 148.174 71.0592C148.253 70.9322 148.294 70.7881 148.294 70.6415C148.294 70.4948 148.253 70.3507 148.175 70.2235L148.15 70.1816H143.464L143.439 70.2235C143.361 70.3506 143.32 70.4947 143.32 70.6413C143.32 70.7879 143.362 70.9319 143.44 71.0589C143.518 71.1859 143.63 71.2914 143.766 71.365C143.901 71.4385 144.054 71.4775 144.211 71.478Z" fill="white"/>
<path d="M143.463 77.8724L143.438 77.8313C143.359 77.7049 143.246 77.6001 143.111 77.5272C142.976 77.4544 142.822 77.416 142.666 77.416C142.51 77.416 142.356 77.4544 142.221 77.5272C142.086 77.6001 141.973 77.7049 141.894 77.8313L140.298 80.4195C140.22 80.5466 140.179 80.6907 140.18 80.8372C140.18 80.9838 140.221 81.1277 140.299 81.2546C140.378 81.3815 140.49 81.487 140.625 81.5604C140.761 81.6339 140.914 81.6728 141.071 81.6732H141.122L143.463 77.8724Z" fill="white"/>
<path d="M140.297 70.224L141.893 67.6358C141.971 67.5087 142.011 67.3647 142.011 67.2183C142.011 67.0719 141.969 66.9281 141.891 66.8013C141.813 66.6745 141.701 66.5691 141.565 66.4957C141.43 66.4222 141.277 66.3833 141.121 66.3828H141.069L138.727 70.189L138.753 70.2301C138.832 70.3564 138.945 70.4609 139.081 70.5333C139.217 70.6058 139.37 70.6436 139.527 70.643C139.683 70.6424 139.836 70.6033 139.971 70.5298C140.107 70.4563 140.219 70.3509 140.297 70.224Z" fill="white"/>
<path d="M137.977 76.5762H134.785C134.629 76.5766 134.475 76.6155 134.34 76.689C134.205 76.7624 134.092 76.8679 134.014 76.9948C133.936 77.1217 133.895 77.2656 133.895 77.4122C133.894 77.5587 133.935 77.7028 134.013 77.8299L134.038 77.871H138.724L138.75 77.8299C138.827 77.7028 138.868 77.5587 138.868 77.4122C138.868 77.2656 138.827 77.1217 138.748 76.9948C138.67 76.8679 138.558 76.7624 138.422 76.689C138.287 76.6155 138.134 76.5766 137.977 76.5762Z" fill="white"/>
<path d="M137.181 72.773L135.584 70.1848C135.506 70.0584 135.393 69.9536 135.258 69.8807C135.122 69.8079 134.969 69.7695 134.813 69.7695C134.656 69.7695 134.503 69.8079 134.368 69.8807C134.232 69.9536 134.12 70.0584 134.041 70.1848L134.016 70.2266L136.358 74.0328H136.41C136.567 74.0327 136.721 73.9938 136.857 73.9199C136.993 73.846 137.106 73.7398 137.184 73.612C137.262 73.4842 137.303 73.3393 137.303 73.192C137.302 73.0447 137.26 72.9002 137.181 72.773Z" fill="white"/>
</g>
</g>
<rect x="46" y="124" width="54" height="27" rx="13.5" fill="#D9D9D9"/>
<path d="M56 162V150H73L56 162Z" fill="#D9D9D9"/>
<path d="M59.952 132.186H61.17V136.456H66.238V132.186H67.456V142H66.238V137.576H61.17V142H59.952V132.186ZM69.5582 136.512C69.8382 135.966 70.2442 135.546 70.7623 135.238C71.2662 134.93 71.8542 134.776 72.5262 134.776C73.1702 134.776 73.7583 134.916 74.2623 135.182C74.7663 135.462 75.1583 135.854 75.4523 136.358C75.7322 136.876 75.8863 137.478 75.9143 138.164C75.9143 138.276 75.9003 138.43 75.8863 138.654H70.3422V138.752C70.3562 139.452 70.5662 140.012 70.9862 140.432C71.3923 140.852 71.9243 141.062 72.5963 141.062C73.1002 141.062 73.5343 140.936 73.8983 140.684C74.2623 140.432 74.5003 140.068 74.6262 139.606H75.7882C75.6483 140.334 75.2983 140.936 74.7383 141.398C74.1783 141.86 73.4922 142.084 72.6802 142.084C71.9662 142.084 71.3502 141.944 70.8182 141.636C70.2862 141.328 69.8662 140.908 69.5722 140.348C69.2782 139.788 69.1382 139.158 69.1382 138.43C69.1382 137.702 69.2782 137.072 69.5582 136.512ZM74.7242 137.702C74.6683 137.1 74.4302 136.624 74.0382 136.288C73.6463 135.952 73.1422 135.784 72.5403 135.784C71.9942 135.784 71.5182 135.966 71.1122 136.316C70.6922 136.68 70.4682 137.142 70.4122 137.702H74.7242ZM77.4242 132.2H78.5722V142H77.4242V132.2ZM80.3449 132.2H81.4929V142H80.3449V132.2ZM84.7076 141.622C84.1756 141.314 83.7556 140.894 83.4616 140.334C83.1536 139.788 83.0136 139.158 83.0136 138.43C83.0136 137.716 83.1536 137.086 83.4616 136.526C83.7556 135.98 84.1756 135.546 84.7076 135.238C85.2396 134.93 85.8556 134.776 86.5556 134.776C87.2416 134.776 87.8576 134.93 88.3896 135.238C88.9216 135.546 89.3416 135.98 89.6496 136.526C89.9436 137.086 90.0976 137.716 90.0976 138.43C90.0976 139.158 89.9436 139.788 89.6496 140.334C89.3416 140.894 88.9216 141.314 88.3896 141.622C87.8576 141.93 87.2416 142.084 86.5556 142.084C85.8556 142.084 85.2396 141.93 84.7076 141.622ZM87.7876 140.726C88.1516 140.502 88.4316 140.194 88.6276 139.788C88.8236 139.396 88.9216 138.934 88.9216 138.43C88.9216 137.926 88.8236 137.478 88.6276 137.072C88.4316 136.68 88.1516 136.358 87.7876 136.134C87.4236 135.91 87.0176 135.798 86.5556 135.798C86.0796 135.798 85.6736 135.91 85.3096 136.134C84.9456 136.358 84.6796 136.68 84.4836 137.072C84.2876 137.478 84.1896 137.926 84.1896 138.43C84.1896 138.934 84.2876 139.396 84.4836 139.788C84.6796 140.194 84.9456 140.502 85.3096 140.726C85.6736 140.95 86.0796 141.062 86.5556 141.062C87.0176 141.062 87.4236 140.95 87.7876 140.726Z" fill="#BCBCBC"/>
<rect width="94" height="25" rx="12.5" transform="matrix(-1 0 0 1 242 137)" fill="#949494"/>
<path d="M231.082 177.083V160H213.999L231.082 177.083Z" fill="#949494"/>
<path d="M163.952 144.186H165.17V148.456H170.238V144.186H171.456V154H170.238V149.576H165.17V154H163.952V144.186ZM174.496 144.312C174.636 144.452 174.706 144.634 174.706 144.844C174.706 145.068 174.636 145.236 174.496 145.376C174.356 145.516 174.174 145.586 173.964 145.586C173.74 145.586 173.572 145.516 173.432 145.376C173.292 145.236 173.222 145.068 173.222 144.844C173.222 144.634 173.292 144.452 173.432 144.312C173.572 144.172 173.74 144.102 173.964 144.102C174.174 144.102 174.356 144.172 174.496 144.312ZM173.39 146.86H174.538V154H173.39V146.86ZM177.627 152.95C177.823 153.23 177.935 153.566 177.935 153.958C177.935 154.56 177.753 155.022 177.403 155.358C177.053 155.694 176.577 155.876 175.961 155.89V155.232C176.367 155.232 176.661 155.106 176.857 154.882C177.039 154.658 177.137 154.406 177.137 154.112C177.137 154.028 177.123 153.972 177.123 153.93C177.011 154.042 176.843 154.098 176.647 154.098C176.423 154.098 176.255 154.042 176.115 153.902C175.975 153.776 175.905 153.594 175.905 153.342C175.905 153.118 175.975 152.922 176.143 152.768C176.311 152.614 176.535 152.53 176.829 152.53C177.165 152.53 177.431 152.67 177.627 152.95ZM183.428 144.186H184.646V148.456H189.714V144.186H190.932V154H189.714V149.576H184.646V154H183.428V144.186ZM194.308 153.622C193.776 153.314 193.356 152.894 193.062 152.334C192.754 151.788 192.614 151.158 192.614 150.43C192.614 149.716 192.754 149.086 193.062 148.526C193.356 147.98 193.776 147.546 194.308 147.238C194.84 146.93 195.456 146.776 196.156 146.776C196.842 146.776 197.458 146.93 197.99 147.238C198.522 147.546 198.942 147.98 199.25 148.526C199.544 149.086 199.698 149.716 199.698 150.43C199.698 151.158 199.544 151.788 199.25 152.334C198.942 152.894 198.522 153.314 197.99 153.622C197.458 153.93 196.842 154.084 196.156 154.084C195.456 154.084 194.84 153.93 194.308 153.622ZM197.388 152.726C197.752 152.502 198.032 152.194 198.228 151.788C198.424 151.396 198.522 150.934 198.522 150.43C198.522 149.926 198.424 149.478 198.228 149.072C198.032 148.68 197.752 148.358 197.388 148.134C197.024 147.91 196.618 147.798 196.156 147.798C195.68 147.798 195.274 147.91 194.91 148.134C194.546 148.358 194.28 148.68 194.084 149.072C193.888 149.478 193.79 149.926 193.79 150.43C193.79 150.934 193.888 151.396 194.084 151.788C194.28 152.194 194.546 152.502 194.91 152.726C195.274 152.95 195.68 153.062 196.156 153.062C196.618 153.062 197.024 152.95 197.388 152.726ZM200.337 146.86H201.541L203.319 152.67L205.195 146.86H206.259L208.037 152.67L209.899 146.86H211.061L208.681 154H207.421L205.699 148.694L203.907 154L202.647 154.014L200.337 146.86ZM218.731 144.2V154H217.737L217.583 152.852C216.981 153.678 216.169 154.084 215.133 154.084C214.461 154.084 213.873 153.944 213.355 153.65C212.837 153.37 212.431 152.95 212.137 152.39C211.843 151.844 211.703 151.186 211.703 150.43C211.703 149.716 211.843 149.086 212.137 148.526C212.431 147.98 212.837 147.546 213.369 147.238C213.887 146.93 214.475 146.776 215.133 146.776C215.707 146.776 216.197 146.888 216.617 147.098C217.023 147.308 217.345 147.588 217.583 147.952V144.2H218.731ZM216.463 152.74C216.827 152.516 217.107 152.208 217.303 151.816C217.499 151.424 217.597 150.962 217.597 150.458C217.597 149.954 217.499 149.492 217.303 149.086C217.107 148.68 216.827 148.358 216.463 148.134C216.099 147.91 215.693 147.798 215.245 147.798C214.531 147.798 213.957 148.05 213.523 148.54C213.089 149.03 212.879 149.66 212.879 150.43C212.879 151.214 213.089 151.844 213.523 152.334C213.957 152.824 214.531 153.062 215.245 153.062C215.693 153.062 216.099 152.964 216.463 152.74ZM220.999 146.86L223.197 152.684L225.325 146.86H226.543L223.253 155.204C223.085 155.638 222.931 155.96 222.805 156.17C222.665 156.394 222.511 156.548 222.315 156.646C222.119 156.758 221.853 156.8 221.531 156.8H220.159V155.75H221.181C221.405 155.75 221.573 155.736 221.685 155.68C221.797 155.638 221.881 155.568 221.951 155.456C222.021 155.344 222.105 155.162 222.217 154.91L222.581 154.056L219.781 146.86H220.999Z" fill="#BCBCBC"/>
<defs>
<filter id="filter0_d_7840_79446" x="0" y="0" width="277" height="277" filterUnits="userSpaceOnUse" color-interpolation-filters="sRGB">
<feFlood flood-opacity="0" result="BackgroundImageFix"/>
<feColorMatrix in="SourceAlpha" type="matrix" values="0 0 0 0 0 0 0 0 0 0 0 0 0 0 0 0 0 0 127 0" result="hardAlpha"/>
<feOffset dy="39"/>
<feGaussianBlur stdDeviation="34"/>
<feComposite in2="hardAlpha" operator="out"/>
<feColorMatrix type="matrix" values="0 0 0 0 0.914282 0 0 0 0 0.908356 0 0 0 0 0.860949 0 0 0 1 0"/>
<feBlend mode="normal" in2="BackgroundImageFix" result="effect1_dropShadow_7840_79446"/>
<feBlend mode="normal" in="SourceGraphic" in2="effect1_dropShadow_7840_79446" result="shape"/>
</filter>
<linearGradient id="paint0_linear_7840_79446" x1="138.5" y1="29" x2="138.5" y2="170" gradientUnits="userSpaceOnUse">
<stop stop-color="#EAEAEA"/>
<stop offset="1" stop-opacity="0"/>
</linearGradient>
<clipPath id="clip0_7840_79446">
<rect x="96.6289" y="45.5645" width="85.8883" height="95.7041" rx="9.81581" fill="white"/>
</clipPath>
</defs>
</svg>
