<svg width="686" height="783" viewBox="0 0 686 783" fill="none" xmlns="http://www.w3.org/2000/svg">
<path d="M38.3416 20.1811L83.2236 -4.27888C85.4148 -5.48498 87.2326 -7.21146 88.496 -9.28628C89.7594 -11.3611 90.4241 -13.7118 90.4241 -16.1043C90.4241 -18.4968 89.7594 -20.8476 88.496 -22.9224C87.2326 -24.9972 85.4148 -26.7237 83.2236 -27.9298L82.5108 -28.3281L16.5078 7.57146V8.35568C16.5085 10.7638 17.1827 13.1291 18.4624 15.2131C19.742 17.2971 21.5819 19.0259 23.7963 20.2253C26.0108 21.4247 28.5215 22.0522 31.0752 22.0444C33.6289 22.0366 36.1353 21.394 38.3416 20.1811Z" fill="#F9F8F1"/>
<path d="M83.561 43.3965L82.8476 43.7828C80.6544 44.9904 78.835 46.7189 77.5705 48.7963C76.306 50.8736 75.6406 53.2272 75.6406 55.6226C75.6406 58.018 76.306 60.3716 77.5705 62.4489C78.835 64.5262 80.6544 66.2548 82.8476 67.4623L127.77 91.9395C129.975 93.1377 132.476 93.7687 135.021 93.7691C137.566 93.7695 140.067 93.1394 142.273 91.9419C144.479 90.7443 146.313 89.0214 147.591 86.9454C148.869 84.8693 149.547 82.513 149.557 80.1122V79.3271L83.561 43.3965Z" fill="#F9F8F1"/>
<path d="M60.8594 127.115V175.956C60.8671 178.349 61.5415 180.699 62.8151 182.77C64.0888 184.84 65.917 186.56 68.1173 187.757C70.3175 188.953 72.8126 189.585 75.3532 189.589C77.8939 189.593 80.3911 188.968 82.5953 187.778L83.308 187.38V115.678L82.5953 115.293C80.3911 114.103 77.8939 113.479 75.3532 113.482C72.8126 113.486 70.3175 114.118 68.1173 115.315C65.917 116.511 64.0888 118.231 62.8151 120.302C61.5415 122.372 60.8671 124.722 60.8594 127.115Z" fill="#F9F8F1"/>
<path d="M-4.90429 139.388L-50.151 163.59C-52.36 164.784 -54.1927 166.493 -55.4663 168.547C-56.7399 170.601 -57.4102 172.928 -57.4102 175.296C-57.4102 177.665 -56.7399 179.992 -55.4663 182.046C-54.1927 184.1 -52.36 185.809 -50.151 187.003L-49.4191 187.397L17.0537 151.859V151.082C17.0452 148.707 16.3627 146.375 15.0744 144.321C13.7861 142.266 11.9374 140.562 9.71348 139.377C7.48955 138.193 4.96846 137.57 2.40293 137.572C-0.162609 137.574 -2.68248 138.201 -4.90429 139.388Z" fill="#F9F8F1"/>
<path d="M80.3239 100.031L106.397 142.291C107.684 144.355 109.525 146.066 111.738 147.256C113.951 148.445 116.458 149.071 119.009 149.071C121.561 149.071 124.068 148.445 126.281 147.256C128.494 146.066 130.335 144.355 131.621 142.291L132.033 141.62C115.027 114.027 110.792 107.128 93.7457 79.5352H92.9093C90.3531 79.5465 87.8447 80.1858 85.6351 81.3893C83.4256 82.5927 81.5921 84.3182 80.3181 86.393C79.044 88.4679 78.374 90.8196 78.375 93.2129C78.376 95.6062 79.0481 97.9574 80.3239 100.031Z" fill="#F9F8F1"/>
<path d="M67.5987 37.9233H119.25C121.783 37.9173 124.269 37.2933 126.461 36.1136C128.653 34.9339 130.472 33.24 131.738 31.2013C133.004 29.1626 133.672 26.8506 133.674 24.4969C133.677 22.1431 133.014 19.83 131.752 17.7891L131.344 17.1172H55.5174L55.1098 17.7891C53.8486 19.8291 53.1857 22.1411 53.1875 24.4938C53.1893 26.8466 53.8557 29.1577 55.12 31.196C56.3844 33.2343 58.2024 34.9285 60.3922 36.109C62.5821 37.2896 65.0671 37.9152 67.5987 37.9233Z" fill="#F9F8F1"/>
<path d="M55.3804 142.231L54.9689 141.565C53.6825 139.517 51.8411 137.818 49.6282 136.638C47.4154 135.457 44.9082 134.836 42.3565 134.836C39.8048 134.836 37.2975 135.457 35.0846 136.638C32.8717 137.818 31.0304 139.517 29.7441 141.565L3.65633 183.507C2.38536 185.568 1.7186 187.902 1.72267 190.277C1.72675 192.651 2.40156 194.984 3.67958 197.04C4.95761 199.097 6.79411 200.806 9.00562 201.996C11.2171 203.187 13.7262 203.817 16.282 203.824H17.1184L55.3804 142.231Z" fill="#F9F8F1"/>
<path d="M3.82958 17.9439L29.9081 -24.3019C31.1754 -26.3769 31.8392 -28.7267 31.8335 -31.1169C31.8278 -33.5072 31.1526 -35.8542 29.8754 -37.9238C28.5982 -39.9934 26.7636 -41.7133 24.5547 -42.9117C22.3459 -44.1102 19.8399 -44.7454 17.2869 -44.7539H16.4508L-21.8242 17.3724L-21.3996 18.0433C-20.1053 20.1037 -18.2564 21.8103 -16.0376 22.9927C-13.8188 24.1751 -11.3075 24.7921 -8.75447 24.7821C-6.2014 24.772 -3.69574 24.1353 -1.48762 22.9354C0.720501 21.7355 2.55384 20.0144 3.82958 17.9439Z" fill="#F9F8F1"/>
<path d="M38.3416 252.333L83.2236 227.873C85.4148 226.667 87.2326 224.941 88.496 222.866C89.7594 220.791 90.4241 218.441 90.4241 216.048C90.4241 213.656 89.7594 211.305 88.496 209.23C87.2326 207.155 85.4148 205.429 83.2236 204.223L82.5108 203.824L16.5078 239.724V240.508C16.5085 242.916 17.1827 245.281 18.4624 247.365C19.742 249.449 21.5819 251.178 23.7963 252.378C26.0108 253.577 28.5215 254.205 31.0752 254.197C33.6289 254.189 36.1353 253.546 38.3416 252.333Z" fill="#F9F8F1"/>
<path d="M83.561 275.549L82.8476 275.935C80.6544 277.143 78.835 278.871 77.5705 280.949C76.306 283.026 75.6406 285.38 75.6406 287.775C75.6406 290.17 76.306 292.524 77.5705 294.601C78.835 296.679 80.6544 298.407 82.8476 299.615L127.77 324.092C129.975 325.29 132.476 325.921 135.021 325.921C137.566 325.922 140.067 325.292 142.273 324.094C144.479 322.897 146.313 321.174 147.591 319.098C148.869 317.022 149.547 314.665 149.557 312.265V311.479L83.561 275.549Z" fill="#F9F8F1"/>
<path d="M60.8594 359.265V408.107C60.8671 410.5 61.5415 412.849 62.8151 414.92C64.0888 416.991 65.917 418.71 68.1173 419.907C70.3175 421.104 72.8126 421.735 75.3532 421.739C77.8939 421.743 80.3911 421.119 82.5953 419.929L83.308 419.531V347.829L82.5953 347.443C80.3911 346.253 77.8939 345.629 75.3532 345.633C72.8126 345.637 70.3175 346.268 68.1173 347.465C65.917 348.662 64.0888 350.381 62.8151 352.452C61.5415 354.523 60.8671 356.872 60.8594 359.265Z" fill="#F9F8F1"/>
<path d="M-4.90429 371.541L-50.151 395.742C-52.36 396.936 -54.1927 398.645 -55.4663 400.699C-56.7399 402.753 -57.4102 405.08 -57.4102 407.449C-57.4102 409.817 -56.7399 412.144 -55.4663 414.198C-54.1927 416.252 -52.36 417.961 -50.151 419.155L-49.4191 419.55L17.0537 384.011V383.235C17.0452 380.859 16.3627 378.527 15.0744 376.473C13.7861 374.419 11.9374 372.714 9.71348 371.529C7.48955 370.345 4.96846 369.723 2.40293 369.725C-0.162609 369.727 -2.68248 370.353 -4.90429 371.541Z" fill="#F9F8F1"/>
<path d="M80.3239 332.184L106.397 374.444C107.684 376.507 109.525 378.219 111.738 379.408C113.951 380.598 116.458 381.224 119.009 381.224C121.561 381.224 124.068 380.598 126.281 379.408C128.494 378.219 130.335 376.507 131.621 374.444L132.033 373.773C115.027 346.179 110.792 339.281 93.7457 311.688H92.9093C90.3531 311.699 87.8447 312.338 85.6351 313.542C83.4256 314.745 81.5921 316.47 80.3181 318.545C79.044 320.62 78.374 322.972 78.375 325.365C78.376 327.759 79.0481 330.11 80.3239 332.184Z" fill="#F9F8F1"/>
<path d="M67.5987 270.076H119.25C121.783 270.07 124.269 269.446 126.461 268.266C128.653 267.086 130.472 265.392 131.738 263.354C133.004 261.315 133.672 259.003 133.674 256.649C133.677 254.295 133.014 251.982 131.752 249.941L131.344 249.27H55.5174L55.1098 249.941C53.8486 251.981 53.1857 254.293 53.1875 256.646C53.1893 258.999 53.8557 261.31 55.12 263.348C56.3844 265.387 58.2024 267.081 60.3922 268.261C62.5821 269.442 65.0671 270.068 67.5987 270.076Z" fill="#F9F8F1"/>
<path d="M55.3804 374.383L54.9689 373.717C53.6825 371.67 51.8411 369.971 49.6282 368.79C47.4154 367.61 44.9082 366.988 42.3565 366.988C39.8048 366.988 37.2975 367.61 35.0846 368.79C32.8717 369.971 31.0304 371.67 29.7441 373.717L3.65633 415.659C2.38536 417.72 1.7186 420.054 1.72267 422.429C1.72675 424.804 2.40156 427.136 3.67958 429.193C4.95761 431.249 6.79411 432.958 9.00562 434.149C11.2171 435.339 13.7262 435.97 16.282 435.977H17.1184L55.3804 374.383Z" fill="#F9F8F1"/>
<path d="M3.82958 250.096L29.9081 207.85C31.1754 205.775 31.8392 203.426 31.8335 201.035C31.8278 198.645 31.1526 196.298 29.8754 194.229C28.5982 192.159 26.7636 190.439 24.5547 189.241C22.3459 188.042 19.8399 187.407 17.2869 187.398H16.4508L-21.8242 249.525L-21.3996 250.196C-20.1053 252.256 -18.2564 253.963 -16.0376 255.145C-13.8188 256.327 -11.3075 256.944 -8.75447 256.934C-6.2014 256.924 -3.69574 256.288 -1.48762 255.088C0.720501 253.888 2.55384 252.167 3.82958 250.096Z" fill="#F9F8F1"/>
<path d="M545.908 20.1811L590.79 -4.27888C592.981 -5.48498 594.799 -7.21146 596.062 -9.28628C597.326 -11.3611 597.991 -13.7118 597.991 -16.1043C597.991 -18.4968 597.326 -20.8476 596.062 -22.9224C594.799 -24.9972 592.981 -26.7237 590.79 -27.9298L590.077 -28.3281L524.074 7.57146V8.35568C524.075 10.7638 524.749 13.1291 526.029 15.2131C527.308 17.2971 529.148 19.0259 531.363 20.2253C533.577 21.4247 536.088 22.0522 538.642 22.0444C541.195 22.0366 543.702 21.394 545.908 20.1811Z" fill="#F9F8F1"/>
<path d="M480.269 32.0538V-16.4363C480.261 -18.8122 479.587 -21.1446 478.314 -23.2004C477.041 -25.2563 475.214 -26.9635 473.015 -28.1516C470.816 -29.3396 468.323 -29.9669 465.784 -29.9707C463.244 -29.9745 460.749 -29.3546 458.546 -28.1732L457.82 -27.7782V43.4081L458.546 43.7907C460.749 44.9721 463.244 45.592 465.784 45.5882C468.323 45.5844 470.816 44.9571 473.015 43.7691C475.214 42.581 477.041 40.8738 478.314 38.8179C479.587 36.7621 480.261 34.4297 480.269 32.0538Z" fill="#F9F8F1"/>
<path d="M591.127 43.3965L590.414 43.7828C588.221 44.9904 586.401 46.7189 585.137 48.7963C583.872 50.8736 583.207 53.2272 583.207 55.6226C583.207 58.018 583.872 60.3716 585.137 62.4489C586.401 64.5262 588.221 66.2548 590.414 67.4623L635.336 91.9395C637.542 93.1377 640.042 93.7687 642.587 93.7691C645.132 93.7695 647.633 93.1394 649.839 91.9419C652.045 90.7443 653.879 89.0214 655.157 86.9454C656.436 84.8693 657.114 82.513 657.123 80.1122V79.3271L591.127 43.3965Z" fill="#F9F8F1"/>
<path d="M458.239 91.8469L413.326 67.6409C411.121 66.4615 408.623 65.8425 406.081 65.8457C403.539 65.849 401.042 66.4743 398.841 67.6593C396.639 68.8443 394.808 70.5475 393.533 72.5988C392.257 74.6501 391.58 76.9778 391.57 79.3495V80.126L457.552 115.671L458.278 115.289C460.475 114.093 462.297 112.38 463.562 110.321C464.827 108.263 465.491 105.93 465.487 103.557C465.483 101.184 464.811 98.8536 463.539 96.7986C462.267 94.7437 460.439 93.0362 458.239 91.8469Z" fill="#F9F8F1"/>
<path d="M568.426 127.115V175.956C568.434 178.349 569.108 180.699 570.382 182.77C571.655 184.84 573.483 186.56 575.684 187.757C577.884 188.953 580.379 189.585 582.92 189.589C585.46 189.593 587.957 188.968 590.162 187.778L590.874 187.38V115.678L590.162 115.293C587.957 114.103 585.46 113.479 582.92 113.482C580.379 113.486 577.884 114.118 575.684 115.315C573.483 116.511 571.655 118.231 570.382 120.302C569.108 122.372 568.434 124.722 568.426 127.115Z" fill="#F9F8F1"/>
<path d="M502.662 139.388L457.415 163.59C455.206 164.784 453.374 166.493 452.1 168.547C450.826 170.601 450.156 172.928 450.156 175.296C450.156 177.665 450.826 179.992 452.1 182.046C453.374 184.1 455.206 185.809 457.415 187.003L458.147 187.397L524.62 151.859V151.082C524.612 148.707 523.929 146.375 522.641 144.321C521.353 142.266 519.504 140.562 517.28 139.377C515.056 138.193 512.535 137.57 509.969 137.572C507.404 137.574 504.884 138.201 502.662 139.388Z" fill="#F9F8F1"/>
<path d="M587.89 100.031L613.964 142.291C615.25 144.355 617.091 146.066 619.304 147.256C621.517 148.445 624.024 149.071 626.576 149.071C629.127 149.071 631.634 148.445 633.847 147.256C636.06 146.066 637.901 144.355 639.188 142.291L639.599 141.62C622.593 114.027 618.358 107.128 601.312 79.5352H600.476C597.919 79.5465 595.411 80.1858 593.202 81.3893C590.992 82.5927 589.159 84.3182 587.884 86.393C586.61 88.4679 585.94 90.8196 585.941 93.2129C585.942 95.6062 586.614 97.9574 587.89 100.031Z" fill="#F9F8F1"/>
<path d="M575.165 37.9233H626.816C629.349 37.9173 631.836 37.2933 634.027 36.1136C636.219 34.9339 638.039 33.24 639.305 31.2013C640.571 29.1626 641.238 26.8506 641.241 24.4969C641.243 22.1431 640.58 19.83 639.318 17.7891L638.911 17.1172H563.084L562.676 17.7891C561.415 19.8291 560.752 22.1411 560.754 24.4938C560.756 26.8466 561.422 29.1577 562.686 31.196C563.951 33.2343 565.769 34.9285 567.959 36.109C570.148 37.2896 572.633 37.9152 575.165 37.9233Z" fill="#F9F8F1"/>
<path d="M562.947 142.231L562.535 141.565C561.249 139.517 559.408 137.818 557.195 136.638C554.982 135.457 552.475 134.836 549.923 134.836C547.371 134.836 544.864 135.457 542.651 136.638C540.438 137.818 538.597 139.517 537.31 141.565L511.223 183.507C509.952 185.568 509.285 187.902 509.289 190.277C509.293 192.651 509.968 194.984 511.246 197.04C512.524 199.097 514.361 200.806 516.572 201.996C518.784 203.187 521.293 203.817 523.848 203.824H524.685L562.947 142.231Z" fill="#F9F8F1"/>
<path d="M511.396 17.9439L537.475 -24.3019C538.742 -26.3769 539.406 -28.7267 539.4 -31.1169C539.394 -33.5072 538.719 -35.8542 537.442 -37.9238C536.165 -39.9934 534.33 -41.7133 532.121 -42.9117C529.912 -44.1102 527.406 -44.7454 524.853 -44.7539H524.017L485.742 17.3724L486.167 18.0433C487.461 20.1037 489.31 21.8103 491.529 22.9927C493.748 24.1751 496.259 24.7921 498.812 24.7821C501.365 24.772 503.871 24.1353 506.079 22.9354C508.287 21.7355 510.12 20.0144 511.396 17.9439Z" fill="#F9F8F1"/>
<path d="M473.519 121.146H421.866C419.335 121.154 416.851 121.779 414.661 122.959C412.471 124.14 410.653 125.834 409.387 127.873C408.121 129.913 407.453 132.225 407.449 134.58C407.445 136.935 408.105 139.249 409.364 141.292L409.772 141.953H485.6L486.021 141.292C487.28 139.249 487.94 136.935 487.936 134.58C487.932 132.225 487.264 129.913 485.998 127.873C484.733 125.834 482.914 124.14 480.724 122.959C478.534 121.779 476.05 121.154 473.519 121.146Z" fill="#F9F8F1"/>
<path d="M460.759 59.1486L434.701 17.2662C433.416 15.2214 431.577 13.5251 429.366 12.3462C427.156 11.1672 424.652 10.5469 422.103 10.5469C419.554 10.5469 417.05 11.1672 414.839 12.3462C412.629 13.5251 410.79 15.2214 409.505 17.2662L409.094 17.9437L447.339 79.5354H448.174C450.74 79.5339 453.261 78.9035 455.481 77.7078C457.701 76.5122 459.542 74.7936 460.819 72.7256C462.095 70.6576 462.762 68.3134 462.751 65.9296C462.741 63.5458 462.053 61.2067 460.759 59.1486Z" fill="#F9F8F1"/>
<path d="M545.908 252.333L590.79 227.873C592.981 226.667 594.799 224.941 596.062 222.866C597.326 220.791 597.991 218.441 597.991 216.048C597.991 213.656 597.326 211.305 596.062 209.23C594.799 207.155 592.981 205.429 590.79 204.223L590.077 203.824L524.074 239.724V240.508C524.075 242.916 524.749 245.281 526.029 247.365C527.308 249.449 529.148 251.178 531.363 252.378C533.577 253.577 536.088 254.205 538.642 254.197C541.195 254.189 543.702 253.546 545.908 252.333Z" fill="#F9F8F1"/>
<path d="M480.269 264.206V215.716C480.261 213.34 479.587 211.008 478.314 208.952C477.041 206.896 475.214 205.189 473.015 204.001C470.816 202.813 468.323 202.185 465.784 202.182C463.244 202.178 460.749 202.798 458.546 203.979L457.82 204.374V275.56L458.546 275.943C460.749 277.124 463.244 277.744 465.784 277.741C468.323 277.737 470.816 277.109 473.015 275.921C475.214 274.733 477.041 273.026 478.314 270.97C479.587 268.914 480.261 266.582 480.269 264.206Z" fill="#F9F8F1"/>
<path d="M591.127 275.549L590.414 275.935C588.221 277.143 586.401 278.871 585.137 280.949C583.872 283.026 583.207 285.38 583.207 287.775C583.207 290.17 583.872 292.524 585.137 294.601C586.401 296.679 588.221 298.407 590.414 299.615L635.336 324.092C637.542 325.29 640.042 325.921 642.587 325.921C645.132 325.922 647.633 325.292 649.839 324.094C652.045 322.897 653.879 321.174 655.157 319.098C656.436 317.022 657.114 314.665 657.123 312.265V311.479L591.127 275.549Z" fill="#F9F8F1"/>
<path d="M458.239 323.999L413.326 299.793C411.121 298.614 408.623 297.995 406.081 297.998C403.539 298.001 401.042 298.627 398.841 299.812C396.639 300.997 394.808 302.7 393.533 304.751C392.257 306.802 391.58 309.13 391.57 311.502V312.278L457.552 347.823L458.278 347.441C460.475 346.245 462.297 344.532 463.562 342.474C464.827 340.415 465.491 338.083 465.487 335.709C465.483 333.336 464.811 331.006 463.539 328.951C462.267 326.896 460.439 325.189 458.239 323.999Z" fill="#F9F8F1"/>
<path d="M568.426 359.267V408.109C568.434 410.502 569.108 412.851 570.382 414.922C571.655 416.993 573.483 418.712 575.684 419.909C577.884 421.106 580.379 421.737 582.92 421.741C585.46 421.745 587.957 421.121 590.162 419.931L590.874 419.533V347.831L590.162 347.445C587.957 346.255 585.46 345.631 582.92 345.635C580.379 345.639 577.884 346.27 575.684 347.467C573.483 348.664 571.655 350.383 570.382 352.454C569.108 354.525 568.434 356.874 568.426 359.267Z" fill="#F9F8F1"/>
<path d="M502.662 371.541L457.415 395.742C455.206 396.936 453.374 398.645 452.1 400.699C450.826 402.753 450.156 405.08 450.156 407.449C450.156 409.817 450.826 412.144 452.1 414.198C453.374 416.252 455.206 417.961 457.415 419.155L458.147 419.55L524.62 384.011V383.235C524.612 380.859 523.929 378.527 522.641 376.473C521.353 374.419 519.504 372.714 517.28 371.529C515.056 370.345 512.535 369.723 509.969 369.725C507.404 369.727 504.884 370.353 502.662 371.541Z" fill="#F9F8F1"/>
<path d="M587.89 332.184L613.964 374.444C615.25 376.507 617.091 378.219 619.304 379.408C621.517 380.598 624.024 381.224 626.576 381.224C629.127 381.224 631.634 380.598 633.847 379.408C636.06 378.219 637.901 376.507 639.188 374.444L639.599 373.773C622.593 346.179 618.358 339.281 601.312 311.688H600.476C597.919 311.699 595.411 312.338 593.202 313.542C590.992 314.745 589.159 316.47 587.884 318.545C586.61 320.62 585.94 322.972 585.941 325.365C585.942 327.759 586.614 330.11 587.89 332.184Z" fill="#F9F8F1"/>
<path d="M575.165 270.076H626.816C629.349 270.07 631.836 269.446 634.027 268.266C636.219 267.086 638.039 265.392 639.305 263.354C640.571 261.315 641.238 259.003 641.241 256.649C641.243 254.295 640.58 251.982 639.318 249.941L638.911 249.27H563.084L562.676 249.941C561.415 251.981 560.752 254.293 560.754 256.646C560.756 258.999 561.422 261.31 562.686 263.348C563.951 265.387 565.769 267.081 567.959 268.261C570.148 269.442 572.633 270.068 575.165 270.076Z" fill="#F9F8F1"/>
<path d="M562.947 374.383L562.535 373.717C561.249 371.67 559.408 369.971 557.195 368.79C554.982 367.61 552.475 366.988 549.923 366.988C547.371 366.988 544.864 367.61 542.651 368.79C540.438 369.971 538.597 371.67 537.31 373.717L511.223 415.659C509.952 417.72 509.285 420.054 509.289 422.429C509.293 424.804 509.968 427.136 511.246 429.193C512.524 431.249 514.361 432.958 516.572 434.149C518.784 435.339 521.293 435.97 523.848 435.977H524.685L562.947 374.383Z" fill="#F9F8F1"/>
<path d="M511.396 250.096L537.475 207.85C538.742 205.775 539.406 203.426 539.4 201.035C539.394 198.645 538.719 196.298 537.442 194.229C536.165 192.159 534.33 190.439 532.121 189.241C529.912 188.042 527.406 187.407 524.853 187.398H524.017L485.742 249.525L486.167 250.196C487.461 252.256 489.31 253.963 491.529 255.145C493.748 256.327 496.259 256.944 498.812 256.934C501.365 256.924 503.871 256.288 506.079 255.088C508.287 253.888 510.12 252.167 511.396 250.096Z" fill="#F9F8F1"/>
<path d="M473.519 353.299H421.866C419.335 353.306 416.851 353.931 414.661 355.111C412.471 356.292 410.653 357.986 409.387 360.026C408.121 362.065 407.453 364.377 407.449 366.732C407.445 369.087 408.105 371.401 409.364 373.444L409.772 374.105H485.6L486.021 373.444C487.28 371.401 487.94 369.087 487.936 366.732C487.932 364.377 487.264 362.065 485.998 360.026C484.733 357.986 482.914 356.292 480.724 355.111C478.534 353.931 476.05 353.306 473.519 353.299Z" fill="#F9F8F1"/>
<path d="M460.759 291.301L434.701 249.419C433.416 247.374 431.577 245.677 429.366 244.499C427.156 243.32 424.652 242.699 422.103 242.699C419.554 242.699 417.05 243.32 414.839 244.499C412.629 245.677 410.79 247.374 409.505 249.419L409.094 250.096L447.339 311.688H448.174C450.74 311.686 453.261 311.056 455.481 309.86C457.701 308.665 459.542 306.946 460.819 304.878C462.095 302.81 462.762 300.466 462.751 298.082C462.741 295.698 462.053 293.359 460.759 291.301Z" fill="#F9F8F1"/>
<path d="M296.232 20.1811L341.114 -4.27888C343.305 -5.48498 345.123 -7.21146 346.387 -9.28628C347.65 -11.3611 348.315 -13.7118 348.315 -16.1043C348.315 -18.4968 347.65 -20.8476 346.387 -22.9224C345.123 -24.9972 343.305 -26.7237 341.114 -27.9298L340.401 -28.3281L274.398 7.57146V8.35568C274.399 10.7638 275.073 13.1291 276.353 15.2131C277.633 17.2971 279.473 19.0259 281.687 20.2253C283.901 21.4247 286.412 22.0522 288.966 22.0444C291.52 22.0366 294.026 21.394 296.232 20.1811Z" fill="#F9F8F1"/>
<path d="M230.593 32.0538V-16.4363C230.585 -18.8122 229.911 -21.1446 228.639 -23.2004C227.366 -25.2563 225.538 -26.9635 223.34 -28.1516C221.141 -29.3396 218.647 -29.9669 216.108 -29.9707C213.569 -29.9745 211.073 -29.3546 208.87 -28.1732L208.145 -27.7782V43.4081L208.87 43.7907C211.073 44.9721 213.569 45.592 216.108 45.5882C218.647 45.5844 221.141 44.9571 223.34 43.7691C225.538 42.581 227.366 40.8738 228.639 38.8179C229.911 36.7621 230.585 34.4297 230.593 32.0538Z" fill="#F9F8F1"/>
<path d="M341.452 43.3965L340.738 43.7828C338.545 44.9904 336.726 46.7189 335.461 48.7963C334.197 50.8736 333.531 53.2272 333.531 55.6226C333.531 58.018 334.197 60.3716 335.461 62.4489C336.726 64.5262 338.545 66.2548 340.738 67.4623L385.66 91.9395C387.866 93.1377 390.366 93.7687 392.912 93.7691C395.457 93.7695 397.957 93.1394 400.163 91.9419C402.369 90.7443 404.203 89.0214 405.482 86.9454C406.76 84.8693 407.438 82.513 407.448 80.1122V79.3271L341.452 43.3965Z" fill="#F9F8F1"/>
<path d="M208.563 91.8469L163.651 67.6409C161.445 66.4615 158.947 65.8425 156.405 65.8457C153.863 65.849 151.367 66.4743 149.165 67.6593C146.963 68.8443 145.133 70.5475 143.857 72.5988C142.581 74.6501 141.905 76.9778 141.895 79.3495V80.126L207.876 115.671L208.603 115.289C210.799 114.093 212.621 112.38 213.886 110.321C215.151 108.263 215.815 105.93 215.811 103.557C215.807 101.184 215.135 98.8536 213.863 96.7986C212.591 94.7437 210.764 93.0362 208.563 91.8469Z" fill="#F9F8F1"/>
<path d="M318.75 127.115V175.956C318.758 178.349 319.432 180.699 320.706 182.77C321.979 184.84 323.808 186.56 326.008 187.757C328.208 188.953 330.703 189.585 333.244 189.589C335.785 189.593 338.282 188.968 340.486 187.778L341.199 187.38V115.678L340.486 115.293C338.282 114.103 335.785 113.479 333.244 113.482C330.703 113.486 328.208 114.118 326.008 115.315C323.808 116.511 321.979 118.231 320.706 120.302C319.432 122.372 318.758 124.722 318.75 127.115Z" fill="#F9F8F1"/>
<path d="M252.986 139.388L207.74 163.59C205.531 164.784 203.698 166.493 202.424 168.547C201.151 170.601 200.48 172.928 200.48 175.296C200.48 177.665 201.151 179.992 202.424 182.046C203.698 184.1 205.531 185.809 207.74 187.003L208.472 187.397L274.944 151.859V151.082C274.936 148.707 274.253 146.375 272.965 144.321C271.677 142.266 269.828 140.562 267.604 139.377C265.38 138.193 262.859 137.57 260.294 137.572C257.728 137.574 255.208 138.201 252.986 139.388Z" fill="#F9F8F1"/>
<path d="M338.215 100.031L364.288 142.291C365.574 144.355 367.416 146.066 369.628 147.256C371.841 148.445 374.348 149.071 376.9 149.071C379.452 149.071 381.959 148.445 384.171 147.256C386.384 146.066 388.226 144.355 389.512 142.291L389.923 141.62C372.917 114.027 368.682 107.128 351.636 79.5352H350.8C348.244 79.5465 345.735 80.1858 343.526 81.3893C341.316 82.5927 339.483 84.3182 338.209 86.393C336.935 88.4679 336.265 90.8196 336.266 93.2129C336.267 95.6062 336.939 97.9574 338.215 100.031Z" fill="#F9F8F1"/>
<path d="M325.489 37.9233H377.141C379.673 37.9173 382.16 37.2933 384.352 36.1136C386.543 34.9339 388.363 33.24 389.629 31.2013C390.895 29.1626 391.562 26.8506 391.565 24.4969C391.567 22.1431 390.904 19.83 389.643 17.7891L389.235 17.1172H313.408L313 17.7891C311.739 19.8291 311.076 22.1411 311.078 24.4938C311.08 26.8466 311.746 29.1577 313.011 31.196C314.275 33.2343 316.093 34.9285 318.283 36.109C320.473 37.2896 322.958 37.9152 325.489 37.9233Z" fill="#F9F8F1"/>
<path d="M313.271 142.231L312.859 141.565C311.573 139.517 309.732 137.818 307.519 136.638C305.306 135.457 302.799 134.836 300.247 134.836C297.695 134.836 295.188 135.457 292.975 136.638C290.762 137.818 288.921 139.517 287.635 141.565L261.547 183.507C260.276 185.568 259.609 187.902 259.613 190.277C259.617 192.651 260.292 194.984 261.57 197.04C262.848 199.097 264.685 200.806 266.896 201.996C269.108 203.187 271.617 203.817 274.173 203.824H275.009L313.271 142.231Z" fill="#F9F8F1"/>
<path d="M261.72 17.9439L287.799 -24.3019C289.066 -26.3769 289.73 -28.7267 289.724 -31.1169C289.718 -33.5072 289.043 -35.8542 287.766 -37.9238C286.489 -39.9934 284.654 -41.7133 282.445 -42.9117C280.236 -44.1102 277.731 -44.7454 275.178 -44.7539H274.341L236.066 17.3724L236.491 18.0433C237.785 20.1037 239.634 21.8103 241.853 22.9927C244.072 24.1751 246.583 24.7921 249.136 24.7821C251.689 24.772 254.195 24.1353 256.403 22.9354C258.611 21.7355 260.444 20.0144 261.72 17.9439Z" fill="#F9F8F1"/>
<path d="M223.843 121.146H172.19C169.66 121.154 167.175 121.779 164.985 122.959C162.795 124.14 160.977 125.834 159.711 127.873C158.446 129.913 157.777 132.225 157.773 134.58C157.769 136.935 158.43 139.249 159.688 141.292L160.096 141.953H235.925L236.345 141.292C237.604 139.249 238.264 136.935 238.26 134.58C238.256 132.225 237.588 129.913 236.322 127.873C235.057 125.834 233.238 124.14 231.048 122.959C228.858 121.779 226.374 121.154 223.843 121.146Z" fill="#F9F8F1"/>
<path d="M211.083 59.1486L185.025 17.2662C183.74 15.2214 181.901 13.5251 179.691 12.3462C177.48 11.1672 174.976 10.5469 172.427 10.5469C169.878 10.5469 167.374 11.1672 165.164 12.3462C162.953 13.5251 161.114 15.2214 159.829 17.2662L159.418 17.9437L197.663 79.5354H198.498C201.064 79.5339 203.585 78.9035 205.805 77.7078C208.025 76.5122 209.866 74.7936 211.143 72.7256C212.419 70.6576 213.086 68.3134 213.076 65.9296C213.065 63.5458 212.378 61.2067 211.083 59.1486Z" fill="#F9F8F1"/>
<path d="M296.232 252.333L341.114 227.873C343.305 226.667 345.123 224.941 346.387 222.866C347.65 220.791 348.315 218.441 348.315 216.048C348.315 213.656 347.65 211.305 346.387 209.23C345.123 207.155 343.305 205.429 341.114 204.223L340.401 203.824L274.398 239.724V240.508C274.399 242.916 275.073 245.281 276.353 247.365C277.633 249.449 279.473 251.178 281.687 252.378C283.901 253.577 286.412 254.205 288.966 254.197C291.52 254.189 294.026 253.546 296.232 252.333Z" fill="#F9F8F1"/>
<path d="M230.593 264.206V215.716C230.585 213.34 229.911 211.008 228.639 208.952C227.366 206.896 225.538 205.189 223.34 204.001C221.141 202.813 218.647 202.185 216.108 202.182C213.569 202.178 211.073 202.798 208.87 203.979L208.145 204.374V275.56L208.87 275.943C211.073 277.124 213.569 277.744 216.108 277.741C218.647 277.737 221.141 277.109 223.34 275.921C225.538 274.733 227.366 273.026 228.639 270.97C229.911 268.914 230.585 266.582 230.593 264.206Z" fill="#F9F8F1"/>
<path d="M341.452 275.549L340.738 275.935C338.545 277.143 336.726 278.871 335.461 280.949C334.197 283.026 333.531 285.38 333.531 287.775C333.531 290.17 334.197 292.524 335.461 294.601C336.726 296.679 338.545 298.407 340.738 299.615L385.66 324.092C387.866 325.29 390.366 325.921 392.912 325.921C395.457 325.922 397.957 325.292 400.163 324.094C402.369 322.897 404.203 321.174 405.482 319.098C406.76 317.022 407.438 314.665 407.448 312.265V311.479L341.452 275.549Z" fill="#F9F8F1"/>
<path d="M208.563 323.999L163.651 299.793C161.445 298.614 158.947 297.995 156.405 297.998C153.863 298.001 151.367 298.627 149.165 299.812C146.963 300.997 145.133 302.7 143.857 304.751C142.581 306.802 141.905 309.13 141.895 311.502V312.278L207.876 347.823L208.603 347.441C210.799 346.245 212.621 344.532 213.886 342.474C215.151 340.415 215.815 338.083 215.811 335.709C215.807 333.336 215.135 331.006 213.863 328.951C212.591 326.896 210.764 325.189 208.563 323.999Z" fill="#F9F8F1"/>
<path d="M318.75 359.267V408.109C318.758 410.502 319.432 412.851 320.706 414.922C321.979 416.993 323.808 418.712 326.008 419.909C328.208 421.106 330.703 421.737 333.244 421.741C335.785 421.745 338.282 421.121 340.486 419.931L341.199 419.533V347.831L340.486 347.445C338.282 346.255 335.785 345.631 333.244 345.635C330.703 345.639 328.208 346.27 326.008 347.467C323.808 348.664 321.979 350.383 320.706 352.454C319.432 354.525 318.758 356.874 318.75 359.267Z" fill="#F9F8F1"/>
<path d="M252.986 371.541L207.74 395.742C205.531 396.936 203.698 398.645 202.424 400.699C201.151 402.753 200.48 405.08 200.48 407.449C200.48 409.817 201.151 412.144 202.424 414.198C203.698 416.252 205.531 417.961 207.74 419.155L208.472 419.55L274.944 384.011V383.235C274.936 380.859 274.253 378.527 272.965 376.473C271.677 374.419 269.828 372.714 267.604 371.529C265.38 370.345 262.859 369.723 260.294 369.725C257.728 369.727 255.208 370.353 252.986 371.541Z" fill="#F9F8F1"/>
<path d="M338.215 332.184L364.288 374.444C365.574 376.507 367.416 378.219 369.628 379.408C371.841 380.598 374.348 381.224 376.9 381.224C379.452 381.224 381.959 380.598 384.171 379.408C386.384 378.219 388.226 376.507 389.512 374.444L389.923 373.773C372.917 346.179 368.682 339.281 351.636 311.688H350.8C348.244 311.699 345.735 312.338 343.526 313.542C341.316 314.745 339.483 316.47 338.209 318.545C336.935 320.62 336.265 322.972 336.266 325.365C336.267 327.759 336.939 330.11 338.215 332.184Z" fill="#F9F8F1"/>
<path d="M325.489 270.076H377.141C379.673 270.07 382.16 269.446 384.352 268.266C386.543 267.086 388.363 265.392 389.629 263.354C390.895 261.315 391.562 259.003 391.565 256.649C391.567 254.295 390.904 251.982 389.643 249.941L389.235 249.27H313.408L313 249.941C311.739 251.981 311.076 254.293 311.078 256.646C311.08 258.999 311.746 261.31 313.011 263.348C314.275 265.387 316.093 267.081 318.283 268.261C320.473 269.442 322.958 270.068 325.489 270.076Z" fill="#F9F8F1"/>
<path d="M313.271 374.383L312.859 373.717C311.573 371.67 309.732 369.971 307.519 368.79C305.306 367.61 302.799 366.988 300.247 366.988C297.695 366.988 295.188 367.61 292.975 368.79C290.762 369.971 288.921 371.67 287.635 373.717L261.547 415.659C260.276 417.72 259.609 420.054 259.613 422.429C259.617 424.804 260.292 427.136 261.57 429.193C262.848 431.249 264.685 432.958 266.896 434.149C269.108 435.339 271.617 435.97 274.173 435.977H275.009L313.271 374.383Z" fill="#F9F8F1"/>
<path d="M261.72 250.096L287.799 207.85C289.066 205.775 289.73 203.426 289.724 201.035C289.718 198.645 289.043 196.298 287.766 194.229C286.489 192.159 284.654 190.439 282.445 189.241C280.236 188.042 277.731 187.407 275.178 187.398H274.341L236.066 249.525L236.491 250.196C237.785 252.256 239.634 253.963 241.853 255.145C244.072 256.327 246.583 256.944 249.136 256.934C251.689 256.924 254.195 256.288 256.403 255.088C258.611 253.888 260.444 252.167 261.72 250.096Z" fill="#F9F8F1"/>
<path d="M223.843 353.299H172.19C169.66 353.306 167.175 353.931 164.985 355.111C162.795 356.292 160.977 357.986 159.711 360.026C158.446 362.065 157.777 364.377 157.773 366.732C157.769 369.087 158.43 371.401 159.688 373.444L160.096 374.105H235.925L236.345 373.444C237.604 371.401 238.264 369.087 238.26 366.732C238.256 364.377 237.588 362.065 236.322 360.026C235.057 357.986 233.238 356.292 231.048 355.111C228.858 353.931 226.374 353.306 223.843 353.299Z" fill="#F9F8F1"/>
<path d="M211.083 291.301L185.025 249.419C183.74 247.374 181.901 245.677 179.691 244.499C177.48 243.32 174.976 242.699 172.427 242.699C169.878 242.699 167.374 243.32 165.164 244.499C162.953 245.677 161.114 247.374 159.829 249.419L159.418 250.096L197.663 311.688H198.498C201.064 311.686 203.585 311.056 205.805 309.86C208.025 308.665 209.866 306.946 211.143 304.878C212.419 302.81 213.086 300.466 213.076 298.082C213.065 295.698 212.378 293.359 211.083 291.301Z" fill="#F9F8F1"/>
<path d="M716.118 91.8469L671.205 67.6409C669 66.4615 666.502 65.8425 663.96 65.8457C661.418 65.849 658.921 66.4743 656.719 67.6593C654.518 68.8443 652.687 70.5475 651.412 72.5988C650.136 74.6501 649.459 76.9778 649.449 79.3495V80.126L715.431 115.671L716.157 115.289C718.354 114.093 720.176 112.38 721.441 110.321C722.706 108.263 723.37 105.93 723.366 103.557C723.362 101.184 722.69 98.8536 721.418 96.7986C720.146 94.7437 718.318 93.0362 716.118 91.8469Z" fill="#F9F8F1"/>
<path d="M731.398 121.146H679.745C677.214 121.154 674.73 121.779 672.54 122.959C670.35 124.14 668.531 125.834 667.266 127.873C666 129.913 665.332 132.225 665.328 134.58C665.324 136.935 665.984 139.249 667.243 141.292L667.65 141.953H743.479L743.9 141.292C745.159 139.249 745.819 136.935 745.815 134.58C745.811 132.225 745.143 129.913 743.877 127.873C742.612 125.834 740.793 124.14 738.603 122.959C736.413 121.779 733.929 121.154 731.398 121.146Z" fill="#F9F8F1"/>
<path d="M718.638 59.1486L692.58 17.2662C691.295 15.2214 689.456 13.5251 687.245 12.3462C685.035 11.1672 682.531 10.5469 679.982 10.5469C677.433 10.5469 674.929 11.1672 672.718 12.3462C670.508 13.5251 668.669 15.2214 667.384 17.2662L666.973 17.9437L705.217 79.5354H706.053C708.619 79.5339 711.14 78.9035 713.36 77.7078C715.58 76.5122 717.421 74.7936 718.698 72.7256C719.974 70.6576 720.641 68.3134 720.63 65.9296C720.62 63.5458 719.932 61.2067 718.638 59.1486Z" fill="#F9F8F1"/>
<path d="M716.118 323.999L671.205 299.793C669 298.614 666.502 297.995 663.96 297.998C661.418 298.001 658.921 298.627 656.719 299.812C654.518 300.997 652.687 302.7 651.412 304.751C650.136 306.802 649.459 309.13 649.449 311.502V312.278L715.431 347.823L716.157 347.441C718.354 346.245 720.176 344.532 721.441 342.474C722.706 340.415 723.37 338.083 723.366 335.709C723.362 333.336 722.69 331.006 721.418 328.951C720.146 326.896 718.318 325.189 716.118 323.999Z" fill="#F9F8F1"/>
<path d="M731.398 353.299H679.745C677.214 353.306 674.73 353.931 672.54 355.111C670.35 356.292 668.531 357.986 667.266 360.026C666 362.065 665.332 364.377 665.328 366.732C665.324 369.087 665.984 371.401 667.243 373.444L667.65 374.105H743.479L743.9 373.444C745.159 371.401 745.819 369.087 745.815 366.732C745.811 364.377 745.143 362.065 743.877 360.026C742.612 357.986 740.793 356.292 738.603 355.111C736.413 353.931 733.929 353.306 731.398 353.299Z" fill="#F9F8F1"/>
<path d="M718.638 291.301L692.58 249.419C691.295 247.374 689.456 245.677 687.245 244.499C685.035 243.32 682.531 242.699 679.982 242.699C677.433 242.699 674.929 243.32 672.718 244.499C670.508 245.677 668.669 247.374 667.384 249.419L666.973 250.096L705.217 311.688H706.053C708.619 311.686 711.14 311.056 713.36 309.86C715.58 308.665 717.421 306.946 718.698 304.878C719.974 302.81 720.641 300.466 720.63 298.082C720.62 295.698 719.932 293.359 718.638 291.301Z" fill="#F9F8F1"/>
<path d="M38.3416 488.865L83.2236 464.405C85.4148 463.199 87.2326 461.472 88.496 459.397C89.7594 457.323 90.4241 454.972 90.4241 452.579C90.4241 450.187 89.7594 447.836 88.496 445.761C87.2326 443.686 85.4148 441.96 83.2236 440.754L82.5108 440.355L16.5078 476.255V477.039C16.5085 479.447 17.1827 481.813 18.4624 483.897C19.742 485.981 21.5819 487.71 23.7963 488.909C26.0108 490.108 28.5215 490.736 31.0752 490.728C33.6289 490.72 36.1353 490.078 38.3416 488.865Z" fill="#F9F8F1"/>
<path d="M83.561 512.08L82.8476 512.466C80.6544 513.674 78.835 515.403 77.5705 517.48C76.306 519.557 75.6406 521.911 75.6406 524.306C75.6406 526.702 76.306 529.055 77.5705 531.132C78.835 533.21 80.6544 534.938 82.8476 536.146L127.77 560.623C129.975 561.821 132.476 562.452 135.021 562.453C137.566 562.453 140.067 561.823 142.273 560.625C144.479 559.428 146.313 557.705 147.591 555.629C148.869 553.553 149.547 551.197 149.557 548.796V548.011L83.561 512.08Z" fill="#F9F8F1"/>
<path d="M60.8594 595.799V644.64C60.8671 647.033 61.5415 649.382 62.8151 651.453C64.0888 653.524 65.917 655.243 68.1173 656.44C70.3175 657.637 72.8126 658.269 75.3532 658.272C77.8939 658.276 80.3911 657.652 82.5953 656.462L83.308 656.064V584.362L82.5953 583.977C80.3911 582.787 77.8939 582.162 75.3532 582.166C72.8126 582.17 70.3175 582.802 68.1173 583.998C65.917 585.195 64.0888 586.915 62.8151 588.985C61.5415 591.056 60.8671 593.405 60.8594 595.799Z" fill="#F9F8F1"/>
<path d="M-4.90429 608.072L-50.151 632.274C-52.36 633.468 -54.1927 635.177 -55.4663 637.231C-56.7399 639.284 -57.4102 641.612 -57.4102 643.98C-57.4102 646.349 -56.7399 648.676 -55.4663 650.73C-54.1927 652.784 -52.36 654.493 -50.151 655.687L-49.4191 656.081L17.0537 620.542V619.766C17.0452 617.39 16.3627 615.059 15.0744 613.004C13.7861 610.95 11.9374 609.245 9.71348 608.061C7.48955 606.876 4.96846 606.254 2.40293 606.256C-0.162609 606.258 -2.68248 606.884 -4.90429 608.072Z" fill="#F9F8F1"/>
<path d="M80.3239 568.715L106.397 610.975C107.684 613.038 109.525 614.75 111.738 615.939C113.951 617.129 116.458 617.755 119.009 617.755C121.561 617.755 124.068 617.129 126.281 615.939C128.494 614.75 130.335 613.038 131.621 610.975L132.033 610.304C115.027 582.71 110.792 575.812 93.7457 548.219H92.9093C90.3531 548.23 87.8447 548.869 85.6351 550.073C83.4256 551.276 81.5921 553.002 80.3181 555.077C79.044 557.152 78.374 559.503 78.375 561.897C78.376 564.29 79.0481 566.641 80.3239 568.715Z" fill="#F9F8F1"/>
<path d="M67.5987 506.607H119.25C121.783 506.601 124.269 505.977 126.461 504.797C128.653 503.618 130.472 501.924 131.738 499.885C133.004 497.846 133.672 495.534 133.674 493.18C133.677 490.827 133.014 488.514 131.752 486.473L131.344 485.801H55.5174L55.1098 486.473C53.8486 488.513 53.1857 490.825 53.1875 493.177C53.1893 495.53 53.8557 497.841 55.12 499.88C56.3844 501.918 58.2024 503.612 60.3922 504.793C62.5821 505.973 65.0671 506.599 67.5987 506.607Z" fill="#F9F8F1"/>
<path d="M55.3804 610.915L54.9689 610.248C53.6825 608.201 51.8411 606.502 49.6282 605.321C47.4154 604.141 44.9082 603.52 42.3565 603.52C39.8048 603.52 37.2975 604.141 35.0846 605.321C32.8717 606.502 31.0304 608.201 29.7441 610.248L3.65633 652.191C2.38536 654.251 1.7186 656.585 1.72267 658.96C1.72675 661.335 2.40156 663.667 3.67958 665.724C4.95761 667.781 6.79411 669.489 9.00562 670.68C11.2171 671.87 13.7262 672.501 16.282 672.508H17.1184L55.3804 610.915Z" fill="#F9F8F1"/>
<path d="M3.82958 486.628L29.9081 444.382C31.1754 442.307 31.8392 439.957 31.8335 437.567C31.8278 435.176 31.1526 432.829 29.8754 430.76C28.5982 428.69 26.7636 426.97 24.5547 425.772C22.3459 424.573 19.8399 423.938 17.2869 423.93H16.4508L-21.8242 486.056L-21.3996 486.727C-20.1053 488.787 -18.2564 490.494 -16.0376 491.676C-13.8188 492.859 -11.3075 493.476 -8.75447 493.466C-6.2014 493.456 -3.69574 492.819 -1.48762 491.619C0.720501 490.419 2.55384 488.698 3.82958 486.628Z" fill="#F9F8F1"/>
<path d="M38.3416 721.017L83.2236 696.557C85.4148 695.351 87.2326 693.624 88.496 691.55C89.7594 689.475 90.4241 687.124 90.4241 684.732C90.4241 682.339 89.7594 679.988 88.496 677.914C87.2326 675.839 85.4148 674.112 83.2236 672.906L82.5108 672.508L16.5078 708.407V709.192C16.5085 711.6 17.1827 713.965 18.4624 716.049C19.742 718.133 21.5819 719.862 23.7963 721.061C26.0108 722.261 28.5215 722.888 31.0752 722.88C33.6289 722.873 36.1353 722.23 38.3416 721.017Z" fill="#F9F8F1"/>
<path d="M83.561 744.232L82.8476 744.619C80.6544 745.826 78.835 747.555 77.5705 749.632C76.306 751.71 75.6406 754.063 75.6406 756.459C75.6406 758.854 76.306 761.207 77.5705 763.285C78.835 765.362 80.6544 767.091 82.8476 768.298L127.77 792.775C129.975 793.974 132.476 794.605 135.021 794.605C137.566 794.605 140.067 793.975 142.273 792.778C144.479 791.58 146.313 789.857 147.591 787.781C148.869 785.705 149.547 783.349 149.557 780.948V780.163L83.561 744.232Z" fill="#F9F8F1"/>
<path d="M80.3239 800.867L106.397 843.127C107.684 845.19 109.525 846.902 111.738 848.092C113.951 849.281 116.458 849.907 119.009 849.907C121.561 849.907 124.068 849.281 126.281 848.092C128.494 846.902 130.335 845.19 131.621 843.127L132.033 842.456C115.027 814.863 110.792 807.964 93.7457 780.371H92.9093C90.3531 780.382 87.8447 781.022 85.6351 782.225C83.4256 783.429 81.5921 785.154 80.3181 787.229C79.044 789.304 78.374 791.656 78.375 794.049C78.376 796.442 79.0481 798.793 80.3239 800.867Z" fill="#F9F8F1"/>
<path d="M67.5987 738.759H119.25C121.783 738.753 124.269 738.129 126.461 736.95C128.653 735.77 130.472 734.076 131.738 732.037C133.004 729.999 133.672 727.687 133.674 725.333C133.677 722.979 133.014 720.666 131.752 718.625L131.344 717.953H55.5174L55.1098 718.625C53.8486 720.665 53.1857 722.977 53.1875 725.33C53.1893 727.683 53.8557 729.994 55.12 732.032C56.3844 734.07 58.2024 735.764 60.3922 736.945C62.5821 738.125 65.0671 738.751 67.5987 738.759Z" fill="#F9F8F1"/>
<path d="M3.82958 718.78L29.9081 676.534C31.1754 674.459 31.8392 672.109 31.8335 669.719C31.8278 667.329 31.1526 664.982 29.8754 662.912C28.5982 660.843 26.7636 659.123 24.5547 657.924C22.3459 656.726 19.8399 656.091 17.2869 656.082H16.4508L-21.8242 718.208L-21.3996 718.879C-20.1053 720.94 -18.2564 722.646 -16.0376 723.829C-13.8188 725.011 -11.3075 725.628 -8.75447 725.618C-6.2014 725.608 -3.69574 724.971 -1.48762 723.771C0.720501 722.571 2.55384 720.85 3.82958 718.78Z" fill="#F9F8F1"/>
<path d="M545.908 488.865L590.79 464.405C592.981 463.199 594.799 461.472 596.062 459.397C597.326 457.323 597.991 454.972 597.991 452.579C597.991 450.187 597.326 447.836 596.062 445.761C594.799 443.686 592.981 441.96 590.79 440.754L590.077 440.355L524.074 476.255V477.039C524.075 479.447 524.749 481.813 526.029 483.897C527.308 485.981 529.148 487.71 531.363 488.909C533.577 490.108 536.088 490.736 538.642 490.728C541.195 490.72 543.702 490.078 545.908 488.865Z" fill="#F9F8F1"/>
<path d="M480.269 500.737V452.247C480.261 449.871 479.587 447.539 478.314 445.483C477.041 443.427 475.214 441.72 473.015 440.532C470.816 439.344 468.323 438.717 465.784 438.713C463.244 438.709 460.749 439.329 458.546 440.51L457.82 440.905V512.092L458.546 512.474C460.749 513.656 463.244 514.276 465.784 514.272C468.323 514.268 470.816 513.641 473.015 512.453C475.214 511.265 477.041 509.557 478.314 507.502C479.587 505.446 480.261 503.113 480.269 500.737Z" fill="#F9F8F1"/>
<path d="M591.127 512.08L590.414 512.466C588.221 513.674 586.401 515.403 585.137 517.48C583.872 519.557 583.207 521.911 583.207 524.306C583.207 526.702 583.872 529.055 585.137 531.132C586.401 533.21 588.221 534.938 590.414 536.146L635.336 560.623C637.542 561.821 640.042 562.452 642.587 562.453C645.132 562.453 647.633 561.823 649.839 560.625C652.045 559.428 653.879 557.705 655.157 555.629C656.436 553.553 657.114 551.197 657.123 548.796V548.011L591.127 512.08Z" fill="#F9F8F1"/>
<path d="M458.239 560.53L413.326 536.324C411.121 535.145 408.623 534.526 406.081 534.529C403.539 534.533 401.042 535.158 398.841 536.343C396.639 537.528 394.808 539.231 393.533 541.282C392.257 543.334 391.58 545.661 391.57 548.033V548.81L457.552 584.354L458.278 583.972C460.475 582.776 462.297 581.064 463.562 579.005C464.827 576.946 465.491 574.614 465.487 572.241C465.483 569.868 464.811 567.537 463.539 565.482C462.267 563.427 460.439 561.72 458.239 560.53Z" fill="#F9F8F1"/>
<path d="M568.426 595.799V644.64C568.434 647.033 569.108 649.382 570.382 651.453C571.655 653.524 573.483 655.243 575.684 656.44C577.884 657.637 580.379 658.269 582.92 658.272C585.46 658.276 587.957 657.652 590.162 656.462L590.874 656.064V584.362L590.162 583.977C587.957 582.787 585.46 582.162 582.92 582.166C580.379 582.17 577.884 582.802 575.684 583.998C573.483 585.195 571.655 586.915 570.382 588.985C569.108 591.056 568.434 593.405 568.426 595.799Z" fill="#F9F8F1"/>
<path d="M502.662 608.072L457.415 632.274C455.206 633.468 453.374 635.177 452.1 637.231C450.826 639.284 450.156 641.612 450.156 643.98C450.156 646.349 450.826 648.676 452.1 650.73C453.374 652.784 455.206 654.493 457.415 655.687L458.147 656.081L524.62 620.542V619.766C524.612 617.39 523.929 615.059 522.641 613.004C521.353 610.95 519.504 609.245 517.28 608.061C515.056 606.876 512.535 606.254 509.969 606.256C507.404 606.258 504.884 606.884 502.662 608.072Z" fill="#F9F8F1"/>
<path d="M587.89 568.715L613.964 610.975C615.25 613.038 617.091 614.75 619.304 615.939C621.517 617.129 624.024 617.755 626.576 617.755C629.127 617.755 631.634 617.129 633.847 615.939C636.06 614.75 637.901 613.038 639.188 610.975L639.599 610.304C622.593 582.71 618.358 575.812 601.312 548.219H600.476C597.919 548.23 595.411 548.869 593.202 550.073C590.992 551.276 589.159 553.002 587.884 555.077C586.61 557.152 585.94 559.503 585.941 561.897C585.942 564.29 586.614 566.641 587.89 568.715Z" fill="#F9F8F1"/>
<path d="M575.165 506.607H626.816C629.349 506.601 631.836 505.977 634.027 504.797C636.219 503.618 638.039 501.924 639.305 499.885C640.571 497.846 641.238 495.534 641.241 493.18C641.243 490.827 640.58 488.514 639.318 486.473L638.911 485.801H563.084L562.676 486.473C561.415 488.513 560.752 490.825 560.754 493.177C560.756 495.53 561.422 497.841 562.686 499.88C563.951 501.918 565.769 503.612 567.959 504.793C570.148 505.973 572.633 506.599 575.165 506.607Z" fill="#F9F8F1"/>
<path d="M562.947 610.915L562.535 610.248C561.249 608.201 559.408 606.502 557.195 605.321C554.982 604.141 552.475 603.52 549.923 603.52C547.371 603.52 544.864 604.141 542.651 605.321C540.438 606.502 538.597 608.201 537.31 610.248L511.223 652.191C509.952 654.251 509.285 656.585 509.289 658.96C509.293 661.335 509.968 663.667 511.246 665.724C512.524 667.781 514.361 669.489 516.572 670.68C518.784 671.87 521.293 672.501 523.848 672.508H524.685L562.947 610.915Z" fill="#F9F8F1"/>
<path d="M511.396 486.628L537.475 444.382C538.742 442.307 539.406 439.957 539.4 437.567C539.394 435.176 538.719 432.829 537.442 430.76C536.165 428.69 534.33 426.97 532.121 425.772C529.912 424.573 527.406 423.938 524.853 423.93H524.017L485.742 486.056L486.167 486.727C487.461 488.787 489.31 490.494 491.529 491.676C493.748 492.859 496.259 493.476 498.812 493.466C501.365 493.456 503.871 492.819 506.079 491.619C508.287 490.419 510.12 488.698 511.396 486.628Z" fill="#F9F8F1"/>
<path d="M473.519 589.83H421.866C419.335 589.837 416.851 590.462 414.661 591.643C412.471 592.823 410.653 594.518 409.387 596.557C408.121 598.596 407.453 600.909 407.449 603.263C407.445 605.618 408.105 607.933 409.364 609.976L409.772 610.636H485.6L486.021 609.976C487.28 607.933 487.94 605.618 487.936 603.263C487.932 600.909 487.264 598.596 485.998 596.557C484.733 594.518 482.914 592.823 480.724 591.643C478.534 590.462 476.05 589.837 473.519 589.83Z" fill="#F9F8F1"/>
<path d="M460.759 527.832L434.701 485.95C433.416 483.905 431.577 482.209 429.366 481.03C427.156 479.851 424.652 479.23 422.103 479.23C419.554 479.23 417.05 479.851 414.839 481.03C412.629 482.209 410.79 483.905 409.505 485.95L409.094 486.627L447.339 548.219H448.174C450.74 548.217 453.261 547.587 455.481 546.391C457.701 545.196 459.542 543.477 460.819 541.409C462.095 539.341 462.762 536.997 462.751 534.613C462.741 532.229 462.053 529.89 460.759 527.832Z" fill="#F9F8F1"/>
<path d="M545.908 721.017L590.79 696.557C592.981 695.351 594.799 693.624 596.062 691.55C597.326 689.475 597.991 687.124 597.991 684.732C597.991 682.339 597.326 679.988 596.062 677.914C594.799 675.839 592.981 674.112 590.79 672.906L590.077 672.508L524.074 708.407V709.192C524.075 711.6 524.749 713.965 526.029 716.049C527.308 718.133 529.148 719.862 531.363 721.061C533.577 722.261 536.088 722.888 538.642 722.88C541.195 722.873 543.702 722.23 545.908 721.017Z" fill="#F9F8F1"/>
<path d="M480.269 732.89V684.4C480.261 682.024 479.587 679.691 478.314 677.635C477.041 675.58 475.214 673.872 473.015 672.684C470.816 671.496 468.323 670.869 465.784 670.865C463.244 670.861 460.749 671.481 458.546 672.663L457.82 673.058V744.244L458.546 744.627C460.749 745.808 463.244 746.428 465.784 746.424C468.323 746.42 470.816 745.793 473.015 744.605C475.214 743.417 477.041 741.71 478.314 739.654C479.587 737.598 480.261 735.266 480.269 732.89Z" fill="#F9F8F1"/>
<path d="M591.127 744.232L590.414 744.619C588.221 745.826 586.401 747.555 585.137 749.632C583.872 751.71 583.207 754.063 583.207 756.459C583.207 758.854 583.872 761.207 585.137 763.285C586.401 765.362 588.221 767.091 590.414 768.298L635.336 792.775C637.542 793.974 640.042 794.605 642.587 794.605C645.132 794.605 647.633 793.975 649.839 792.778C652.045 791.58 653.879 789.857 655.157 787.781C656.436 785.705 657.114 783.349 657.123 780.948V780.163L591.127 744.232Z" fill="#F9F8F1"/>
<path d="M458.239 792.683L413.326 768.477C411.121 767.297 408.623 766.678 406.081 766.682C403.539 766.685 401.042 767.31 398.841 768.495C396.639 769.68 394.808 771.383 393.533 773.435C392.257 775.486 391.58 777.814 391.57 780.185V780.962L457.552 816.507L458.278 816.125C460.475 814.929 462.297 813.216 463.562 811.157C464.827 809.099 465.491 806.766 465.487 804.393C465.483 802.02 464.811 799.69 463.539 797.635C462.267 795.58 460.439 793.872 458.239 792.683Z" fill="#F9F8F1"/>
<path d="M587.89 800.867L613.964 843.127C615.25 845.19 617.091 846.902 619.304 848.092C621.517 849.281 624.024 849.907 626.576 849.907C629.127 849.907 631.634 849.281 633.847 848.092C636.06 846.902 637.901 845.19 639.188 843.127L639.599 842.456C622.593 814.863 618.358 807.964 601.312 780.371H600.476C597.919 780.382 595.411 781.022 593.202 782.225C590.992 783.429 589.159 785.154 587.884 787.229C586.61 789.304 585.94 791.656 585.941 794.049C585.942 796.442 586.614 798.793 587.89 800.867Z" fill="#F9F8F1"/>
<path d="M575.165 738.759H626.816C629.349 738.753 631.836 738.129 634.027 736.95C636.219 735.77 638.039 734.076 639.305 732.037C640.571 729.999 641.238 727.687 641.241 725.333C641.243 722.979 640.58 720.666 639.318 718.625L638.911 717.953H563.084L562.676 718.625C561.415 720.665 560.752 722.977 560.754 725.33C560.756 727.683 561.422 729.994 562.686 732.032C563.951 734.07 565.769 735.764 567.959 736.945C570.148 738.125 572.633 738.751 575.165 738.759Z" fill="#F9F8F1"/>
<path d="M511.396 718.78L537.475 676.534C538.742 674.459 539.406 672.109 539.4 669.719C539.394 667.329 538.719 664.982 537.442 662.912C536.165 660.843 534.33 659.123 532.121 657.924C529.912 656.726 527.406 656.091 524.853 656.082H524.017L485.742 718.208L486.167 718.879C487.461 720.94 489.31 722.646 491.529 723.829C493.748 725.011 496.259 725.628 498.812 725.618C501.365 725.608 503.871 724.971 506.079 723.771C508.287 722.571 510.12 720.85 511.396 718.78Z" fill="#F9F8F1"/>
<path d="M460.759 759.985L434.701 718.102C433.416 716.057 431.577 714.361 429.366 713.182C427.156 712.003 424.652 711.383 422.103 711.383C419.554 711.383 417.05 712.003 414.839 713.182C412.629 714.361 410.79 716.057 409.505 718.102L409.094 718.78L447.339 780.371H448.174C450.74 780.37 453.261 779.739 455.481 778.544C457.701 777.348 459.542 775.63 460.819 773.562C462.095 771.494 462.762 769.149 462.751 766.766C462.741 764.382 462.053 762.043 460.759 759.985Z" fill="#F9F8F1"/>
<path d="M296.232 488.865L341.114 464.405C343.305 463.199 345.123 461.472 346.387 459.397C347.65 457.323 348.315 454.972 348.315 452.579C348.315 450.187 347.65 447.836 346.387 445.761C345.123 443.686 343.305 441.96 341.114 440.754L340.401 440.355L274.398 476.255V477.039C274.399 479.447 275.073 481.813 276.353 483.897C277.633 485.981 279.473 487.71 281.687 488.909C283.901 490.108 286.412 490.736 288.966 490.728C291.52 490.72 294.026 490.078 296.232 488.865Z" fill="#F9F8F1"/>
<path d="M230.593 500.737V452.247C230.585 449.871 229.911 447.539 228.639 445.483C227.366 443.427 225.538 441.72 223.34 440.532C221.141 439.344 218.647 438.717 216.108 438.713C213.569 438.709 211.073 439.329 208.87 440.51L208.145 440.905V512.092L208.87 512.474C211.073 513.656 213.569 514.276 216.108 514.272C218.647 514.268 221.141 513.641 223.34 512.453C225.538 511.265 227.366 509.557 228.639 507.502C229.911 505.446 230.585 503.113 230.593 500.737Z" fill="#F9F8F1"/>
<path d="M341.452 512.08L340.738 512.466C338.545 513.674 336.726 515.403 335.461 517.48C334.197 519.557 333.531 521.911 333.531 524.306C333.531 526.702 334.197 529.055 335.461 531.132C336.726 533.21 338.545 534.938 340.738 536.146L385.66 560.623C387.866 561.821 390.366 562.452 392.912 562.453C395.457 562.453 397.957 561.823 400.163 560.625C402.369 559.428 404.203 557.705 405.482 555.629C406.76 553.553 407.438 551.197 407.448 548.796V548.011L341.452 512.08Z" fill="#F9F8F1"/>
<path d="M208.563 560.53L163.651 536.324C161.445 535.145 158.947 534.526 156.405 534.529C153.863 534.533 151.367 535.158 149.165 536.343C146.963 537.528 145.133 539.231 143.857 541.282C142.581 543.334 141.905 545.661 141.895 548.033V548.81L207.876 584.354L208.603 583.972C210.799 582.776 212.621 581.064 213.886 579.005C215.151 576.946 215.815 574.614 215.811 572.241C215.807 569.868 215.135 567.537 213.863 565.482C212.591 563.427 210.764 561.72 208.563 560.53Z" fill="#F9F8F1"/>
<path d="M318.75 595.799V644.64C318.758 647.033 319.432 649.382 320.706 651.453C321.979 653.524 323.808 655.243 326.008 656.44C328.208 657.637 330.703 658.269 333.244 658.272C335.785 658.276 338.282 657.652 340.486 656.462L341.199 656.064V584.362L340.486 583.977C338.282 582.787 335.785 582.162 333.244 582.166C330.703 582.17 328.208 582.802 326.008 583.998C323.808 585.195 321.979 586.915 320.706 588.985C319.432 591.056 318.758 593.405 318.75 595.799Z" fill="#F9F8F1"/>
<path d="M252.986 608.072L207.74 632.274C205.531 633.468 203.698 635.177 202.424 637.231C201.151 639.284 200.48 641.612 200.48 643.98C200.48 646.349 201.151 648.676 202.424 650.73C203.698 652.784 205.531 654.493 207.74 655.687L208.472 656.081L274.944 620.542V619.766C274.936 617.39 274.253 615.059 272.965 613.004C271.677 610.95 269.828 609.245 267.604 608.061C265.38 606.876 262.859 606.254 260.294 606.256C257.728 606.258 255.208 606.884 252.986 608.072Z" fill="#F9F8F1"/>
<path d="M338.215 568.715L364.288 610.975C365.574 613.038 367.416 614.75 369.628 615.939C371.841 617.129 374.348 617.755 376.9 617.755C379.452 617.755 381.959 617.129 384.171 615.939C386.384 614.75 388.226 613.038 389.512 610.975L389.923 610.304C372.917 582.71 368.682 575.812 351.636 548.219H350.8C348.244 548.23 345.735 548.869 343.526 550.073C341.316 551.276 339.483 553.002 338.209 555.077C336.935 557.152 336.265 559.503 336.266 561.897C336.267 564.29 336.939 566.641 338.215 568.715Z" fill="#F9F8F1"/>
<path d="M325.489 506.605H377.141C379.673 506.599 382.16 505.975 384.352 504.795C386.543 503.616 388.363 501.922 389.629 499.883C390.895 497.844 391.562 495.532 391.565 493.179C391.567 490.825 390.904 488.512 389.643 486.471L389.235 485.799H313.408L313 486.471C311.739 488.511 311.076 490.823 311.078 493.175C311.08 495.528 311.746 497.839 313.011 499.878C314.275 501.916 316.093 503.61 318.283 504.791C320.473 505.971 322.958 506.597 325.489 506.605Z" fill="#F9F8F1"/>
<path d="M313.271 610.915L312.859 610.248C311.573 608.201 309.732 606.502 307.519 605.321C305.306 604.141 302.799 603.52 300.247 603.52C297.695 603.52 295.188 604.141 292.975 605.321C290.762 606.502 288.921 608.201 287.635 610.248L261.547 652.191C260.276 654.251 259.609 656.585 259.613 658.96C259.617 661.335 260.292 663.667 261.57 665.724C262.848 667.781 264.685 669.489 266.896 670.68C269.108 671.87 271.617 672.501 274.173 672.508H275.009L313.271 610.915Z" fill="#F9F8F1"/>
<path d="M261.72 486.628L287.799 444.382C289.066 442.307 289.73 439.957 289.724 437.567C289.718 435.176 289.043 432.829 287.766 430.76C286.489 428.69 284.654 426.97 282.445 425.772C280.236 424.573 277.731 423.938 275.178 423.93H274.341L236.066 486.056L236.491 486.727C237.785 488.787 239.634 490.494 241.853 491.676C244.072 492.859 246.583 493.476 249.136 493.466C251.689 493.456 254.195 492.819 256.403 491.619C258.611 490.419 260.444 488.698 261.72 486.628Z" fill="#F9F8F1"/>
<path d="M223.843 589.83H172.19C169.66 589.837 167.175 590.462 164.985 591.643C162.795 592.823 160.977 594.518 159.711 596.557C158.446 598.596 157.777 600.909 157.773 603.263C157.769 605.618 158.43 607.933 159.688 609.976L160.096 610.636H235.925L236.345 609.976C237.604 607.933 238.264 605.618 238.26 603.263C238.256 600.909 237.588 598.596 236.322 596.557C235.057 594.518 233.238 592.823 231.048 591.643C228.858 590.462 226.374 589.837 223.843 589.83Z" fill="#F9F8F1"/>
<path d="M211.083 527.832L185.025 485.95C183.74 483.905 181.901 482.209 179.691 481.03C177.48 479.851 174.976 479.23 172.427 479.23C169.878 479.23 167.374 479.851 165.164 481.03C162.953 482.209 161.114 483.905 159.829 485.95L159.418 486.627L197.663 548.219H198.498C201.064 548.217 203.585 547.587 205.805 546.391C208.025 545.196 209.866 543.477 211.143 541.409C212.419 539.341 213.086 536.997 213.076 534.613C213.065 532.229 212.378 529.89 211.083 527.832Z" fill="#F9F8F1"/>
<path d="M296.232 721.015L341.114 696.555C343.305 695.349 345.123 693.623 346.387 691.548C347.65 689.473 348.315 687.122 348.315 684.73C348.315 682.337 347.65 679.986 346.387 677.912C345.123 675.837 343.305 674.11 341.114 672.904L340.401 672.506L274.398 708.405V709.19C274.399 711.598 275.073 713.963 276.353 716.047C277.633 718.131 279.473 719.86 281.687 721.059C283.901 722.259 286.412 722.886 288.966 722.878C291.52 722.871 294.026 722.228 296.232 721.015Z" fill="#F9F8F1"/>
<path d="M230.593 732.888V684.398C230.585 682.022 229.911 679.689 228.639 677.634C227.366 675.578 225.538 673.87 223.34 672.682C221.141 671.494 218.647 670.867 216.108 670.863C213.569 670.86 211.073 671.479 208.87 672.661L208.145 673.056V744.242L208.87 744.625C211.073 745.806 213.569 746.426 216.108 746.422C218.647 746.418 221.141 745.791 223.34 744.603C225.538 743.415 227.366 741.708 228.639 739.652C229.911 737.596 230.585 735.264 230.593 732.888Z" fill="#F9F8F1"/>
<path d="M341.452 744.23L340.738 744.617C338.545 745.824 336.726 747.553 335.461 749.63C334.197 751.708 333.531 754.061 333.531 756.457C333.531 758.852 334.197 761.206 335.461 763.283C336.726 765.36 338.545 767.089 340.738 768.296L385.66 792.773C387.866 793.972 390.366 794.603 392.912 794.603C395.457 794.603 397.957 793.973 400.163 792.776C402.369 791.578 404.203 789.855 405.482 787.779C406.76 785.703 407.438 783.347 407.448 780.946V780.161L341.452 744.23Z" fill="#F9F8F1"/>
<path d="M208.563 792.681L163.651 768.475C161.445 767.295 158.947 766.676 156.405 766.68C153.863 766.683 151.367 767.308 149.165 768.493C146.963 769.678 145.133 771.381 143.857 773.433C142.581 775.484 141.905 777.812 141.895 780.183V780.96L207.876 816.505L208.603 816.123C210.799 814.927 212.621 813.214 213.886 811.155C215.151 809.097 215.815 806.764 215.811 804.391C215.807 802.018 215.135 799.688 213.863 797.633C212.591 795.578 210.764 793.87 208.563 792.681Z" fill="#F9F8F1"/>
<path d="M338.215 800.865L364.288 843.125C365.574 845.189 367.416 846.9 369.628 848.09C371.841 849.279 374.348 849.905 376.9 849.905C379.452 849.905 381.959 849.279 384.171 848.09C386.384 846.9 388.226 845.189 389.512 843.125L389.923 842.454C372.917 814.861 368.682 807.962 351.636 780.369H350.8C348.244 780.38 345.735 781.02 343.526 782.223C341.316 783.427 339.483 785.152 338.209 787.227C336.935 789.302 336.265 791.654 336.266 794.047C336.267 796.44 336.939 798.791 338.215 800.865Z" fill="#F9F8F1"/>
<path d="M325.489 738.755H377.141C379.673 738.749 382.16 738.125 384.352 736.946C386.543 735.766 388.363 734.072 389.629 732.033C390.895 729.995 391.562 727.683 391.565 725.329C391.567 722.975 390.904 720.662 389.643 718.621L389.235 717.949H313.408L313 718.621C311.739 720.661 311.076 722.973 311.078 725.326C311.08 727.679 311.746 729.99 313.011 732.028C314.275 734.066 316.093 735.76 318.283 736.941C320.473 738.122 322.958 738.747 325.489 738.755Z" fill="#F9F8F1"/>
<path d="M261.72 718.778L287.799 676.532C289.066 674.457 289.73 672.107 289.724 669.717C289.718 667.327 289.043 664.98 287.766 662.91C286.489 660.841 284.654 659.121 282.445 657.922C280.236 656.724 277.731 656.089 275.178 656.08H274.341L236.066 718.206L236.491 718.877C237.785 720.938 239.634 722.644 241.853 723.827C244.072 725.009 246.583 725.626 249.136 725.616C251.689 725.606 254.195 724.969 256.403 723.769C258.611 722.57 260.444 720.848 261.72 718.778Z" fill="#F9F8F1"/>
<path d="M211.083 759.983L185.025 718.1C183.74 716.055 181.901 714.359 179.691 713.18C177.48 712.001 174.976 711.381 172.427 711.381C169.878 711.381 167.374 712.001 165.164 713.18C162.953 714.359 161.114 716.055 159.829 718.1L159.418 718.778L197.663 780.369H198.498C201.064 780.368 203.585 779.737 205.805 778.542C208.025 777.346 209.866 775.628 211.143 773.56C212.419 771.492 213.086 769.147 213.076 766.764C213.065 764.38 212.378 762.041 211.083 759.983Z" fill="#F9F8F1"/>
<path d="M716.118 560.53L671.205 536.324C669 535.145 666.502 534.526 663.96 534.529C661.418 534.533 658.921 535.158 656.719 536.343C654.518 537.528 652.687 539.231 651.412 541.282C650.136 543.334 649.459 545.661 649.449 548.033V548.81L715.431 584.354L716.157 583.972C718.354 582.776 720.176 581.064 721.441 579.005C722.706 576.946 723.37 574.614 723.366 572.241C723.362 569.868 722.69 567.537 721.418 565.482C720.146 563.427 718.318 561.72 716.118 560.53Z" fill="#F9F8F1"/>
<path d="M731.398 589.83H679.745C677.214 589.837 674.73 590.462 672.54 591.643C670.35 592.823 668.531 594.518 667.266 596.557C666 598.596 665.332 600.909 665.328 603.263C665.324 605.618 665.984 607.933 667.243 609.976L667.65 610.636H743.479L743.9 609.976C745.159 607.933 745.819 605.618 745.815 603.263C745.811 600.909 745.143 598.596 743.877 596.557C742.612 594.518 740.793 592.823 738.603 591.643C736.413 590.462 733.929 589.837 731.398 589.83Z" fill="#F9F8F1"/>
<path d="M718.638 527.832L692.58 485.95C691.295 483.905 689.456 482.209 687.245 481.03C685.035 479.851 682.531 479.23 679.982 479.23C677.433 479.23 674.929 479.851 672.718 481.03C670.508 482.209 668.669 483.905 667.384 485.95L666.973 486.627L705.217 548.219H706.053C708.619 548.217 711.14 547.587 713.36 546.391C715.58 545.196 717.421 543.477 718.698 541.409C719.974 539.341 720.641 536.997 720.63 534.613C720.62 532.229 719.932 529.89 718.638 527.832Z" fill="#F9F8F1"/>
<path d="M716.118 792.683L671.205 768.477C669 767.297 666.502 766.678 663.96 766.682C661.418 766.685 658.921 767.31 656.719 768.495C654.518 769.68 652.687 771.383 651.412 773.435C650.136 775.486 649.459 777.814 649.449 780.185V780.962L715.431 816.507L716.157 816.125C718.354 814.929 720.176 813.216 721.441 811.157C722.706 809.099 723.37 806.766 723.366 804.393C723.362 802.02 722.69 799.69 721.418 797.635C720.146 795.58 718.318 793.872 716.118 792.683Z" fill="#F9F8F1"/>
<path d="M718.638 759.985L692.58 718.102C691.295 716.057 689.456 714.361 687.245 713.182C685.035 712.003 682.531 711.383 679.982 711.383C677.433 711.383 674.929 712.003 672.718 713.182C670.508 714.361 668.669 716.057 667.384 718.102L666.973 718.78L705.217 780.371H706.053C708.619 780.37 711.14 779.739 713.36 778.544C715.58 777.348 717.421 775.63 718.698 773.562C719.974 771.494 720.641 769.149 720.63 766.766C720.62 764.382 719.932 762.043 718.638 759.985Z" fill="#F9F8F1"/>
</svg>
