<svg width="16" height="20" viewBox="0 0 16 20" fill="none" xmlns="http://www.w3.org/2000/svg">
<path d="M9.66536 1.89063V5.33274C9.66536 5.79945 9.66536 6.03281 9.75619 6.21107C9.83609 6.36787 9.96357 6.49535 10.1204 6.57525C10.2986 6.66608 10.532 6.66608 10.9987 6.66608H14.4408M11.332 10.8327H4.66536M11.332 14.166H4.66536M6.33203 7.49935H4.66536M9.66536 1.66602H5.33203C3.9319 1.66602 3.23183 1.66602 2.69705 1.9385C2.22665 2.17818 1.8442 2.56063 1.60451 3.03104C1.33203 3.56582 1.33203 4.26588 1.33203 5.66602V14.3327C1.33203 15.7328 1.33203 16.4329 1.60451 16.9677C1.8442 17.4381 2.22665 17.8205 2.69705 18.0602C3.23183 18.3327 3.9319 18.3327 5.33203 18.3327H10.6654C12.0655 18.3327 12.7656 18.3327 13.3003 18.0602C13.7707 17.8205 14.1532 17.4381 14.3929 16.9677C14.6654 16.4329 14.6654 15.7328 14.6654 14.3327V6.66602L9.66536 1.66602Z" stroke="#3B27C1" stroke-width="1.5" stroke-linecap="round" stroke-linejoin="round"/>
</svg>
