<svg width="70" height="79" viewBox="0 0 70 79" fill="none" xmlns="http://www.w3.org/2000/svg">
<g clip-path="url(#clip0_6237_52220)">
<path d="M59.6135 26.8457H9.31555C3.90105 26.8457 -0.488281 31.235 -0.488281 36.6495V61.3723H69.8436V37.0758C69.8436 31.4259 65.2634 26.8457 59.6135 26.8457Z" fill="#EAFFC2"/>
<path d="M15.136 12.4988C15.7755 11.8593 16.6429 11.5 17.5473 11.5H64.3015V95.0457H3.77344V25.2738C3.77344 24.3694 4.13271 23.5021 4.77221 22.8626L15.136 12.4988Z" fill="#FC6760"/>
<path d="M14.8594 38.3535H39.1558" stroke="#E5413A" stroke-width="2.55752" stroke-linecap="round"/>
<path d="M29.7773 43.043H54.0738" stroke="#E5413A" stroke-width="2.55752" stroke-linecap="round"/>
<path d="M25.9414 48.1582H42.9916" stroke="#E5413A" stroke-width="2.55752" stroke-linecap="round"/>
<path d="M46.8281 48.1582H63.8783" stroke="#E5413A" stroke-width="2.55752" stroke-linecap="round"/>
<path d="M43.8438 38.3535H54.0738" stroke="#BAFF36" stroke-width="2.55752" stroke-linecap="round"/>
<path d="M25.0898 43.043H14.8598" stroke="#E5413A" stroke-width="2.55752" stroke-linecap="round"/>
<path d="M22.5312 48.1582H12.3012" stroke="#E5413A" stroke-width="2.55752" stroke-linecap="round"/>
<path d="M-0.488281 35.3711V87.374L106.501 106.129L-0.488281 35.3711Z" fill="#3B27C1"/>
<path d="M69.8438 35.3711V87.374L-37.9984 104.85L69.8438 35.3711Z" fill="#6252CD"/>
<path d="M37.0834 21.5623L39.3344 20.3432C39.4443 20.2831 39.5355 20.197 39.5989 20.0936C39.6623 19.9902 39.6956 19.873 39.6956 19.7538C39.6956 19.6345 39.6623 19.5174 39.5989 19.414C39.5355 19.3105 39.4443 19.2245 39.3344 19.1644L39.2987 19.1445L35.9883 20.9338V20.9729C35.9883 21.0929 36.0221 21.2108 36.0863 21.3147C36.1505 21.4186 36.2428 21.5047 36.3538 21.5645C36.4649 21.6243 36.5908 21.6556 36.7189 21.6552C36.847 21.6548 36.9727 21.6228 37.0834 21.5623Z" fill="#CF3B34"/>
<path d="M33.7792 22.1707V19.7331C33.7788 19.6137 33.745 19.4964 33.6811 19.3931C33.6172 19.2897 33.5255 19.2039 33.4151 19.1442C33.3047 19.0845 33.1795 19.0529 33.0521 19.0527C32.9246 19.0525 32.7993 19.0837 32.6888 19.1431L32.6523 19.163V22.7415L32.6888 22.7608C32.7993 22.8202 32.9246 22.8513 33.0521 22.8511C33.1795 22.8509 33.3047 22.8194 33.4151 22.7597C33.5255 22.7 33.6172 22.6141 33.6811 22.5108C33.745 22.4074 33.7788 22.2902 33.7792 22.1707Z" fill="#CF3B34"/>
<path d="M39.3383 22.7422L39.3026 22.7614C39.1927 22.8215 39.1015 22.9076 39.0381 23.011C38.9747 23.1144 38.9414 23.2316 38.9414 23.3508C38.9414 23.4701 38.9747 23.5872 39.0381 23.6906C39.1015 23.7941 39.1927 23.8801 39.3026 23.9402L41.5537 25.1587C41.6642 25.2184 41.7895 25.2498 41.917 25.2498C42.0446 25.2498 42.1699 25.2185 42.2804 25.1588C42.391 25.0992 42.4829 25.0135 42.5469 24.9101C42.611 24.8068 42.645 24.6895 42.6454 24.5699V24.5309L39.3383 22.7422Z" fill="#CF3B34"/>
<path d="M32.6892 25.1585L30.4381 23.94C30.3276 23.8806 30.2024 23.8494 30.075 23.8496C29.9475 23.8498 29.8224 23.8813 29.7121 23.9409C29.6017 24.0006 29.51 24.0863 29.446 24.1896C29.3821 24.2928 29.3482 24.41 29.3477 24.5294V24.5685L32.6548 26.3578L32.6912 26.3385C32.8013 26.2783 32.8926 26.1921 32.956 26.0885C33.0194 25.9848 33.0527 25.8674 33.0525 25.748C33.0523 25.6285 33.0186 25.5112 32.9549 25.4077C32.8911 25.3043 32.7995 25.2184 32.6892 25.1585Z" fill="#CF3B34"/>
<path d="M38.2109 26.9304V29.368C38.2113 29.4875 38.2452 29.6047 38.3091 29.7081C38.3729 29.8114 38.4647 29.8972 38.575 29.957C38.6854 30.0167 38.8106 30.0482 38.9381 30.0484C39.0655 30.0486 39.1908 30.0174 39.3014 29.958L39.3371 29.9382V26.3596L39.3014 26.3404C39.1908 26.281 39.0655 26.2498 38.9381 26.25C38.8106 26.2502 38.6854 26.2817 38.575 26.3415C38.4647 26.4012 38.3729 26.487 38.3091 26.5903C38.2452 26.6937 38.2113 26.8109 38.2109 26.9304Z" fill="#CF3B34"/>
<path d="M34.9052 27.5387L32.6541 28.7572C32.5442 28.8173 32.453 28.9034 32.3897 29.0068C32.3263 29.1102 32.293 29.2274 32.293 29.3466C32.293 29.4658 32.3263 29.583 32.3897 29.6864C32.453 29.7898 32.5442 29.8759 32.6541 29.936L32.6905 29.9559L35.9977 28.1666V28.1275C35.9972 28.0079 35.9633 27.8905 35.8992 27.787C35.8351 27.6836 35.7431 27.5978 35.6325 27.5381C35.5218 27.4785 35.3964 27.4472 35.2688 27.4473C35.1411 27.4474 35.0158 27.4789 34.9052 27.5387Z" fill="#CF3B34"/>
<path d="M39.187 25.5719L40.4874 27.6813C40.5515 27.7843 40.6433 27.8698 40.7537 27.9291C40.8641 27.9885 40.9891 28.0198 41.1163 28.0198C41.2436 28.0198 41.3686 27.9885 41.479 27.9291C41.5893 27.8698 41.6812 27.7843 41.7453 27.6813L41.7658 27.6478C40.9177 26.2705 40.7065 25.9262 39.8564 24.5488H39.8147C39.6872 24.5494 39.5621 24.5813 39.4519 24.6414C39.3417 24.7014 39.2503 24.7876 39.1867 24.8911C39.1232 24.9947 39.0898 25.1121 39.0898 25.2316C39.0899 25.351 39.1234 25.4684 39.187 25.5719Z" fill="#CF3B34"/>
<path d="M38.5383 22.4726H41.1396C41.2672 22.4723 41.3924 22.4406 41.5028 22.3807C41.6132 22.3208 41.7048 22.2348 41.7686 22.1312C41.8323 22.0277 41.866 21.9103 41.8661 21.7908C41.8662 21.6712 41.8328 21.5538 41.7693 21.4501L41.7487 21.416H37.9298L37.9093 21.4501C37.8458 21.5537 37.8124 21.6711 37.8125 21.7906C37.8126 21.9101 37.8462 22.0275 37.9098 22.131C37.9735 22.2345 38.0651 22.3205 38.1754 22.3805C38.2856 22.4404 38.4108 22.4722 38.5383 22.4726Z" fill="#CF3B34"/>
<path d="M37.9259 27.6825L37.9054 27.649C37.8412 27.546 37.7494 27.4605 37.639 27.4012C37.5287 27.3418 37.4037 27.3105 37.2764 27.3105C37.1491 27.3105 37.0241 27.3418 36.9138 27.4012C36.8034 27.4605 36.7116 27.546 36.6474 27.649L35.3464 29.7584C35.283 29.862 35.2498 29.9794 35.25 30.0989C35.2502 30.2183 35.2839 30.3356 35.3476 30.439C35.4113 30.5425 35.5029 30.6284 35.6132 30.6883C35.7235 30.7482 35.8486 30.7799 35.9761 30.7802H36.0178L37.9259 27.6825Z" fill="#CF3B34"/>
<path d="M35.3462 21.451L36.6472 19.3415C36.7104 19.2379 36.7435 19.1206 36.7433 19.0012C36.743 18.8819 36.7093 18.7647 36.6456 18.6614C36.5819 18.558 36.4903 18.4721 36.3801 18.4123C36.2699 18.3525 36.1449 18.3207 36.0176 18.3203H35.9759L34.0664 21.4224L34.0876 21.4559C34.1522 21.5588 34.2444 21.644 34.3551 21.703C34.4658 21.7621 34.5911 21.7929 34.7184 21.7924C34.8458 21.7919 34.9708 21.7601 35.081 21.7002C35.1911 21.6403 35.2826 21.5543 35.3462 21.451Z" fill="#CF3B34"/>
<path d="M33.4563 26.6289H30.855C30.7275 26.6293 30.6024 26.661 30.4921 26.7208C30.3818 26.7807 30.2902 26.8667 30.2265 26.9701C30.1628 27.0735 30.1291 27.1908 30.1289 27.3103C30.1287 27.4297 30.162 27.5471 30.2253 27.6507L30.2459 27.6842H34.0648L34.0859 27.6507C34.1493 27.5471 34.1826 27.4297 34.1824 27.3103C34.1822 27.1908 34.1485 27.0735 34.0848 26.9701C34.0211 26.8667 33.9295 26.7807 33.8192 26.7208C33.7089 26.661 33.5838 26.6293 33.4563 26.6289Z" fill="#CF3B34"/>
<path d="M32.8061 23.5279L31.5051 21.4185C31.4409 21.3155 31.3491 21.2301 31.2387 21.1707C31.1284 21.1113 31.0033 21.0801 30.8761 21.0801C30.7488 21.0801 30.6238 21.1113 30.5134 21.1707C30.4031 21.2301 30.3112 21.3155 30.2471 21.4185L30.2266 21.4526L32.136 24.5547H32.1777C32.3059 24.5546 32.4317 24.5229 32.5425 24.4627C32.6534 24.4025 32.7453 24.3159 32.809 24.2117C32.8728 24.1076 32.9061 23.9895 32.9055 23.8695C32.905 23.7494 32.8707 23.6316 32.8061 23.5279Z" fill="#CF3B34"/>
<path d="M37.3295 20.7088L39.5805 19.4897C39.6904 19.4296 39.7816 19.3435 39.845 19.2401C39.9083 19.1367 39.9417 19.0195 39.9417 18.9003C39.9417 18.781 39.9083 18.6639 39.845 18.5604C39.7816 18.457 39.6904 18.371 39.5805 18.3109L39.5448 18.291L36.2344 20.0803V20.1194C36.2344 20.2394 36.2682 20.3573 36.3324 20.4612C36.3966 20.565 36.4889 20.6512 36.5999 20.711C36.711 20.7708 36.8369 20.802 36.965 20.8017C37.0931 20.8013 37.2188 20.7692 37.3295 20.7088Z" fill="white"/>
<path d="M34.0253 21.3172V18.8796C34.0249 18.7602 33.9911 18.6429 33.9272 18.5396C33.8633 18.4362 33.7716 18.3504 33.6612 18.2907C33.5508 18.2309 33.4256 18.1994 33.2982 18.1992C33.1707 18.199 33.0454 18.2302 32.9349 18.2896L32.8984 18.3094V21.888L32.9349 21.9073C33.0454 21.9666 33.1707 21.9978 33.2982 21.9976C33.4256 21.9974 33.5508 21.9659 33.6612 21.9062C33.7716 21.8464 33.8633 21.7606 33.9272 21.6573C33.9911 21.5539 34.0249 21.4367 34.0253 21.3172Z" fill="white"/>
<path d="M39.5844 21.8887L39.5486 21.9079C39.4387 21.968 39.3476 22.0541 39.2842 22.1575C39.2208 22.2609 39.1875 22.3781 39.1875 22.4973C39.1875 22.6166 39.2208 22.7337 39.2842 22.8371C39.3476 22.9405 39.4387 23.0266 39.5486 23.0867L41.7997 24.3052C41.9103 24.3649 42.0356 24.3963 42.1631 24.3963C42.2907 24.3963 42.416 24.3649 42.5265 24.3053C42.6371 24.2457 42.729 24.1599 42.793 24.0566C42.8571 23.9532 42.891 23.8359 42.8915 23.7164V23.6773L39.5844 21.8887Z" fill="white"/>
<path d="M32.9353 24.305L30.6842 23.0865C30.5737 23.0271 30.4485 22.9959 30.321 22.9961C30.1936 22.9963 30.0685 23.0277 29.9581 23.0874C29.8478 23.147 29.7561 23.2328 29.6921 23.336C29.6282 23.4393 29.5943 23.5565 29.5938 23.6759V23.7149L32.9009 25.5042L32.9373 25.485C33.0474 25.4248 33.1387 25.3386 33.2021 25.2349C33.2655 25.1313 33.2988 25.0139 33.2986 24.8944C33.2984 24.775 33.2647 24.6577 33.201 24.5542C33.1372 24.4508 33.0456 24.3648 32.9353 24.305Z" fill="white"/>
<path d="M38.457 26.0769V28.5145C38.4574 28.6339 38.4913 28.7512 38.5551 28.8545C38.619 28.9579 38.7108 29.0437 38.8211 29.1034C38.9315 29.1632 39.0567 29.1947 39.1841 29.1949C39.3116 29.1951 39.4369 29.1639 39.5475 29.1045L39.5832 29.0847V25.5061L39.5475 25.4868C39.4369 25.4275 39.3116 25.3963 39.1841 25.3965C39.0567 25.3967 38.9315 25.4282 38.8211 25.4879C38.7108 25.5477 38.619 25.6335 38.5551 25.7368C38.4913 25.8402 38.4574 25.9574 38.457 26.0769Z" fill="white"/>
<path d="M35.1513 26.6852L32.9002 27.9037C32.7903 27.9638 32.6991 28.0498 32.6358 28.1533C32.5724 28.2567 32.5391 28.3738 32.5391 28.4931C32.5391 28.6123 32.5724 28.7295 32.6358 28.8329C32.6991 28.9363 32.7903 29.0224 32.9002 29.0825L32.9366 29.1023L36.2438 27.313V27.274C36.2433 27.1544 36.2094 27.037 36.1453 26.9335C36.0812 26.8301 35.9892 26.7443 35.8786 26.6846C35.7679 26.625 35.6425 26.5937 35.5149 26.5938C35.3872 26.5938 35.2619 26.6254 35.1513 26.6852Z" fill="white"/>
<path d="M39.4331 24.7184L40.7335 26.8278C40.7976 26.9308 40.8894 27.0162 40.9998 27.0756C41.1102 27.135 41.2352 27.1662 41.3624 27.1662C41.4897 27.1662 41.6147 27.135 41.7251 27.0756C41.8354 27.0162 41.9273 26.9308 41.9914 26.8278L42.0119 26.7943C41.1638 25.417 40.9526 25.0726 40.1025 23.6953H40.0608C39.9333 23.6959 39.8082 23.7278 39.698 23.7879C39.5878 23.8479 39.4964 23.9341 39.4328 24.0376C39.3693 24.1412 39.3359 24.2586 39.3359 24.378C39.336 24.4975 39.3695 24.6149 39.4331 24.7184Z" fill="white"/>
<path d="M38.7805 21.6191H41.3818C41.5094 21.6188 41.6346 21.5871 41.745 21.5272C41.8554 21.4673 41.947 21.3812 42.0108 21.2777C42.0745 21.1742 42.1082 21.0568 42.1083 20.9373C42.1084 20.8177 42.075 20.7003 42.0115 20.5966L41.9909 20.5625H38.172L38.1515 20.5966C38.088 20.7002 38.0546 20.8176 38.0547 20.9371C38.0548 21.0566 38.0883 21.1739 38.152 21.2775C38.2157 21.381 38.3073 21.467 38.4175 21.5269C38.5278 21.5869 38.653 21.6187 38.7805 21.6191Z" fill="white"/>
<path d="M38.172 26.829L38.1515 26.7955C38.0873 26.6925 37.9955 26.607 37.8851 26.5477C37.7748 26.4883 37.6497 26.457 37.5225 26.457C37.3952 26.457 37.2702 26.4883 37.1598 26.5477C37.0495 26.607 36.9577 26.6925 36.8935 26.7955L35.5925 28.9049C35.5291 29.0085 35.4959 29.1259 35.4961 29.2453C35.4963 29.3648 35.53 29.4821 35.5937 29.5855C35.6574 29.689 35.749 29.7749 35.8593 29.8348C35.9696 29.8947 36.0947 29.9264 36.2222 29.9267H36.2639L38.172 26.829Z" fill="white"/>
<path d="M35.5923 20.5974L36.8933 18.488C36.9565 18.3844 36.9896 18.2671 36.9894 18.1477C36.9891 18.0284 36.9554 17.9112 36.8917 17.8078C36.828 17.7045 36.7364 17.6186 36.6262 17.5588C36.516 17.4989 36.391 17.4672 36.2637 17.4668H36.222L34.3125 20.5689L34.3337 20.6024C34.3983 20.7053 34.4905 20.7905 34.6012 20.8495C34.7119 20.9086 34.8372 20.9394 34.9645 20.9389C35.0919 20.9384 35.2169 20.9066 35.327 20.8467C35.4372 20.7868 35.5287 20.7008 35.5923 20.5974Z" fill="white"/>
<path d="M33.7024 25.7754H31.1011C30.9736 25.7758 30.8485 25.8075 30.7382 25.8673C30.6279 25.9272 30.5363 26.0132 30.4726 26.1166C30.4089 26.22 30.3752 26.3373 30.375 26.4568C30.3748 26.5762 30.408 26.6936 30.4714 26.7972L30.492 26.8307H34.3109L34.332 26.7972C34.3954 26.6936 34.4287 26.5762 34.4285 26.4568C34.4283 26.3373 34.3946 26.22 34.3309 26.1166C34.2672 26.0132 34.1756 25.9272 34.0653 25.8673C33.955 25.8075 33.8299 25.7758 33.7024 25.7754Z" fill="white"/>
<path d="M33.0521 22.6744L31.7511 20.565C31.687 20.462 31.5952 20.3766 31.4848 20.3172C31.3745 20.2578 31.2494 20.2266 31.1222 20.2266C30.9949 20.2266 30.8699 20.2578 30.7595 20.3172C30.6492 20.3766 30.5573 20.462 30.4932 20.565L30.4727 20.5991L32.3821 23.7012H32.4238C32.552 23.7011 32.6778 23.6694 32.7886 23.6092C32.8995 23.5489 32.9914 23.4624 33.0551 23.3582C33.1189 23.2541 33.1522 23.136 33.1516 23.0159C33.1511 22.8959 33.1168 22.7781 33.0521 22.6744Z" fill="white"/>
</g>
<defs>
<clipPath id="clip0_6237_52220">
<rect y="0.5" width="70" height="78" rx="8" fill="white"/>
</clipPath>
</defs>
</svg>
