<svg width="49" height="48" viewBox="0 0 49 48" fill="none" xmlns="http://www.w3.org/2000/svg">
<rect x="0.379883" width="48" height="48" rx="24" fill="#E1DDFF"/>
<path d="M18.5529 25.0038L18.7229 25.3748C19.4503 26.8795 20.5961 28.1426 22.0229 29.0128L22.2879 29.1678C22.316 29.1835 22.3394 29.2065 22.3557 29.2342C22.372 29.262 22.3806 29.2936 22.3806 29.3258C22.3806 29.358 22.372 29.3897 22.3557 29.4174C22.3394 29.4452 22.316 29.4681 22.2879 29.4838C20.74 30.3543 19.4959 31.678 18.7229 33.2768L18.5529 33.6488C18.5378 33.6821 18.5135 33.7102 18.4828 33.73C18.4521 33.7498 18.4164 33.7603 18.3799 33.7603C18.3434 33.7603 18.3077 33.7498 18.277 33.73C18.2463 33.7102 18.222 33.6821 18.2069 33.6488L18.0369 33.2768C17.2639 31.678 16.0197 30.3543 14.4719 29.4838C14.4438 29.4681 14.4204 29.4452 14.4041 29.4174C14.3878 29.3897 14.3792 29.358 14.3792 29.3258C14.3792 29.2936 14.3878 29.262 14.4041 29.2342C14.4204 29.2065 14.4438 29.1835 14.4719 29.1678L14.7369 29.0128C16.1637 28.1426 17.3094 26.8795 18.0369 25.3748L18.2069 25.0038C18.222 24.9706 18.2463 24.9424 18.277 24.9227C18.3077 24.9029 18.3434 24.8924 18.3799 24.8924C18.4164 24.8924 18.4521 24.9029 18.4828 24.9227C18.5135 24.9424 18.5378 24.9706 18.5529 25.0038ZM27.4579 14.7298C28.7741 17.8129 31.0717 20.375 33.9939 22.0178C34.043 22.0454 34.0839 22.0855 34.1124 22.1341C34.1408 22.1827 34.1558 22.238 34.1558 22.2943C34.1558 22.3507 34.1408 22.406 34.1124 22.4546C34.0839 22.5032 34.043 22.5433 33.9939 22.5708C31.0715 24.2139 28.7738 26.7763 27.4579 29.8598C27.4319 29.9184 27.3895 29.9681 27.3358 30.003C27.2821 30.0379 27.2194 30.0565 27.1554 30.0565C27.0913 30.0565 27.0287 30.0379 26.975 30.003C26.9213 29.9681 26.8789 29.9184 26.8529 29.8598C25.5369 26.7763 23.2392 24.2139 20.3169 22.5708C20.2678 22.5433 20.2269 22.5032 20.1984 22.4546C20.1699 22.406 20.1549 22.3507 20.1549 22.2943C20.1549 22.238 20.1699 22.1827 20.1984 22.1341C20.2269 22.0855 20.2678 22.0454 20.3169 22.0178C23.239 20.375 25.5367 17.8129 26.8529 14.7298C26.8789 14.6713 26.9213 14.6216 26.975 14.5867C27.0287 14.5518 27.0913 14.5332 27.1554 14.5332C27.2194 14.5332 27.2821 14.5518 27.3358 14.5867C27.3895 14.6216 27.4319 14.6713 27.4579 14.7298Z" fill="#3B27C1"/>
</svg>
