<?xml version="1.0" standalone="no"?>
<!DOCTYPE svg PUBLIC "-//W3C//DTD SVG 20010904//EN"
 "http://www.w3.org/TR/2001/REC-SVG-20010904/DTD/svg10.dtd">
<svg version="1.0" xmlns="http://www.w3.org/2000/svg"
 width="2880.000000pt" height="2880.000000pt" viewBox="0 0 2880.000000 2880.000000"
 preserveAspectRatio="xMidYMid meet">
<metadata>
Created by potrace 1.14, written by Peter Selinger 2001-2017
</metadata>
<g transform="translate(0.000000,2880.000000) scale(0.100000,-0.100000)"
fill="#000000" stroke="none">
<path d="M14225 25744 c-71 -125 -139 -243 -150 -263 -11 -20 -22 -38 -25 -41
-3 -3 -12 -19 -21 -35 -8 -17 -60 -106 -114 -200 -54 -93 -108 -186 -119 -206
-41 -72 -83 -145 -141 -244 -107 -185 -551 -953 -597 -1035 -78 -138 -295
-512 -314 -542 -13 -21 -24 -40 -24 -44 0 -3 -8 -18 -19 -32 -10 -15 -33 -54
-51 -87 -18 -33 -41 -73 -51 -90 -10 -16 -30 -52 -45 -80 -15 -27 -30 -51 -35
-53 -5 -2 -9 -8 -9 -13 0 -4 -20 -43 -45 -85 -25 -41 -45 -77 -45 -78 0 -2
-37 -66 -82 -142 -45 -76 -90 -155 -100 -174 -10 -19 -28 -50 -39 -69 -11 -18
-87 -149 -168 -290 -144 -250 -228 -394 -299 -516 -46 -81 -54 -94 -167 -290
-262 -455 -509 -882 -520 -901 -11 -18 -8 -29 34 -96 130 -214 293 -369 501
-476 82 -43 215 -94 276 -106 10 -3 39 -9 64 -14 50 -12 194 -26 255 -25 47 0
198 14 205 18 3 2 23 6 45 9 67 11 206 56 285 93 75 36 213 122 261 165 78 69
98 88 143 138 27 30 70 87 96 125 39 59 298 501 378 645 14 25 33 57 43 72 11
14 19 28 19 31 0 3 62 113 138 244 118 203 176 302 320 553 11 19 77 134 147
255 70 121 179 310 243 420 232 404 265 460 272 470 4 6 20 33 35 60 53 98
408 710 425 735 10 14 17 27 17 30 0 3 6 16 15 30 49 79 291 505 317 560 41
83 75 184 96 285 20 91 29 332 15 410 -5 28 -11 66 -15 85 -41 237 -179 489
-364 669 -54 52 -161 138 -205 163 -222 128 -415 185 -636 187 l-115 1 -130
-226z"/>
<path d="M9129 24606 c-2 -2 -22 -6 -45 -9 -83 -12 -190 -40 -273 -74 -83 -33
-206 -96 -226 -115 -7 -6 -10 -1133 -10 -3333 l0 -3323 70 -39 c202 -110 376
-159 597 -167 302 -10 627 109 866 317 120 104 241 261 299 387 42 90 65 144
68 160 2 8 12 51 24 95 11 44 24 111 29 149 10 79 9 4836 -1 4879 -4 15 -9 37
-11 50 -23 123 -61 231 -125 354 -180 341 -513 582 -911 658 -40 8 -344 17
-351 11z"/>
<path d="M20129 24426 c-13 -7 -127 -72 -254 -146 -126 -73 -245 -141 -262
-152 -18 -10 -48 -26 -65 -37 -18 -10 -78 -44 -133 -76 -55 -32 -127 -73 -160
-93 -33 -19 -80 -46 -104 -60 -25 -14 -68 -38 -95 -55 -28 -16 -65 -38 -82
-47 -120 -68 -331 -190 -389 -225 -38 -23 -77 -45 -85 -48 -8 -4 -28 -15 -45
-26 -39 -23 -302 -175 -620 -358 -137 -78 -257 -147 -265 -152 -19 -12 -203
-119 -233 -135 -12 -6 -33 -18 -47 -27 -14 -9 -72 -43 -130 -76 -58 -34 -160
-93 -226 -132 -67 -39 -148 -85 -180 -102 -33 -18 -70 -40 -84 -49 -14 -9 -50
-31 -80 -47 -30 -17 -95 -54 -145 -83 -49 -28 -108 -62 -130 -75 -76 -43 -270
-155 -285 -165 -8 -6 -22 -13 -30 -17 -8 -4 -43 -24 -78 -45 -34 -21 -64 -38
-67 -38 -3 0 -33 -17 -67 -38 -35 -21 -83 -50 -108 -64 -25 -14 -157 -90 -295
-170 -137 -79 -374 -216 -525 -303 -151 -87 -308 -178 -348 -202 -41 -23 -77
-43 -81 -43 -4 0 -15 -8 -23 -17 -11 -13 -14 -40 -13 -98 5 -217 51 -396 148
-580 265 -498 847 -764 1397 -639 140 31 257 81 425 179 50 29 151 88 225 130
273 158 317 183 438 253 68 40 126 72 130 72 3 0 13 6 21 14 9 7 39 26 66 41
46 25 296 169 984 567 150 87 278 158 282 158 5 0 9 5 9 10 0 6 4 10 9 10 5 0
107 57 227 126 121 70 238 137 261 150 23 13 108 63 190 110 159 93 156 91
313 181 324 186 568 328 593 345 15 11 27 16 27 12 0 -4 8 0 18 8 9 8 49 33
87 55 39 23 106 71 150 108 235 196 377 443 440 765 14 72 14 314 0 395 -22
134 -24 141 -56 232 -95 268 -260 480 -499 637 -105 70 -123 77 -151 62z"/>
<path d="M5368 20845 c-2 -1 -30 -6 -63 -9 -152 -17 -387 -101 -482 -172 -17
-13 -35 -24 -38 -24 -13 0 -133 -98 -196 -160 -73 -73 -141 -161 -201 -261
l-39 -67 152 -263 c84 -145 161 -280 172 -299 10 -19 23 -39 27 -45 4 -5 22
-37 40 -70 18 -33 40 -72 49 -87 20 -33 172 -296 187 -323 30 -54 317 -550
356 -615 24 -41 47 -82 51 -90 4 -8 16 -31 28 -50 86 -145 525 -906 569 -985
18 -33 41 -71 50 -85 9 -14 30 -50 47 -80 16 -30 70 -125 120 -210 49 -85 106
-184 127 -220 20 -36 41 -72 46 -80 18 -29 96 -165 103 -180 4 -8 16 -28 26
-45 18 -30 336 -578 374 -645 10 -19 59 -104 108 -187 49 -84 100 -173 114
-197 14 -25 64 -111 111 -193 48 -81 98 -168 112 -193 29 -52 271 -470 301
-521 11 -19 28 -49 37 -66 l16 -33 117 5 c116 4 128 6 231 26 128 26 318 106
426 180 369 249 581 661 568 1099 -4 122 -9 154 -39 270 -43 162 -70 221 -197
440 -31 52 -79 136 -108 185 -29 50 -62 108 -75 130 -12 22 -73 128 -135 235
-136 236 -138 240 -180 315 -19 33 -41 71 -50 85 -10 14 -28 45 -42 70 -14 25
-35 61 -46 80 -12 19 -27 46 -35 60 -30 54 -373 650 -467 810 -70 121 -364
630 -397 690 -11 19 -41 70 -67 113 -25 43 -46 81 -46 83 0 2 -11 21 -23 42
-13 20 -135 231 -271 467 -137 237 -267 459 -290 495 -171 269 -440 462 -751
539 -44 11 -96 22 -115 26 -37 7 -306 15 -312 10z"/>
<path d="M17747 20195 c-10 -11 -40 -63 -66 -115 -139 -278 -166 -568 -86
-906 11 -47 59 -164 101 -244 119 -231 314 -425 543 -541 82 -41 221 -92 286
-104 22 -5 49 -10 60 -12 11 -2 47 -8 80 -12 67 -10 4828 -9 4861 1 12 4 39 9
60 12 160 26 400 132 523 231 78 63 150 134 224 219 95 109 228 385 251 521
22 127 27 182 27 291 0 68 -2 128 -4 132 -3 4 -8 29 -11 56 -18 135 -92 331
-174 461 l-19 30 -3318 0 c-3307 0 -3319 0 -3338 -20z"/>
<path d="M20146 17715 c-334 -201 -551 -515 -610 -884 -14 -86 -15 -359 -2
-411 3 -14 9 -41 12 -60 3 -19 9 -48 14 -65 69 -228 153 -380 295 -532 127
-138 162 -160 760 -506 213 -123 241 -139 288 -166 17 -10 104 -60 192 -111
88 -51 185 -106 215 -123 30 -16 67 -38 82 -49 14 -10 29 -18 32 -18 4 0 23
-11 44 -23 34 -22 486 -283 542 -314 14 -8 39 -22 55 -32 31 -18 204 -119 263
-152 60 -35 97 -56 317 -184 121 -70 238 -137 260 -150 22 -12 139 -80 260
-150 121 -70 238 -137 260 -150 22 -12 170 -98 329 -190 394 -227 435 -249
556 -289 156 -52 250 -66 420 -61 155 4 172 6 294 36 208 53 410 166 566 319
80 78 163 180 196 240 10 19 22 37 25 40 12 10 77 158 98 220 27 86 49 182 56
255 9 80 13 196 8 216 -4 14 -39 37 -168 109 -43 24 -313 180 -650 375 -218
126 -395 229 -745 430 -239 138 -261 151 -482 278 -92 53 -182 106 -200 117
-18 11 -40 23 -48 27 -8 4 -118 67 -243 140 -126 73 -230 133 -232 133 -3 0
-29 16 -59 35 -30 19 -57 35 -60 35 -2 0 -48 26 -103 58 -54 32 -118 70 -143
84 -68 38 -93 52 -395 228 -154 89 -298 172 -320 185 -22 12 -69 39 -105 60
-36 21 -78 45 -95 55 -16 9 -142 82 -280 162 -137 79 -277 160 -310 179 -33
19 -68 39 -77 44 -9 6 -29 17 -45 26 -15 8 -86 49 -158 91 -71 42 -146 85
-165 95 -81 46 -310 179 -369 215 -34 21 -65 38 -68 38 -2 0 -38 20 -79 45
-40 25 -77 45 -81 45 -5 0 -19 9 -33 20 -34 27 -48 25 -114 -15z"/>
<path d="M3950 15693 c-99 -14 -259 -52 -305 -73 -11 -5 -51 -23 -90 -40 -308
-136 -562 -416 -669 -735 -43 -126 -70 -283 -68 -394 1 -96 1 -99 30 -113 15
-8 101 -57 192 -110 91 -53 183 -106 205 -118 22 -13 54 -31 70 -41 17 -11 41
-24 55 -31 14 -7 60 -34 103 -60 43 -27 80 -48 83 -48 2 0 21 -11 42 -23 20
-13 57 -35 82 -49 25 -14 149 -85 275 -158 127 -73 245 -141 263 -152 66 -37
104 -59 412 -237 173 -100 337 -196 363 -212 27 -16 50 -29 52 -29 3 0 29 -16
59 -35 30 -19 57 -35 60 -35 2 0 77 -43 167 -95 89 -52 163 -95 165 -95 4 0
124 -71 154 -90 8 -6 22 -13 30 -17 14 -6 311 -178 622 -359 70 -41 132 -74
138 -74 5 0 10 -4 10 -10 0 -5 4 -10 9 -10 8 0 187 -101 231 -130 8 -6 21 -13
29 -17 13 -6 332 -188 371 -212 36 -22 719 -417 760 -439 25 -14 56 -33 70
-42 14 -9 39 -24 55 -32 17 -8 113 -64 215 -123 102 -59 205 -119 229 -133 25
-14 70 -40 100 -58 l56 -33 45 26 c362 208 601 564 645 961 11 98 5 306 -10
362 -2 8 -7 29 -10 45 -9 55 -13 69 -38 145 -42 126 -114 264 -190 364 -52 68
-209 219 -272 261 -33 22 -61 43 -63 48 -2 4 -7 7 -12 7 -4 0 -59 30 -121 66
-63 36 -226 131 -364 211 -137 79 -257 148 -265 153 -130 76 -312 180 -316
180 -3 0 -17 8 -32 19 -15 10 -166 98 -337 196 -170 98 -409 235 -530 305
-121 70 -236 137 -255 147 -19 11 -150 87 -290 168 -140 81 -271 157 -290 168
-19 10 -93 53 -165 95 -71 41 -143 83 -160 92 -32 19 -717 414 -800 462 -119
69 -288 138 -375 153 -19 3 -53 11 -75 17 -39 10 -294 19 -345 11z"/>
<path d="M20960 14392 c-216 -15 -430 -85 -603 -196 -403 -259 -640 -769 -571
-1226 19 -123 24 -145 48 -222 36 -113 78 -194 291 -563 108 -187 211 -365
228 -395 17 -30 48 -83 69 -118 21 -34 38 -64 38 -67 0 -2 26 -48 58 -102 33
-54 95 -161 139 -238 44 -77 155 -268 245 -425 91 -157 236 -409 323 -560 87
-151 176 -303 197 -338 21 -34 38 -64 38 -66 0 -3 19 -37 43 -78 24 -40 55
-93 69 -118 71 -125 408 -709 464 -803 35 -60 64 -110 64 -112 0 -10 164 -278
200 -325 174 -233 429 -398 719 -467 203 -48 486 -37 681 27 183 60 363 170
496 304 95 95 125 133 194 246 59 93 59 80 -6 189 -59 101 -319 549 -342 591
-14 25 -48 86 -77 135 -29 50 -62 106 -73 125 -10 19 -48 85 -84 146 -36 61
-68 117 -72 125 -4 8 -12 23 -19 34 -14 24 -96 166 -125 215 -10 19 -43 76
-72 125 -57 97 -80 137 -108 188 -11 17 -60 103 -110 190 -51 88 -92 163 -92
168 0 5 -4 9 -10 9 -5 0 -10 4 -10 9 0 5 -19 42 -43 83 -39 65 -333 576 -377
653 -9 17 -45 77 -79 133 -33 57 -61 106 -61 108 0 2 -18 34 -40 70 -22 36
-40 68 -40 70 0 3 -11 21 -24 42 -23 37 -151 257 -198 342 -14 25 -101 175
-193 334 -92 159 -175 303 -185 320 -51 90 -286 495 -301 521 -11 17 -22 37
-26 45 -4 8 -48 84 -98 170 -105 180 -317 548 -359 623 -45 83 -45 82 -111 82
-33 0 -76 -1 -95 -3z"/>
<path d="M19487 11244 c-1 -1 -38 -4 -82 -8 -283 -24 -570 -157 -770 -360 -89
-89 -103 -105 -157 -177 -48 -64 -126 -222 -157 -316 -71 -216 -65 5 -67
-2648 -2 -1949 0 -2404 11 -2465 7 -41 16 -91 20 -110 21 -117 101 -300 188
-430 64 -96 231 -263 327 -327 160 -107 363 -189 519 -209 19 -2 48 -7 65 -10
44 -8 211 -8 276 1 165 21 298 62 451 142 l106 54 0 3325 0 3325 -26 18 c-121
86 -371 172 -537 186 -78 7 -164 11 -167 9z"/>
<path d="M5280 10524 c-384 -48 -705 -259 -920 -604 -29 -47 -53 -86 -52 -87
1 -2 -9 -27 -22 -55 -35 -76 -73 -204 -90 -300 -22 -121 -15 -375 14 -488 24
-99 65 -215 86 -247 8 -13 12 -23 10 -23 -3 0 14 -33 38 -72 l43 -73 3324 -2
3325 -1 18 31 c58 97 104 198 130 282 2 6 6 17 9 25 4 8 16 61 27 117 31 154
30 356 -1 493 -6 25 -12 52 -14 60 -10 48 -61 185 -91 245 -135 266 -321 453
-581 584 -44 22 -86 41 -92 41 -6 0 -19 4 -29 10 -44 25 -176 55 -307 69 -121
13 -4715 9 -4825 -5z"/>
<path d="M16489 9266 c-2 -2 -24 -6 -49 -9 -304 -38 -611 -213 -804 -461 -64
-82 -106 -150 -388 -641 -86 -148 -164 -284 -174 -302 -11 -18 -57 -98 -104
-179 -47 -81 -97 -168 -111 -193 -15 -25 -59 -102 -99 -171 -40 -69 -80 -138
-90 -155 -9 -16 -51 -88 -92 -160 -42 -71 -85 -146 -95 -165 -11 -19 -80 -138
-153 -265 -73 -126 -141 -243 -150 -260 -10 -16 -77 -133 -150 -260 -73 -126
-155 -268 -182 -315 -26 -47 -53 -92 -57 -100 -5 -8 -84 -143 -174 -300 -91
-157 -205 -355 -254 -440 -50 -85 -102 -177 -117 -204 -65 -117 -124 -293
-143 -426 -17 -115 -7 -368 17 -445 5 -16 11 -41 14 -55 14 -82 108 -290 173
-383 205 -296 469 -470 824 -542 94 -19 285 -26 303 -11 8 6 34 47 58 91 25
44 64 112 86 152 23 39 50 87 61 105 10 18 67 116 126 218 58 101 117 202 130
225 45 78 326 565 425 735 40 69 84 145 97 170 14 25 38 65 53 90 15 25 81
140 148 255 66 116 128 224 138 242 29 48 177 305 190 328 12 22 289 501 459
795 59 102 139 241 178 310 39 69 74 127 79 128 4 2 8 7 8 12 0 7 131 237 350
615 51 88 103 178 115 200 13 22 47 81 75 130 29 50 80 137 113 195 33 58 134
233 225 390 91 157 175 303 188 325 l22 41 -45 74 c-198 330 -514 545 -883
604 -75 12 -331 21 -341 12z"/>
<path d="M13005 9009 c-196 -20 -389 -90 -599 -218 -37 -22 -69 -41 -71 -41
-1 0 -54 -30 -116 -66 -63 -37 -130 -76 -149 -86 -19 -11 -55 -32 -80 -47 -25
-14 -57 -33 -71 -41 -38 -21 -381 -220 -399 -231 -8 -5 -53 -31 -100 -58 -515
-296 -810 -467 -835 -482 -16 -11 -37 -22 -45 -26 -8 -4 -37 -20 -65 -36 -41
-24 -286 -166 -410 -237 -16 -10 -102 -59 -190 -110 -88 -51 -203 -118 -255
-148 -112 -64 -141 -81 -331 -190 -79 -46 -151 -88 -159 -93 -51 -31 -552
-319 -556 -319 -20 0 -180 -126 -260 -205 -238 -236 -360 -518 -370 -860 -6
-205 38 -411 127 -591 108 -222 262 -390 481 -526 l83 -51 60 33 c33 18 139
79 235 135 179 105 545 316 613 354 21 12 107 61 190 110 162 94 516 299 582
336 22 13 118 68 214 124 95 56 175 101 177 101 2 0 43 24 91 53 48 29 120 71
158 92 39 22 78 44 87 50 9 5 34 20 55 31 21 12 162 93 313 181 151 87 399
230 550 317 151 88 311 180 355 206 44 26 220 127 390 225 171 98 346 199 390
225 93 54 225 131 450 260 160 92 204 117 540 312 99 57 207 119 240 138 33
18 63 37 67 43 12 20 -1 260 -18 319 -3 9 -6 25 -8 35 -29 143 -95 298 -185
428 -56 82 -68 96 -151 181 -266 270 -651 410 -1025 373z"/>
</g>
</svg>
