<svg width="20" height="20" viewBox="0 0 20 20" fill="none" xmlns="http://www.w3.org/2000/svg">
<path d="M7.5013 12.9167H6.25131C5.08833 12.9167 4.50685 12.9167 4.03368 13.0602C2.96835 13.3834 2.13467 14.217 1.8115 15.2824C1.66797 15.7555 1.66797 16.337 1.66797 17.5M12.0846 6.25C12.0846 8.32107 10.4057 10 8.33464 10C6.26357 10 4.58464 8.32107 4.58464 6.25C4.58464 4.17893 6.26357 2.5 8.33464 2.5C10.4057 2.5 12.0846 4.17893 12.0846 6.25ZM9.16797 17.5L11.7524 16.7616C11.8762 16.7262 11.9381 16.7085 11.9958 16.682C12.047 16.6585 12.0958 16.6298 12.1412 16.5965C12.1924 16.5589 12.2379 16.5134 12.3289 16.4224L17.7097 11.0417C18.285 10.4664 18.285 9.53362 17.7097 8.95831C17.1344 8.38302 16.2016 8.38303 15.6263 8.95833L10.2456 14.339C10.1546 14.43 10.1091 14.4756 10.0715 14.5267C10.0381 14.5722 10.0095 14.6209 9.98593 14.6722C9.95943 14.7299 9.94175 14.7918 9.90639 14.9155L9.16797 17.5Z" stroke="#3B27C1" stroke-width="1.5" stroke-linecap="round" stroke-linejoin="round"/>
</svg>
