<svg width="20" height="20" viewBox="0 0 20 20" fill="none" xmlns="http://www.w3.org/2000/svg">
<path d="M13.3333 6.66726V3.75113C13.3333 3.05802 13.3333 2.71146 13.1873 2.49848C13.0598 2.31241 12.8622 2.186 12.6398 2.14816C12.3852 2.10484 12.0706 2.25007 11.4413 2.54052L4.04918 5.95225C3.48792 6.21129 3.20729 6.34081 3.00175 6.54169C2.82005 6.71927 2.68135 6.93605 2.59625 7.17545C2.5 7.44625 2.5 7.75532 2.5 8.37348V12.5006M13.75 12.0839H13.7583M2.5 9.33392L2.5 14.8339C2.5 15.7673 2.5 16.2341 2.68166 16.5906C2.84144 16.9042 3.09641 17.1591 3.41002 17.3189C3.76654 17.5006 4.23325 17.5006 5.16667 17.5006H14.8333C15.7668 17.5006 16.2335 17.5006 16.59 17.3189C16.9036 17.1591 17.1586 16.9042 17.3183 16.5906C17.5 16.2341 17.5 15.7673 17.5 14.8339V9.33392C17.5 8.4005 17.5 7.93379 17.3183 7.57727C17.1586 7.26367 16.9036 7.0087 16.59 6.84891C16.2335 6.66726 15.7668 6.66726 14.8333 6.66726L5.16667 6.66726C4.23325 6.66726 3.76654 6.66726 3.41002 6.84891C3.09641 7.0087 2.84144 7.26367 2.68166 7.57727C2.5 7.93379 2.5 8.4005 2.5 9.33392ZM14.1667 12.0839C14.1667 12.314 13.9801 12.5006 13.75 12.5006C13.5199 12.5006 13.3333 12.314 13.3333 12.0839C13.3333 11.8538 13.5199 11.6673 13.75 11.6673C13.9801 11.6673 14.1667 11.8538 14.1667 12.0839Z" stroke="#3B27C1" stroke-width="1.5" stroke-linecap="round" stroke-linejoin="round"/>
</svg>
