<svg width="20" height="17" viewBox="0 0 20 17" fill="none" xmlns="http://www.w3.org/2000/svg">
<path d="M2.45703 4.74609H17.7359V16.321H3.22539C2.80104 16.321 2.45703 15.977 2.45703 15.5527V4.74609Z" fill="#3B27C1"/>
<path d="M2.45703 4.93821C2.45703 4.40549 2.88889 3.97363 3.42161 3.97363H17.7359V5.90279H3.42161C2.88889 5.90279 2.45703 5.47093 2.45703 4.93821Z" fill="#BAFF36"/>
<path d="M10.5995 0L4.77344 5.9418H16.4641L10.5995 0Z" fill="#A00700"/>
<path d="M12.1042 1.54332L7.8215 5.90322H4.77344L10.6381 0L12.1042 1.54332Z" fill="#FC6760"/>
<path d="M12.7587 14.8548C6.12243 14.8548 3.12581 8.37282 2.45703 5.13184V15.5912C2.45703 16.0155 2.80104 16.3595 3.22539 16.3595H17.6974V14.8548H12.7587Z" fill="url(#paint0_radial_6414_42105)"/>
<path d="M8.94141 9.9738C8.94141 9.08973 9.65809 8.37305 10.5422 8.37305H17.7384V13.003H10.5422C9.65809 13.003 8.94141 12.2863 8.94141 11.4023V9.9738Z" fill="white"/>
<path d="M17.7384 10.6875H8.94141V11.4017C8.94141 12.2858 9.65809 13.0025 10.5422 13.0025H17.7384V10.6875Z" fill="url(#paint1_linear_6414_42105)"/>
<defs>
<radialGradient id="paint0_radial_6414_42105" cx="0" cy="0" r="1" gradientUnits="userSpaceOnUse" gradientTransform="translate(10.0772 10.7457) rotate(90) scale(5.61384 7.62016)">
<stop stop-color="#E8E8E8"/>
<stop offset="1" stop-color="white" stop-opacity="0.13"/>
</radialGradient>
<linearGradient id="paint1_linear_6414_42105" x1="13.3399" y1="9.83867" x2="13.3399" y2="13.0025" gradientUnits="userSpaceOnUse">
<stop stop-color="white"/>
<stop offset="0.353054" stop-color="#BAFF36"/>
<stop offset="1" stop-color="white"/>
</linearGradient>
</defs>
</svg>
