<svg width="20" height="21" viewBox="0 0 20 21" fill="none" xmlns="http://www.w3.org/2000/svg">
<path d="M11.5 5.5H17.7056C18.1342 5.5 18.3485 5.5 18.4776 5.59027C18.5903 5.6691 18.6655 5.79086 18.6856 5.92692C18.7086 6.08273 18.6128 6.27442 18.4211 6.65777L17.1688 9.16232C17.1068 9.28641 17.0758 9.34845 17.0626 9.41367C17.051 9.47145 17.0496 9.53083 17.0586 9.58908C17.0688 9.65483 17.097 9.71822 17.1533 9.845L18.5 12.8751C18.6667 13.25 18.75 13.4374 18.7227 13.5888C18.6988 13.721 18.6227 13.8381 18.5116 13.9136C18.3844 14 18.1793 14 17.769 14H10.1C9.53995 14 9.25992 14 9.04601 13.891C8.85785 13.7951 8.70487 13.6422 8.60899 13.454C8.5 13.2401 8.5 12.9601 8.5 12.4V10M1 20L1 2.5M1 10H9.9C10.4601 10 10.7401 10 10.954 9.89101C11.1422 9.79513 11.2951 9.64215 11.391 9.45399C11.5 9.24008 11.5 8.96005 11.5 8.4V3.1C11.5 2.53995 11.5 2.25992 11.391 2.04601C11.2951 1.85785 11.1422 1.70487 10.954 1.60899C10.7401 1.5 10.4601 1.5 9.9 1.5L2.6 1.5C2.03995 1.5 1.75992 1.5 1.54601 1.60899C1.35785 1.70487 1.20487 1.85785 1.10899 2.04601C1 2.25992 1 2.53995 1 3.1V10Z" stroke="#898D94" stroke-width="1.4" stroke-linecap="round" stroke-linejoin="round"/>
</svg>
