<svg width="16" height="22" viewBox="0 0 16 22" fill="none" xmlns="http://www.w3.org/2000/svg">
<path d="M8.00141 14L8.00141 21M4.00141 6.30813V8.43875C4.00141 8.64677 4.00141 8.75078 3.98099 8.85026C3.96287 8.93852 3.93291 9.02393 3.89192 9.10417C3.84572 9.19461 3.78074 9.27583 3.6508 9.43826L2.08102 11.4005C1.41528 12.2327 1.08241 12.6487 1.08203 12.9989C1.0817 13.3035 1.22017 13.5916 1.45818 13.7815C1.73186 14 2.26471 14 3.33041 14H12.6724C13.7381 14 14.271 14 14.5446 13.7815C14.7826 13.5916 14.9211 13.3035 14.9208 12.9989C14.9204 12.6487 14.5875 12.2327 13.9218 11.4005L12.352 9.43826C12.2221 9.27583 12.1571 9.19461 12.1109 9.10417C12.0699 9.02393 12.0399 8.93852 12.0218 8.85026C12.0014 8.75078 12.0014 8.64677 12.0014 8.43875V6.30813C12.0014 6.19301 12.0014 6.13544 12.0079 6.07868C12.0137 6.02825 12.0233 5.97833 12.0367 5.92937C12.0517 5.87424 12.0731 5.8208 12.1158 5.71391L13.1237 3.19423C13.4178 2.45914 13.5648 2.09159 13.5035 1.79655C13.4498 1.53853 13.2965 1.31211 13.0769 1.1665C12.8257 1 12.4299 1 11.6382 1H4.36466C3.57295 1 3.17709 1 2.92591 1.1665C2.70627 1.31211 2.55297 1.53853 2.49935 1.79655C2.43804 2.09159 2.58506 2.45914 2.8791 3.19423L3.88697 5.71391C3.92973 5.8208 3.9511 5.87424 3.96614 5.92937C3.9795 5.97833 3.98912 6.02825 3.9949 6.07868C4.00141 6.13544 4.00141 6.19301 4.00141 6.30813Z" stroke="#898D94" stroke-width="1.4" stroke-linecap="round" stroke-linejoin="round"/>
</svg>
